STARTFONT 2.1
FONT -FontForge-Bungee Shade-Book-R-Normal--36-360-72-72-P-308-ISO10646-1
SIZE 36 72 72
FONTBOUNDINGBOX 92 92 -22 -33
COMMENT "Generated by fontforge, http://fontforge.sourceforge.net"
COMMENT "Copyright 2008 The Bungee Project Authors (david@djr.com)"
STARTPROPERTIES 39
FOUNDRY "FontForge"
FAMILY_NAME "Bungee Shade"
WEIGHT_NAME "Book"
SLANT "R"
SETWIDTH_NAME "Normal"
ADD_STYLE_NAME ""
PIXEL_SIZE 36
POINT_SIZE 360
RESOLUTION_X 72
RESOLUTION_Y 72
SPACING "P"
AVERAGE_WIDTH 308
CHARSET_REGISTRY "ISO10646"
CHARSET_ENCODING "1"
FONTNAME_REGISTRY ""
CHARSET_COLLECTIONS "ISO8859-2 ISO8859-9 ISO8859-4 ISO10646-1"
FONT_NAME "BungeeShade-Regular"
FACE_NAME "Bungee Shade"
COPYRIGHT "Copyright 2008 The Bungee Project Authors (david@djr.com)"
FONT_VERSION "1.000;PS 1.0;hotconv 1.0.72;makeotf.lib2.5.5900"
FONT_ASCENT 31
FONT_DESCENT 5
UNDERLINE_POSITION 0
UNDERLINE_THICKNESS 0
X_HEIGHT 25
CAP_HEIGHT 25
RAW_ASCENT 860
RAW_DESCENT 140
NORM_SPACE 12
RELATIVE_WEIGHT 40
RELATIVE_SETWIDTH 50
SUPERSCRIPT_X 0
SUPERSCRIPT_Y 12
SUPERSCRIPT_SIZE 21
SUBSCRIPT_X 0
SUBSCRIPT_Y 2
SUBSCRIPT_SIZE 21
AVG_LOWERCASE_WIDTH 293
AVG_UPPERCASE_WIDTH 299
ENDPROPERTIES
CHARS 1065
STARTCHAR space
ENCODING 32
SWIDTH 325 0
DWIDTH 12 0
BBX 1 1 0 0
BITMAP
00
ENDCHAR
STARTCHAR exclam
ENCODING 33
SWIDTH 524 0
DWIDTH 19 0
BBX 15 30 2 -4
BITMAP
07FE
0802
3802
7842
F842
F842
F842
F842
F842
F842
F842
FC42
FC42
FC02
FC02
7C02
7FFC
7FF8
7FFC
7802
3802
3842
7842
F802
F802
FC02
FFFC
FFF0
FFE0
FFC0
ENDCHAR
STARTCHAR quotedbl
ENCODING 34
SWIDTH 746 0
DWIDTH 27 0
BBX 25 18 1 8
BITMAP
07FCFF80
18050080
38030080
78030080
F8430880
F8470880
F8470880
F8470880
F8470880
F8470880
F8470880
F8070080
F8070080
F8070080
FFFFFF00
FFFFFE00
FFDFFC00
FF9FF000
ENDCHAR
STARTCHAR numbersign
ENCODING 35
SWIDTH 850 0
DWIDTH 31 0
BBX 30 30 0 -4
BITMAP
001F87F0
00204810
00E05810
01E47890
03C47898
02040104
06040104
0E3FFFE4
3E040104
3E080104
3E080104
3FC8F238
3F88F230
3F88F220
3F89E230
08080208
18100208
387FFF88
78100208
F8100408
FC102408
FF13C470
FF03C060
FF03C080
7F03C080
1F07E080
1FFFFF00
1FF7FC00
1FC7F800
1F87F000
ENDCHAR
STARTCHAR dollar
ENCODING 36
SWIDTH 750 0
DWIDTH 27 0
BBX 25 37 1 -7
BITMAP
001FC000
00201000
00601000
00E01000
01810F00
02010100
04010100
0C1FF900
18600100
38400100
78400100
F847FE00
F847FC00
F8403C00
F8400200
F8600100
F81F0080
FC00F080
FE000880
FF800880
FFFC0880
7FFF8880
3FFF8880
18000880
18000880
38001080
78FFC080
F8010100
F8010200
F8010C00
FFE01800
FFE01000
FFE01000
FFFFE000
03FF8000
03FF0000
03FE0000
ENDCHAR
STARTCHAR percent
ENCODING 37
SWIDTH 1131 0
DWIDTH 41 0
BBX 39 30 1 -4
BITMAP
03FF07F000
04FC8C0800
0902781000
1902789000
3932791000
F932791000
F932712000
F932712000
F932722000
F932722000
F9026245D8
F902625804
F8FC6463E2
FC00E44412
FF87C4480A
FFFFC4C9CA
FFFBC8C9CA
7FF7C8C9CA
1FC788C9CA
000789C9CA
000791C8CA
000F91C80A
000F01C412
000F03E3E2
000F03E002
001F87FC1C
001FFFFFF0
001FF3FFE0
001FE3FFC0
001F80FF00
ENDCHAR
STARTCHAR ampersand
ENCODING 38
SWIDTH 866 0
DWIDTH 31 0
BBX 31 30 0 -4
BITMAP
001FFF00
00600100
00800100
0107F100
03080100
0F080100
0F10FF00
1F10FE00
1F10F800
1F101000
1F881000
1FC817FC
1E1F1802
1C201802
0C401872
1C403882
3847F882
7847F882
7843F884
F8400088
FC400088
FC200088
FC1FFF08
FE000010
7F000020
7FE000C0
7FFFFF80
3FFFFF00
1FFFFC00
07FFF800
ENDCHAR
STARTCHAR quotesingle
ENCODING 39
SWIDTH 456 0
DWIDTH 16 0
BBX 14 18 1 8
BITMAP
07FC
0804
1804
7804
F844
F844
F844
F844
F844
F844
F844
F804
F804
FC04
FFF8
FFF0
FFE0
7FC0
ENDCHAR
STARTCHAR parenleft
ENCODING 40
SWIDTH 529 0
DWIDTH 19 0
BBX 17 37 1 -7
BITMAP
003F00
01C080
020080
040080
0C1C80
186080
384080
784080
F88700
F88600
F88400
F88400
F88400
F88400
F88400
F88400
F88400
F88400
F88400
F88400
F88400
F88400
F88400
F88400
F88400
F88300
F84080
F84080
F86080
FC1C80
FE0080
FF0080
FFE080
7FFF00
7FFE00
1FFC00
07F000
ENDCHAR
STARTCHAR parenright
ENCODING 41
SWIDTH 529 0
DWIDTH 19 0
BBX 17 37 1 -7
BITMAP
07F000
080C00
180200
380100
78E080
F81080
F80880
F80880
FF0880
FF8880
FF8880
FF8880
1F8880
0F8880
0F8880
0F8880
0F8880
0F8880
0F8880
0F8880
0F8880
0F8880
0F8880
0F8880
0F8880
0F0880
080880
180880
381080
78E080
F80100
F80200
F81C00
FFF000
FFE000
FFC000
FF0000
ENDCHAR
STARTCHAR asterisk
ENCODING 42
SWIDTH 818 0
DWIDTH 29 0
BBX 27 26 1 0
BITMAP
0007F000
00181000
00381000
00781000
01F89080
02789340
060C9C40
0C008020
1C008020
3C388E20
3807F020
7C008020
7FF14FC0
7FE24780
FFC42300
7F841100
07088880
03018040
0701C080
0F83C100
1FE3E600
3FFFF800
1FF7F000
0FE7E000
03C38000
01830000
ENDCHAR
STARTCHAR plus
ENCODING 43
SWIDTH 834 0
DWIDTH 30 0
BBX 26 26 2 -2
BITMAP
000FC000
00101000
00701000
00F11000
01F11000
01F11000
01F11000
07F11F80
08010040
38010040
78FFFE40
F8010040
F8010040
F8010040
FFF11FC0
FFF11F00
FFF11E00
FFF11C00
01F01000
01F01000
01F01000
01F02000
01FFC000
01FF8000
01FE0000
01FC0000
ENDCHAR
STARTCHAR comma
ENCODING 44
SWIDTH 484 0
DWIDTH 17 0
BBX 15 18 1 -8
BITMAP
07FC
0802
1802
3802
78F2
F80A
F80A
F80A
FFCA
FFCA
FC12
FCC2
3C04
7C08
7FF0
7FE0
7F80
7F00
ENDCHAR
STARTCHAR hyphen
ENCODING 45
SWIDTH 520 0
DWIDTH 19 0
BBX 17 12 1 5
BITMAP
07FF80
080080
380080
78FC80
F80080
F80080
F80080
F80080
FFFF00
FFFE00
FFF800
FFF000
ENDCHAR
STARTCHAR period
ENCODING 46
SWIDTH 484 0
DWIDTH 17 0
BBX 15 15 1 -4
BITMAP
07FC
0802
1802
3802
7822
F822
F822
F802
F802
F802
FC02
FFFC
FFF8
FFF0
FFC0
ENDCHAR
STARTCHAR slash
ENCODING 47
SWIDTH 487 0
DWIDTH 18 0
BBX 18 37 0 -7
BITMAP
003F80
004040
018040
038040
078840
0F8880
0F8880
0F8880
0F8880
0F0880
0F0880
0F1080
1F1100
1F1100
1F1100
1E1100
1E1100
1E1100
1E2100
3E2200
3E2200
3E2200
3C2200
3C2200
3C2200
3C4200
7C4400
7C4400
7C4400
784400
780400
780400
780800
FFF000
FFE000
FFC000
FF8000
ENDCHAR
STARTCHAR zero
ENCODING 48
SWIDTH 827 0
DWIDTH 30 0
BBX 28 32 1 -5
BITMAP
000FF800
00700700
01800080
020FD040
04100C20
0C200210
38400210
7843E110
7847E110
F847E110
F847E110
F847E110
F847E110
F847E110
F847E110
F847E110
F847E110
F847E110
F847E110
F843E110
F8400210
F8200210
FC100C10
FC0DD020
FE000020
7F0000C0
7FC00300
7FFFFE00
3FFFFC00
1FFFF000
07FFE000
00300000
ENDCHAR
STARTCHAR one
ENCODING 49
SWIDTH 701 0
DWIDTH 25 0
BBX 24 30 1 -4
BITMAP
07FFE0
0C0020
1C0020
3C7E20
7C0220
7C0220
7E0220
7FC220
7FC220
7FC220
7FC220
07C220
07C220
07C220
07C220
07C220
07C220
07C220
07C21E
080201
180201
380201
F8FFF1
F80001
F80001
F80001
FFFFFE
FFFFF8
FFFFF0
FFFFE0
ENDCHAR
STARTCHAR two
ENCODING 50
SWIDTH 739 0
DWIDTH 27 0
BBX 25 30 1 -4
BITMAP
03FFFC00
04000200
1C000100
3C7FE100
7C001080
7C001080
7E000880
7FFF0880
7FFF0880
7FF80880
7FC01080
01002080
0201C100
041E0200
18600400
38803800
7881E000
F887C000
F887FF00
F8800080
F8800080
F8800080
F8FFF880
F8000080
F8000080
F8000100
FFFFFE00
FFFFFC00
FFFFF800
FFFFF000
ENDCHAR
STARTCHAR three
ENCODING 51
SWIDTH 737 0
DWIDTH 27 0
BBX 25 30 1 -4
BITMAP
07FFF000
08000800
38000400
78FE8200
F8004200
F8004200
FFFC2200
FFFC2200
FFFC2200
FF002400
7F002C00
07004200
0F1FE100
1F001080
1F000880
1F000880
1FFF8880
1FFF8880
1FFF0880
18000880
18000880
38001080
78FFE080
F8000100
F8000200
F8001C00
FFFFF000
FFFFE000
FFFFC000
FFFF0000
ENDCHAR
STARTCHAR four
ENCODING 52
SWIDTH 809 0
DWIDTH 29 0
BBX 27 30 1 -4
BITMAP
07FC3FC0
0804C020
1805C020
3843C220
7843C220
F843C220
F843C220
F843C220
F843C220
F843C220
F843C220
F843C220
F8400220
F8400220
F8200220
FC1FFC20
FC000220
FC000220
7E000220
7FC00220
7FFFC220
3FFFC220
3FFFC220
0FFFC020
0007C020
0007E040
0007FF80
0007FF00
0007FE00
0007FC00
ENDCHAR
STARTCHAR five
ENCODING 53
SWIDTH 747 0
DWIDTH 27 0
BBX 25 30 1 -4
BITMAP
07FFFF00
0C000100
18000100
387FF100
78400100
F8400100
F8400100
F843FE00
F843F800
F8400600
F8400100
F8400080
F87FE080
F8001880
F8000880
FC000880
FFFF8880
FFFF8880
FFFF8880
78000880
18000880
38001880
78FFC080
F8000100
F8000200
FC001C00
FFFFF800
FFFFF000
FFFFC000
FFFF0000
ENDCHAR
STARTCHAR six
ENCODING 54
SWIDTH 793 0
DWIDTH 29 0
BBX 27 31 1 -5
BITMAP
007FFF00
01800100
02000100
041FF100
0C200100
18400100
38400100
7847FE00
7847F800
F8400700
F8400080
F85BF840
F8600420
F8400220
F8400220
F843C220
F847C220
F847C220
F847C220
F8438220
F8400420
FC300C20
FC0FF040
FE000040
FF000080
7FC00300
7FFFFC00
3FFFF800
1FFFF000
07FFC000
00300000
ENDCHAR
STARTCHAR seven
ENCODING 55
SWIDTH 727 0
DWIDTH 26 0
BBX 25 30 0 -4
BITMAP
07FFFF80
0C000080
1C000080
3C7FF880
7C000880
FC000880
FC000880
FFFF8880
FFFF8880
7FFF8880
7FFE0880
00300880
00401880
00806080
01838080
03040100
07080600
0F081800
0F087000
1F086000
1F088000
1F088000
1F008000
1F008000
1F008000
1F808000
1FFF0000
1FFC0000
1FF80000
1FF00000
ENDCHAR
STARTCHAR eight
ENCODING 56
SWIDTH 811 0
DWIDTH 29 0
BBX 27 32 1 -5
BITMAP
000FF000
00700E00
01800180
020FF080
06100840
0E200440
1E23C440
3E23C440
3E23C440
3E23C440
3E200480
3FA00580
3E100840
3C0FF020
38300C20
18400220
38810220
7887E120
F887E120
F887E120
F887E120
F8800220
F8400220
F8300C20
FC0BD020
FE0000C0
FFC00300
7FFFFE00
7FFFFC00
3FFFF800
0FFFE000
00300000
ENDCHAR
STARTCHAR nine
ENCODING 57
SWIDTH 793 0
DWIDTH 29 0
BBX 26 31 1 -4
BITMAP
001FF000
00E00E00
03000100
041FE080
0C201840
18400440
38800440
7887C440
F887C440
F887C440
F887C440
F8838440
F8400440
F8600C40
F81FD440
FC000440
FE000440
FFF9C440
FFFFC440
7FFF8440
3F000440
0F000440
07000840
0F1FF040
1F000080
1F000100
1F000E00
1FFFF800
1FFFF000
1FFFE000
1FFF8000
ENDCHAR
STARTCHAR colon
ENCODING 58
SWIDTH 484 0
DWIDTH 17 0
BBX 15 28 1 -4
BITMAP
07FC
0802
1802
3802
7822
F822
F822
F802
F802
F802
FC02
FFFC
FFF8
FFFC
F802
1802
3802
7822
F822
F822
F802
F802
F802
FC02
FFFC
FFF8
FFF0
FFC0
ENDCHAR
STARTCHAR semicolon
ENCODING 59
SWIDTH 484 0
DWIDTH 17 0
BBX 15 31 1 -8
BITMAP
07FC
0802
1802
3802
7822
F822
F822
F802
F802
F802
FC02
FFFC
FFF8
FFFC
F802
1802
3802
78F2
F80A
F80A
F80A
FFCA
FFCA
FC12
FCC2
3C04
7C08
7FF0
7FE0
7F80
7F00
ENDCHAR
STARTCHAR less
ENCODING 60
SWIDTH 814 0
DWIDTH 29 0
BBX 25 26 2 -2
BITMAP
00000F80
0000F080
00070080
00780080
01801880
0201E080
040E0080
08700100
38800E00
7880FC00
7887F800
F88FF000
F880E000
F8801C00
F8700300
FC0E0080
FE01E080
FF001880
FFF00080
7FFE0080
7FFFE080
1FFFFC80
03FFFF00
007FFE00
0007FC00
0000F000
ENDCHAR
STARTCHAR equal
ENCODING 61
SWIDTH 834 0
DWIDTH 30 0
BBX 26 23 2 0
BITMAP
07FFFF80
08000040
18000040
78000040
F8FFFE40
F8000040
F8000040
F8000040
FFFFFF80
FFFFFF00
FFFFFC00
FFFFFF80
08000040
18000040
38000040
F8FFFE40
F8000040
F8000040
F8000040
FFFFFF80
FFFFFF00
FFFFFE00
FFFFF800
ENDCHAR
STARTCHAR greater
ENCODING 62
SWIDTH 814 0
DWIDTH 29 0
BBX 25 26 2 -2
BITMAP
07C00000
08380000
18078000
38007000
78C00E00
F83C0100
F8038080
FC007080
FFC00880
FFFC0480
FFFF8480
7FFFC480
0FFC0480
01E00480
02001880
0400E080
180F0100
38700200
78003C00
F801F800
F81FE000
FCFFC000
FFFF0000
FFF00000
FF800000
F8000000
ENDCHAR
STARTCHAR question
ENCODING 63
SWIDTH 756 0
DWIDTH 27 0
BBX 26 30 1 -4
BITMAP
07FFFC00
18000300
38000080
78FFF080
F8000840
F8000840
F8000840
FFFF8840
FFFF8840
FFE00840
FF000840
03000840
0703F080
1F1C0080
1F000100
1F000600
1F81FC00
1FFFF800
1FFFE000
1F004000
1F008000
0F088000
1F088000
1F008000
1F008000
1F008000
1FFF0000
1FFE0000
1FF80000
1FF00000
ENDCHAR
STARTCHAR at
ENCODING 64
SWIDTH 967 0
DWIDTH 35 0
BBX 33 38 1 -8
BITMAP
0007FF8000
0038007000
00C7FF0C00
013800E200
0241781A00
049FFFC500
0D3FFFE500
3D7FFFF280
397FFFF280
7944003A80
7948003A80
F9517F3A80
F962013A80
F962013A80
F964713A80
F964713A80
F964713A80
F964713A80
F964713A80
F964713A80
F964713A80
F964713280
F962013480
F962010500
F971FFE900
F970000200
F97C000C00
FD7FFFF800
FD3FFFE000
FC9FFFC000
7E407FC000
7F38002000
7FC7FF9000
3FFE002000
1FFFFFC000
0FFFFF8000
03FFFE0000
007FFC0000
ENDCHAR
STARTCHAR A
ENCODING 65
SWIDTH 830 0
DWIDTH 30 0
BBX 28 30 1 -4
BITMAP
003FFE00
00400100
01800100
0387E100
07081080
0F080880
0F100840
0E118440
1E21C440
1E23C420
1C23C220
3C43E220
3847E110
78400110
78400110
78400110
F87FFF10
F8400110
F8400110
F8400110
F847E110
F847E110
F847E110
F807E010
F807E010
FC0BF010
FFF3FFE0
FFE3FF80
FFC3FF00
FF01FE00
ENDCHAR
STARTCHAR B
ENCODING 66
SWIDTH 825 0
DWIDTH 30 0
BBX 27 30 2 -4
BITMAP
0FFFFC00
18000200
38000100
787FE080
F8801080
F8800880
F8878880
F8878880
F8878880
F8878880
F8800B00
F8801080
F87FF840
F8800420
F8800220
F887E220
F887E220
F887E220
F887E220
F8800220
F8800220
F8800420
F87FF820
F8000040
F8000080
F8000300
FFFFFE00
FFFFFC00
FFFFF800
FFFFE000
ENDCHAR
STARTCHAR C
ENCODING 67
SWIDTH 728 0
DWIDTH 26 0
BBX 25 30 1 -4
BITMAP
007FFF00
01800080
02000080
041FF880
0C200080
18400080
38400100
7843FE00
7847FC00
F847F800
F847F000
F8440000
F8440000
F8440000
F8440000
F8440000
F8440000
F8440000
F841FE00
F8400080
F8400080
FC200080
FC17F880
FE000080
7F000080
7FF00100
3FFFFE00
3FFFFC00
1FFFF800
03FFF000
ENDCHAR
STARTCHAR D
ENCODING 68
SWIDTH 846 0
DWIDTH 30 0
BBX 27 30 2 -4
BITMAP
0FFFFE00
18000180
38000040
787FF020
F8800C20
F8800220
F8800220
F887E220
F887E220
F887E220
F887E220
F88BE220
F88BE220
F88BE220
F88BE220
F88BE220
F88BE220
F88BE220
F887C220
F8800220
F8800220
F8800420
F87FF820
F8000040
F8000080
F8000F00
FFFFFC00
FFFFF800
FFFFF000
FFFFC000
ENDCHAR
STARTCHAR E
ENCODING 69
SWIDTH 754 0
DWIDTH 27 0
BBX 24 30 2 -4
BITMAP
0FFFFF
180001
380001
787FF9
F88001
F88001
F887FF
F887FC
F887F8
F88004
F88004
F88004
F87FC4
F88004
F88004
F88008
F887F0
F887E0
F887FE
F88001
F88001
F88001
F87FF9
F80001
F80001
F80001
FFFFFE
FFFFFC
FFFFF0
FFFFE0
ENDCHAR
STARTCHAR F
ENCODING 70
SWIDTH 718 0
DWIDTH 26 0
BBX 24 30 2 -4
BITMAP
0FFFFE
180001
380001
787FF1
F88001
F88001
F887FE
F887FC
F887F8
F887F0
F88008
F88008
F88008
F87F88
F88008
F88008
F88008
F887F0
F887C0
F88780
F88700
F88800
F80800
F80800
F80800
F80800
FFF000
FFC000
FF8000
FF0000
ENDCHAR
STARTCHAR G
ENCODING 71
SWIDTH 808 0
DWIDTH 29 0
BBX 27 30 1 -4
BITMAP
007FFF00
01800080
02000080
041FF880
0C200080
18400080
38400080
7843FF00
7847FC00
F847F800
F847F000
F8441FC0
F8442020
F8446020
F845E020
F847E220
F847E220
F847E220
F843E220
F8400220
F8400220
FC300220
FC0FFE20
FE000020
7F000020
7FF00020
3FFFFFC0
3FFFFF00
1FFFFE00
03FFFC00
ENDCHAR
STARTCHAR H
ENCODING 72
SWIDTH 859 0
DWIDTH 31 0
BBX 27 30 2 -4
BITMAP
0FF81FE0
18086020
3808E020
7889E220
F88BE220
F88BE220
F88BE220
F88BE220
F887E220
F8800220
F8800220
F8800220
F87FFE20
F8800220
F8800220
F8800220
F8800220
F887E220
F887E220
F887E220
F887E220
F88BE220
F88BE220
F80BE020
F80BE020
F80BE020
FFF3FFC0
FFE3FF80
FF83FF00
FF03FC00
ENDCHAR
STARTCHAR I
ENCODING 73
SWIDTH 705 0
DWIDTH 25 0
BBX 23 30 1 -4
BITMAP
07FFFE
080002
380002
78FFF2
F80202
F80202
FFC23E
FFC23C
FFC238
FFC220
FFC220
07C220
07C220
07C220
07C220
07C220
07C220
07C220
07C23C
080202
180202
380202
78FFF2
F80002
F80002
FC0002
FFFFFC
FFFFF8
FFFFF0
FFFFC0
ENDCHAR
STARTCHAR J
ENCODING 74
SWIDTH 788 0
DWIDTH 28 0
BBX 26 31 1 -5
BITMAP
00007FC0
00008040
00018040
00078440
000F8440
000F8440
000F8440
000F8440
000F8440
000F8440
000F8440
07FF8440
080F8440
180F8440
780F8440
F88F8440
F88F8440
F88F8440
F8878440
F8800440
F8400840
F8201040
F81BA040
FC000080
FE000100
FF800600
7FFFF800
7FFFF000
1FFFE000
0FFF8000
00600000
ENDCHAR
STARTCHAR K
ENCODING 75
SWIDTH 846 0
DWIDTH 30 0
BBX 27 30 2 -4
BITMAP
0FF83FE0
18084020
38098040
788B8840
F8870880
F8871080
F8871100
F8861100
F8862200
F8802180
F8804040
F8804020
F87FF820
F8800420
F8800220
F8800220
F887C220
F887E220
F887E220
F887E220
F887E220
F88BE220
F88BE220
F80BE020
F80BE020
F80BE020
FFF3FFC0
FFE3FF80
FF83FE00
FF03FC00
ENDCHAR
STARTCHAR L
ENCODING 76
SWIDTH 795 0
DWIDTH 29 0
BBX 26 30 2 -4
BITMAP
0FF80000
18080000
38080000
78880000
F8880000
F8880000
F8880000
F8880000
F8880000
F8880000
F8880000
F8883F80
F8884040
F888C040
F889C040
F887C440
F887C440
F887C440
F887C440
F8800440
F8800440
F8800440
F87FFC40
F8000040
F8000040
F8000040
FFFFFF80
FFFFFE00
FFFFFC00
FFFFF800
ENDCHAR
STARTCHAR M
ENCODING 77
SWIDTH 949 0
DWIDTH 34 0
BBX 31 30 2 -4
BITMAP
0FF807FC
18040802
38021802
786230C2
F8917142
F888E242
F888C442
F8840442
F8820842
F8821042
F8812042
F8884242
F8880442
F8840442
F8840C42
F8860C42
F887FC42
F887FC42
F887FC42
F8877C42
F8867C42
F8887C42
F8087C02
F8087C02
F8087C02
F8087E04
FFF07FF8
FFC07FF0
FF807FE0
FF007FC0
ENDCHAR
STARTCHAR N
ENCODING 78
SWIDTH 853 0
DWIDTH 31 0
BBX 27 30 2 -4
BITMAP
0FF01FE0
18086020
3804E020
78C3E220
F8A1E220
F890E220
F8906220
F8882220
F8842220
F8820220
F8810220
F8808220
F8804220
F8882220
F8841220
F8861220
F8870A20
F8878620
F8878220
F887C220
F887E220
F887E220
F887E220
F807E020
F80BE020
F80BE020
FFF3FFC0
FFC3FF80
FF83FE00
FF03FC00
ENDCHAR
STARTCHAR O
ENCODING 79
SWIDTH 837 0
DWIDTH 30 0
BBX 28 32 1 -5
BITMAP
000FF800
00700700
018000C0
020FD020
04100C10
0C200210
38400110
7843E110
7847E110
F847E110
F847E110
F847E110
F847E110
F847E110
F847E110
F847E110
F847E110
F847E110
F847E110
F843E110
F8400110
F8200210
FC100C10
FC0DD010
FE000020
7F000040
7FC00180
7FFFFE00
3FFFFC00
1FFFF800
07FFE000
00180000
ENDCHAR
STARTCHAR P
ENCODING 80
SWIDTH 782 0
DWIDTH 28 0
BBX 26 30 2 -4
BITMAP
0FFFFC00
18000300
38000080
787FC080
F8801840
F8800440
F8800440
F887C440
F887C440
F887C440
F887C440
F8878440
F8800440
F8800440
F8800840
F87FF080
F8800080
F8800100
F8801E00
F887F800
F887F000
F887E000
F8878000
F8080000
F8080000
F8080000
FFF00000
FFE00000
FF800000
FF000000
ENDCHAR
STARTCHAR Q
ENCODING 81
SWIDTH 837 0
DWIDTH 30 0
BBX 28 35 1 -8
BITMAP
000FF800
00700700
018000C0
02000020
040FD020
0C100C10
18200210
38400110
7843E110
7847E110
F847E110
F847E110
F847E110
F847E110
F847E110
F847E110
F847E110
F847E110
F847E110
F847E110
F843E110
F8400110
FC200210
FC100410
FC0BD820
FE008040
7F808080
7FF00F00
3FF00E00
1FF00800
0FF80800
01FFF000
01FFC000
01FF8000
00FF0000
ENDCHAR
STARTCHAR R
ENCODING 82
SWIDTH 843 0
DWIDTH 30 0
BBX 28 30 2 -4
BITMAP
0FFFFC00
18000300
38000080
787FE080
F8801040
F8800840
F8878840
F8878840
F8878840
F8878880
F8870880
F8800980
F8801040
F87FF420
F8800210
F8800210
F8800110
F887E110
F887E110
F887E110
F887E110
F88BE110
F80BE010
F80BE010
F80BE010
F80BF030
FFF3FFC0
FFC3FF80
FF83FF00
FF03FE00
ENDCHAR
STARTCHAR S
ENCODING 83
SWIDTH 750 0
DWIDTH 27 0
BBX 25 30 1 -4
BITMAP
00FFFF00
01000100
02000100
0C1FF900
18600100
38400100
78400100
7847FE00
F847FC00
F8403C00
F8400200
F8600100
F81F0080
FC00F080
FE000880
FF000880
FFFC0880
7FFF8880
3FFF8880
18000880
18000880
38001080
78FFC080
F8000100
F8000200
FC001C00
FFFFF800
FFFFF000
FFFFC000
FFFF0000
ENDCHAR
STARTCHAR T
ENCODING 84
SWIDTH 756 0
DWIDTH 27 0
BBX 27 30 0 -4
BITMAP
07FFFFE0
08000020
18000020
78FFFF20
F8010020
F8010020
FC010020
FFF10FC0
FFF10F80
FFF10E00
FFF10C00
01F10800
01F10800
01F10800
01F10800
01F10800
01F10800
01F10800
01F10800
01F10800
01F10800
01F10800
01F00800
01F00800
01F00800
01F01000
01FFE000
01FFC000
01FF8000
01FF0000
ENDCHAR
STARTCHAR U
ENCODING 85
SWIDTH 846 0
DWIDTH 30 0
BBX 28 31 1 -5
BITMAP
07FC1FF0
08043010
18047010
3844F110
7845F110
F845F110
F845F110
F845F110
F845F110
F845F110
F845F110
F845F110
F845F110
F845F110
F845F110
F845F110
F845F110
F845F110
F843E110
F8400110
FC200210
FC100410
FC0DD810
7E000020
7F000040
7FC00180
3FFFFE00
3FFFFC00
1FFFF800
07FFE000
00180000
ENDCHAR
STARTCHAR V
ENCODING 86
SWIDTH 830 0
DWIDTH 30 0
BBX 28 30 1 -4
BITMAP
07FC1FF0
08042010
18046010
7804E010
F843E110
F843E110
F843E110
F843E110
F843E110
F843E110
F843E110
F843E110
F843E110
F843E110
FC43C210
FC21C220
FC21C420
FE118440
7E100440
7F100840
7F080880
3F881080
3F87E100
1F800100
1FC00100
0FE00200
0FFFFC00
0FFFF000
07FFE000
07FFC000
ENDCHAR
STARTCHAR W
ENCODING 87
SWIDTH 931 0
DWIDTH 34 0
BBX 31 30 1 -4
BITMAP
07FC01FE
08040202
18040E02
38441E22
78443E22
F8443E22
F8443E22
F8443E22
F844FE22
F8450622
F8460622
F8460222
F8440222
F8446222
F8409022
F8410822
F8410822
F8420422
FC426422
FC446222
FC246222
FE287144
7E10F084
7E00F004
7F00F808
3F81F810
3FFFFFE0
3FF9FFC0
1FF0FF80
1FE0FF00
ENDCHAR
STARTCHAR X
ENCODING 88
SWIDTH 837 0
DWIDTH 30 0
BBX 28 30 1 -4
BITMAP
07FC1FF0
08042010
18046010
3845E110
7845E110
F843E110
F841C210
FC21C210
FE100420
FE080840
7F080880
7F841080
3FC3E100
3F841080
1F080880
0E100840
0E100420
0C21C210
1C43C110
3843E110
7847E110
7847E110
F847E110
F807E010
F807E010
FC07F010
FFFBFFE0
FFE3FF80
FFC3FF00
7F81FE00
ENDCHAR
STARTCHAR Y
ENCODING 89
SWIDTH 805 0
DWIDTH 29 0
BBX 27 30 1 -4
BITMAP
07F81FE0
18042020
3804E020
7805E020
F887E220
F887E220
F887E220
F887E220
F887E220
F883C220
F843C220
F8218420
FC200840
FE101040
FE081080
FF042100
7F81C200
3FC10200
3FC10400
1FE10800
0FF10800
07F10800
03F10800
03F00800
01F00800
01F01000
01FFE000
01FFC000
01FF8000
01FE0000
ENDCHAR
STARTCHAR Z
ENCODING 90
SWIDTH 760 0
DWIDTH 27 0
BBX 26 30 1 -4
BITMAP
07FFFF80
08000080
18000080
387FF080
78000880
F8000880
FC001080
FFFC1080
FFF82080
FFF04100
7FE08200
00610400
00C10800
01821000
03041000
06082000
04084000
0C108000
1821FF80
38400040
78800040
F8800040
F87FFC40
F8000040
F8000040
F8000080
FFFFFF00
FFFFFE00
FFFFFC00
FFFFF800
ENDCHAR
STARTCHAR bracketleft
ENCODING 91
SWIDTH 529 0
DWIDTH 19 0
BBX 17 37 1 -7
BITMAP
07FF00
080080
180080
380080
F87C80
F88080
F88080
F88080
F88700
F88600
F88400
F88400
F88400
F88400
F88400
F88400
F88400
F88400
F88400
F88400
F88400
F88400
F88400
F88400
F88400
F88700
F88080
F88080
F88080
F87C80
F80080
F80080
FC0080
FFFF00
FFFE00
FFFC00
FFF000
ENDCHAR
STARTCHAR backslash
ENCODING 92
SWIDTH 487 0
DWIDTH 18 0
BBX 18 37 0 -7
BITMAP
07F000
080800
180400
380400
784400
FC4400
FC4400
FC4400
FC4200
7C2200
7C2200
7C2200
7E2200
7E2200
7E2200
7E2100
3E1100
3E1100
3E1100
3F1100
3F1100
3F1100
3F1080
1F0880
1F0880
1F0880
1F8880
1F8880
1F8880
1F8840
0F8040
0F8040
0FC040
0FFF80
0FFE00
0FFC00
07F800
ENDCHAR
STARTCHAR bracketright
ENCODING 93
SWIDTH 529 0
DWIDTH 19 0
BBX 17 37 1 -7
BITMAP
07FF80
080080
180080
380080
78F880
F80880
F80880
F80880
FF8880
FF8880
FF8880
FF8880
0F8880
0F8880
0F8880
0F8880
0F8880
0F8880
0F8880
0F8880
0F8880
0F8880
0F8880
0F8880
0F8880
0F8880
080880
180880
380880
78F880
F80080
F80080
F80080
FFFF00
FFFE00
FFF800
FFF000
ENDCHAR
STARTCHAR asciicircum
ENCODING 94
SWIDTH 814 0
DWIDTH 29 0
BBX 27 24 1 2
BITMAP
001FF000
00200800
00400400
0187C400
03882200
07102200
0F101200
0F101100
0F111100
1E230900
1E238880
1E238880
1C238880
3C47C480
3C47C440
3C47C440
7887C240
780FE020
780FE020
7817E020
FFE7FFC0
FFC3FF80
FF83FE00
FF03FC00
ENDCHAR
STARTCHAR underscore
ENCODING 95
SWIDTH 834 0
DWIDTH 30 0
BBX 26 12 2 -8
BITMAP
07FFFF80
08000040
38000040
78FFFE40
F8000040
F8000040
F8000040
F8000040
FFFFFF80
FFFFFF00
FFFFFE00
FFFFF800
ENDCHAR
STARTCHAR grave
ENCODING 96
SWIDTH 600 0
DWIDTH 22 0
BBX 20 12 1 23
BITMAP
0FFC00
1803E0
380010
78F810
F80710
F80010
FF8010
FFFF90
FFFFE0
FFFFC0
7FFF00
007E00
ENDCHAR
STARTCHAR a
ENCODING 97
SWIDTH 830 0
DWIDTH 30 0
BBX 28 30 1 -4
BITMAP
003FFE00
00400100
01800100
0387E100
07081080
0F080880
0F100840
0E118440
1E21C440
1E23C420
1C23C220
3C43E220
3847E110
78400110
78400110
78400110
F87FFF10
F8400110
F8400110
F8400110
F847E110
F847E110
F847E110
F807E010
F807E010
FC0BF010
FFF3FFE0
FFE3FF80
FFC3FF00
FF01FE00
ENDCHAR
STARTCHAR b
ENCODING 98
SWIDTH 825 0
DWIDTH 30 0
BBX 27 30 2 -4
BITMAP
0FFFFC00
18000200
38000100
787FE080
F8801080
F8800880
F8878880
F8878880
F8878880
F8878880
F8800B00
F8801080
F87FF840
F8800420
F8800220
F887E220
F887E220
F887E220
F887E220
F8800220
F8800220
F8800420
F87FF820
F8000040
F8000080
F8000300
FFFFFE00
FFFFFC00
FFFFF800
FFFFE000
ENDCHAR
STARTCHAR c
ENCODING 99
SWIDTH 728 0
DWIDTH 26 0
BBX 25 30 1 -4
BITMAP
007FFF00
01800080
02000080
041FF880
0C200080
18400080
38400100
7843FE00
7847FC00
F847F800
F847F000
F8440000
F8440000
F8440000
F8440000
F8440000
F8440000
F8440000
F841FE00
F8400080
F8400080
FC200080
FC17F880
FE000080
7F000080
7FF00100
3FFFFE00
3FFFFC00
1FFFF800
03FFF000
ENDCHAR
STARTCHAR d
ENCODING 100
SWIDTH 846 0
DWIDTH 30 0
BBX 27 30 2 -4
BITMAP
0FFFFE00
18000180
38000040
787FF020
F8800C20
F8800220
F8800220
F887E220
F887E220
F887E220
F887E220
F88BE220
F88BE220
F88BE220
F88BE220
F88BE220
F88BE220
F88BE220
F887C220
F8800220
F8800220
F8800420
F87FF820
F8000040
F8000080
F8000F00
FFFFFC00
FFFFF800
FFFFF000
FFFFC000
ENDCHAR
STARTCHAR e
ENCODING 101
SWIDTH 754 0
DWIDTH 27 0
BBX 24 30 2 -4
BITMAP
0FFFFF
180001
380001
787FF9
F88001
F88001
F887FF
F887FC
F887F8
F88004
F88004
F88004
F87FC4
F88004
F88004
F88008
F887F0
F887E0
F887FE
F88001
F88001
F88001
F87FF9
F80001
F80001
F80001
FFFFFE
FFFFFC
FFFFF0
FFFFE0
ENDCHAR
STARTCHAR f
ENCODING 102
SWIDTH 718 0
DWIDTH 26 0
BBX 24 30 2 -4
BITMAP
0FFFFE
180001
380001
787FF1
F88001
F88001
F887FE
F887FC
F887F8
F887F0
F88008
F88008
F88008
F87F88
F88008
F88008
F88008
F887F0
F887C0
F88780
F88700
F88800
F80800
F80800
F80800
F80800
FFF000
FFC000
FF8000
FF0000
ENDCHAR
STARTCHAR g
ENCODING 103
SWIDTH 808 0
DWIDTH 29 0
BBX 27 30 1 -4
BITMAP
007FFF00
01800080
02000080
041FF880
0C200080
18400080
38400080
7843FF00
7847FC00
F847F800
F847F000
F8441FC0
F8442020
F8446020
F845E020
F847E220
F847E220
F847E220
F843E220
F8400220
F8400220
FC300220
FC0FFE20
FE000020
7F000020
7FF00020
3FFFFFC0
3FFFFF00
1FFFFE00
03FFFC00
ENDCHAR
STARTCHAR h
ENCODING 104
SWIDTH 859 0
DWIDTH 31 0
BBX 27 30 2 -4
BITMAP
0FF81FE0
18086020
3808E020
7889E220
F88BE220
F88BE220
F88BE220
F88BE220
F887E220
F8800220
F8800220
F8800220
F87FFE20
F8800220
F8800220
F8800220
F8800220
F887E220
F887E220
F887E220
F887E220
F88BE220
F88BE220
F80BE020
F80BE020
F80BE020
FFF3FFC0
FFE3FF80
FF83FF00
FF03FC00
ENDCHAR
STARTCHAR i
ENCODING 105
SWIDTH 705 0
DWIDTH 25 0
BBX 23 30 1 -4
BITMAP
07FFFE
080002
380002
78FFF2
F80202
F80202
FFC23E
FFC23C
FFC238
FFC220
FFC220
07C220
07C220
07C220
07C220
07C220
07C220
07C220
07C23C
080202
180202
380202
78FFF2
F80002
F80002
FC0002
FFFFFC
FFFFF8
FFFFF0
FFFFC0
ENDCHAR
STARTCHAR j
ENCODING 106
SWIDTH 788 0
DWIDTH 28 0
BBX 26 31 1 -5
BITMAP
00007FC0
00008040
00018040
00078440
000F8440
000F8440
000F8440
000F8440
000F8440
000F8440
000F8440
07FF8440
080F8440
180F8440
780F8440
F88F8440
F88F8440
F88F8440
F8878440
F8800440
F8400840
F8201040
F81BA040
FC000080
FE000100
FF800600
7FFFF800
7FFFF000
1FFFE000
0FFF8000
00600000
ENDCHAR
STARTCHAR k
ENCODING 107
SWIDTH 846 0
DWIDTH 30 0
BBX 27 30 2 -4
BITMAP
0FF83FE0
18084020
38098040
788B8840
F8870880
F8871080
F8871100
F8861100
F8862200
F8802180
F8804040
F8804020
F87FF820
F8800420
F8800220
F8800220
F887C220
F887E220
F887E220
F887E220
F887E220
F88BE220
F88BE220
F80BE020
F80BE020
F80BE020
FFF3FFC0
FFE3FF80
FF83FE00
FF03FC00
ENDCHAR
STARTCHAR l
ENCODING 108
SWIDTH 795 0
DWIDTH 29 0
BBX 26 30 2 -4
BITMAP
0FF80000
18080000
38080000
78880000
F8880000
F8880000
F8880000
F8880000
F8880000
F8880000
F8880000
F8883F80
F8884040
F888C040
F889C040
F887C440
F887C440
F887C440
F887C440
F8800440
F8800440
F8800440
F87FFC40
F8000040
F8000040
F8000040
FFFFFF80
FFFFFE00
FFFFFC00
FFFFF800
ENDCHAR
STARTCHAR m
ENCODING 109
SWIDTH 949 0
DWIDTH 34 0
BBX 31 30 2 -4
BITMAP
0FF807FC
18040802
38021802
786230C2
F8917142
F888E242
F888C442
F8840442
F8820842
F8821042
F8812042
F8884242
F8880442
F8840442
F8840C42
F8860C42
F887FC42
F887FC42
F887FC42
F8877C42
F8867C42
F8887C42
F8087C02
F8087C02
F8087C02
F8087E04
FFF07FF8
FFC07FF0
FF807FE0
FF007FC0
ENDCHAR
STARTCHAR n
ENCODING 110
SWIDTH 853 0
DWIDTH 31 0
BBX 27 30 2 -4
BITMAP
0FF01FE0
18086020
3804E020
78C3E220
F8A1E220
F890E220
F8906220
F8882220
F8842220
F8820220
F8810220
F8808220
F8804220
F8882220
F8841220
F8861220
F8870A20
F8878620
F8878220
F887C220
F887E220
F887E220
F887E220
F807E020
F80BE020
F80BE020
FFF3FFC0
FFC3FF80
FF83FE00
FF03FC00
ENDCHAR
STARTCHAR o
ENCODING 111
SWIDTH 837 0
DWIDTH 30 0
BBX 28 32 1 -5
BITMAP
000FF800
00700700
018000C0
020FD020
04100C10
0C200210
38400110
7843E110
7847E110
F847E110
F847E110
F847E110
F847E110
F847E110
F847E110
F847E110
F847E110
F847E110
F847E110
F843E110
F8400110
F8200210
FC100C10
FC0DD010
FE000020
7F000040
7FC00180
7FFFFE00
3FFFFC00
1FFFF800
07FFE000
00180000
ENDCHAR
STARTCHAR p
ENCODING 112
SWIDTH 782 0
DWIDTH 28 0
BBX 26 30 2 -4
BITMAP
0FFFFC00
18000300
38000080
787FC080
F8801840
F8800440
F8800440
F887C440
F887C440
F887C440
F887C440
F8878440
F8800440
F8800440
F8800840
F87FF080
F8800080
F8800100
F8801E00
F887F800
F887F000
F887E000
F8878000
F8080000
F8080000
F8080000
FFF00000
FFE00000
FF800000
FF000000
ENDCHAR
STARTCHAR q
ENCODING 113
SWIDTH 837 0
DWIDTH 30 0
BBX 28 35 1 -8
BITMAP
000FF800
00700700
018000C0
02000020
040FD020
0C100C10
18200210
38400110
7843E110
7847E110
F847E110
F847E110
F847E110
F847E110
F847E110
F847E110
F847E110
F847E110
F847E110
F847E110
F843E110
F8400110
FC200210
FC100410
FC0BD820
FE008040
7F808080
7FF00F00
3FF00E00
1FF00800
0FF80800
01FFF000
01FFC000
01FF8000
00FF0000
ENDCHAR
STARTCHAR r
ENCODING 114
SWIDTH 843 0
DWIDTH 30 0
BBX 28 30 2 -4
BITMAP
0FFFFC00
18000300
38000080
787FE080
F8801040
F8800840
F8878840
F8878840
F8878840
F8878880
F8870880
F8800980
F8801040
F87FF420
F8800210
F8800210
F8800110
F887E110
F887E110
F887E110
F887E110
F88BE110
F80BE010
F80BE010
F80BE010
F80BF030
FFF3FFC0
FFC3FF80
FF83FF00
FF03FE00
ENDCHAR
STARTCHAR s
ENCODING 115
SWIDTH 750 0
DWIDTH 27 0
BBX 25 30 1 -4
BITMAP
00FFFF00
01000100
02000100
0C1FF900
18600100
38400100
78400100
7847FE00
F847FC00
F8403C00
F8400200
F8600100
F81F0080
FC00F080
FE000880
FF000880
FFFC0880
7FFF8880
3FFF8880
18000880
18000880
38001080
78FFC080
F8000100
F8000200
FC001C00
FFFFF800
FFFFF000
FFFFC000
FFFF0000
ENDCHAR
STARTCHAR t
ENCODING 116
SWIDTH 756 0
DWIDTH 27 0
BBX 27 30 0 -4
BITMAP
07FFFFE0
08000020
18000020
78FFFF20
F8010020
F8010020
FC010020
FFF10FC0
FFF10F80
FFF10E00
FFF10C00
01F10800
01F10800
01F10800
01F10800
01F10800
01F10800
01F10800
01F10800
01F10800
01F10800
01F10800
01F00800
01F00800
01F00800
01F01000
01FFE000
01FFC000
01FF8000
01FF0000
ENDCHAR
STARTCHAR u
ENCODING 117
SWIDTH 846 0
DWIDTH 30 0
BBX 28 31 1 -5
BITMAP
07FC1FF0
08043010
18047010
3844F110
7845F110
F845F110
F845F110
F845F110
F845F110
F845F110
F845F110
F845F110
F845F110
F845F110
F845F110
F845F110
F845F110
F845F110
F843E110
F8400110
FC200210
FC100410
FC0DD810
7E000020
7F000040
7FC00180
3FFFFE00
3FFFFC00
1FFFF800
07FFE000
00180000
ENDCHAR
STARTCHAR v
ENCODING 118
SWIDTH 830 0
DWIDTH 30 0
BBX 28 30 1 -4
BITMAP
07FC1FF0
08042010
18046010
7804E010
F843E110
F843E110
F843E110
F843E110
F843E110
F843E110
F843E110
F843E110
F843E110
F843E110
FC43C210
FC21C220
FC21C420
FE118440
7E100440
7F100840
7F080880
3F881080
3F87E100
1F800100
1FC00100
0FE00200
0FFFFC00
0FFFF000
07FFE000
07FFC000
ENDCHAR
STARTCHAR w
ENCODING 119
SWIDTH 931 0
DWIDTH 34 0
BBX 31 30 1 -4
BITMAP
07FC01FE
08040202
18040E02
38441E22
78443E22
F8443E22
F8443E22
F8443E22
F844FE22
F8450622
F8460622
F8460222
F8440222
F8446222
F8409022
F8410822
F8410822
F8420422
FC426422
FC446222
FC246222
FE287144
7E10F084
7E00F004
7F00F808
3F81F810
3FFFFFE0
3FF9FFC0
1FF0FF80
1FE0FF00
ENDCHAR
STARTCHAR x
ENCODING 120
SWIDTH 837 0
DWIDTH 30 0
BBX 28 30 1 -4
BITMAP
07FC1FF0
08042010
18046010
3845E110
7845E110
F843E110
F841C210
FC21C210
FE100420
FE080840
7F080880
7F841080
3FC3E100
3F841080
1F080880
0E100840
0E100420
0C21C210
1C43C110
3843E110
7847E110
7847E110
F847E110
F807E010
F807E010
FC07F010
FFFBFFE0
FFE3FF80
FFC3FF00
7F81FE00
ENDCHAR
STARTCHAR y
ENCODING 121
SWIDTH 805 0
DWIDTH 29 0
BBX 27 30 1 -4
BITMAP
07F81FE0
18042020
3804E020
7805E020
F887E220
F887E220
F887E220
F887E220
F887E220
F883C220
F843C220
F8218420
FC200840
FE101040
FE081080
FF042100
7F81C200
3FC10200
3FC10400
1FE10800
0FF10800
07F10800
03F10800
03F00800
01F00800
01F01000
01FFE000
01FFC000
01FF8000
01FE0000
ENDCHAR
STARTCHAR z
ENCODING 122
SWIDTH 760 0
DWIDTH 27 0
BBX 26 30 1 -4
BITMAP
07FFFF80
08000080
18000080
387FF080
78000880
F8000880
FC001080
FFFC1080
FFF82080
FFF04100
7FE08200
00610400
00C10800
01821000
03041000
06082000
04084000
0C108000
1821FF80
38400040
78800040
F8800040
F87FFC40
F8000040
F8000040
F8000080
FFFFFF00
FFFFFE00
FFFFFC00
FFFFF800
ENDCHAR
STARTCHAR braceleft
ENCODING 123
SWIDTH 555 0
DWIDTH 20 0
BBX 19 37 0 -7
BITMAP
000FC0
003020
004020
008020
030720
070820
0E1020
1E1020
1E10C0
3E1180
3E1100
3E1100
3E1100
3C1100
386100
384100
388E00
788600
F84100
F82100
FE1100
FE1100
FE1100
FE1100
3E1100
3E10C0
3E1020
3E1020
3F0820
3F0720
3F8020
3FC020
1FF820
1FFFC0
0FFF80
07FE00
01FC00
ENDCHAR
STARTCHAR bar
ENCODING 124
SWIDTH 447 0
DWIDTH 16 0
BBX 14 37 1 -7
BITMAP
03F8
0404
1804
3804
7844
F844
F844
F844
F844
F844
F844
F844
F844
F844
F844
F844
F844
F844
F844
F844
F844
F844
F844
F844
F844
F844
F844
F844
F844
F844
F804
F804
FC04
FFF8
FFE0
FFC0
7F80
ENDCHAR
STARTCHAR braceright
ENCODING 125
SWIDTH 555 0
DWIDTH 20 0
BBX 19 37 1 -7
BITMAP
07F000
080C00
180200
380100
78E100
F81080
F80880
F80880
FF0880
FF0880
FF0880
FF0880
1F0880
1F0840
1F0420
1F8220
1FE220
1FF220
1F8220
1F0420
070840
0F0880
0F0880
1F0880
1F0880
1F0880
180880
180880
381080
78A100
F80100
F80600
F83800
FFF000
FFE000
FF8000
FE0000
ENDCHAR
STARTCHAR asciitilde
ENCODING 126
SWIDTH 834 0
DWIDTH 30 0
BBX 26 13 2 5
BITMAP
01FC0080
0603FF40
08000040
18000040
38F60040
7801FE40
F8000040
F8000040
F9FF8180
FFFFFF00
FFFFFC00
FFFFF800
E03FE000
ENDCHAR
STARTCHAR uni00A0
ENCODING 160
SWIDTH 325 0
DWIDTH 12 0
BBX 1 1 0 0
BITMAP
00
ENDCHAR
STARTCHAR exclamdown
ENCODING 161
SWIDTH 523 0
DWIDTH 19 0
BBX 15 30 2 -4
BITMAP
07FE
0802
1842
7842
F802
F802
F802
FFFC
FFF8
FC04
FC02
1C02
3C42
7C42
7C42
7842
7842
7842
F842
F842
F842
F842
F802
F802
F802
FC02
FFFC
FFF0
FFE0
FFC0
ENDCHAR
STARTCHAR cent
ENCODING 162
SWIDTH 728 0
DWIDTH 26 0
BBX 25 35 1 -6
BITMAP
000FF000
00100800
00300800
00700800
00F08700
01008080
02008080
041FF880
0C200080
38400080
38400080
7843FF00
7847FC00
F847F800
F847F000
F8440000
F8440000
F8440000
F8440000
F8440000
F843FE00
F8400080
FC200080
FC17F880
FE008080
7E008080
7F808080
7FF00F00
3FF00E00
1FF00C00
0FF81000
01FFE000
01FFC000
01FF8000
00FE0000
ENDCHAR
STARTCHAR sterling
ENCODING 163
SWIDTH 795 0
DWIDTH 29 0
BBX 28 30 0 -4
BITMAP
003FFF00
00400100
01800100
0307F100
06180100
0E200100
1E200100
3E21FE00
3E21FC00
3E21F000
38202000
38204000
78FE4000
F8204FE0
F8205010
F8203010
FE21F010
FE21F110
FE21F110
FE200110
3E200110
3E200110
3E1FFF10
3E000010
3E000010
3E000010
3FFFFFE0
3FFFFF80
3FFFFF00
3FFFFE00
ENDCHAR
STARTCHAR currency
ENCODING 164
SWIDTH 921 0
DWIDTH 33 0
BBX 32 32 1 -5
BITMAP
00C00030
01200048
02100084
040FFF02
08000001
18400021
3C21F842
7E160684
FF080108
FF880110
7F90F090
3F91F890
1F91F890
0F91F890
0F91F890
0F91F890
0F91F890
0F91F890
0F880110
0F080108
0E140284
0C236C42
08400021
18000001
3C0FFF02
7E1FFF84
FF3FFFC8
FFFFFFF0
7F3F9FE0
3E000F80
1C000700
08000200
ENDCHAR
STARTCHAR yen
ENCODING 165
SWIDTH 803 0
DWIDTH 29 0
BBX 27 30 1 -4
BITMAP
07F81FE0
18042020
3804E020
7885E220
F887E220
F887E220
F887E220
F887E220
F843C220
FC43C420
FC218440
FE100880
FF081100
7F842100
3FC3C300
3E010040
1E010040
1E3FFC40
3E010040
3E010040
3E010080
3FF10F00
3FF00E00
3FF00C00
3FF00800
01F01000
01FFE000
01FFC000
01FF0000
01FE0000
ENDCHAR
STARTCHAR brokenbar
ENCODING 166
SWIDTH 447 0
DWIDTH 16 0
BBX 14 37 1 -7
BITMAP
03F8
0404
1804
3804
7844
F844
F844
F844
F844
F844
F844
F844
F804
F804
F804
FC0C
FFF0
FFE0
FFF8
7C04
1804
3804
7844
F844
F844
F844
F844
F844
F844
F844
F804
F804
FC04
FFF8
FFF0
FFC0
7F80
ENDCHAR
STARTCHAR section
ENCODING 167
SWIDTH 750 0
DWIDTH 27 0
BBX 25 30 1 -4
BITMAP
007FFF00
01800100
0217F900
04200100
0C400100
3843FF00
7887FC00
78800C00
F8800200
F87FE100
F8801880
F8800880
F8878480
F8478480
FC400480
FC200480
FE17FC80
FF800480
7FFF8480
7FFF8480
3C000480
08000880
387FF080
78000100
F8000200
FC001C00
FFFFF000
FFFFE000
FFFFC000
7FFF0000
ENDCHAR
STARTCHAR dieresis
ENCODING 168
SWIDTH 600 0
DWIDTH 22 0
BBX 22 12 0 23
BITMAP
07E3F8
080C04
180C04
388C44
F88C44
F80C04
F80C04
F81E0C
FFFFF0
FFFFE0
FFFFC0
FF7F80
ENDCHAR
STARTCHAR copyright
ENCODING 169
SWIDTH 967 0
DWIDTH 35 0
BBX 33 38 1 -8
BITMAP
0007FF8000
0038007000
00C7FF8C00
0138007200
0240000900
0487FF8500
0D3FFFE500
3D3FFFF280
397E007280
7948007A80
7950FE7A80
F971007A80
F972007A80
F9723FFA80
F9723EFA80
F9723CFA80
F97238FA80
F97240FA80
F97240FA80
F97240FA80
F97240FA80
F9723FFA80
F971007A80
F970FE7A80
F978007A80
F97C007A80
F97FFFF280
FD3FFFF480
FC9FFEE500
FC47FF1900
7E3800E200
7F07FF0400
7FC0001800
3FFE01E000
1FFFFFC000
0FFFFF8000
03FFFE0000
00FFF00000
ENDCHAR
STARTCHAR ordfeminine
ENCODING 170
SWIDTH 620 0
DWIDTH 22 0
BBX 22 30 0 -4
BITMAP
00FFC0
010020
031F10
072090
0E2090
1E4488
1E4C48
1C4E44
3C8E24
3C8024
788024
78FFE4
788024
788024
F89F24
F89F24
F81F04
F81F04
FFFFFC
FFDFF0
FFFFF8
F80004
780004
38FFE4
780004
FC0004
FFFFF8
FFFFE0
FFFFC0
7FFF80
ENDCHAR
STARTCHAR guillemotleft
ENCODING 171
SWIDTH 912 0
DWIDTH 33 0
BBX 31 23 1 -1
BITMAP
0003801C
003C40E2
00C04702
03005802
04046032
083861C2
18C04202
3880C404
7887C438
F88FC470
F883C418
F8804404
F8404202
F83C61E2
FC006002
FE007802
FFC07F02
FFFC7FE2
7FFFFFFC
3FFFFFF8
0FFE3FE0
00F807C0
00100000
ENDCHAR
STARTCHAR logicalnot
ENCODING 172
SWIDTH 834 0
DWIDTH 30 0
BBX 26 21 2 -2
BITMAP
07FFFF80
08000040
18000040
38000040
F8FFFE40
F8000240
F8000240
F8000240
FFFFE240
FFFFE240
FFFFE240
FFFFE240
0003E240
0003E240
0003E040
0003E040
0003F040
0003FF80
0003FF00
0003FE00
0003F800
ENDCHAR
STARTCHAR uni00AD
ENCODING 173
SWIDTH 520 0
DWIDTH 19 0
BBX 17 12 1 5
BITMAP
07FF80
080080
380080
78FC80
F80080
F80080
F80080
F80080
FFFF00
FFFE00
FFF800
FFF000
ENDCHAR
STARTCHAR registered
ENCODING 174
SWIDTH 660 0
DWIDTH 24 0
BBX 22 25 1 2
BITMAP
000500
01FEE0
030078
067F98
0AFFE8
3B80EC
7BBE6C
7BA16C
FBAD6C
FBAD6C
FBA1EC
FBBE2C
FBA0AC
FBAEAC
FBAEAC
FB8E2C
FAFFEC
FEFFD4
FD8668
FE5E90
FFFBE0
7FFF80
3FFF00
1FFE00
07F800
ENDCHAR
STARTCHAR macron
ENCODING 175
SWIDTH 600 0
DWIDTH 22 0
BBX 20 11 1 23
BITMAP
07FFE0
080010
180010
78FF10
F80010
F80010
F80010
FFFFE0
FFFF80
FFFF00
FFFE00
ENDCHAR
STARTCHAR degree
ENCODING 176
SWIDTH 583 0
DWIDTH 21 0
BBX 19 20 1 6
BITMAP
01FF80
060040
087E20
198120
3900A0
7938A0
F93CA0
F93CA0
F93CA0
F93CA0
F900A0
F98120
F87E20
FC0020
FE0040
FFFF80
FFFF00
7FFC00
3FF800
0FE000
ENDCHAR
STARTCHAR plusminus
ENCODING 177
SWIDTH 834 0
DWIDTH 30 0
BBX 26 30 2 -4
BITMAP
000FE000
00301000
00701000
01F11000
01F11000
01F11000
07F11F80
08010040
18010040
38010040
F8FFFE40
F8010040
F8010040
F8010040
FFF11F80
FFF11F00
FFF11E00
FFF11800
07F01F80
08000040
18000040
38000040
F8FFFE40
F8000040
F8000040
F8000040
FFFFFF80
FFFFFF00
FFFFFE00
FFFFF800
ENDCHAR
STARTCHAR twosuperior
ENCODING 178
SWIDTH 585 0
DWIDTH 21 0
BBX 19 23 1 3
BITMAP
07FF80
0C0040
1CFE20
3C0120
7C0120
7FF920
7FF920
7FC120
7E0620
7C3820
08C040
190080
390300
791E00
F93FC0
F90020
F9FF20
F80020
F80020
FFFFE0
FFFF80
FFFF00
FFFE00
ENDCHAR
STARTCHAR threesuperior
ENCODING 179
SWIDTH 584 0
DWIDTH 21 0
BBX 19 23 1 3
BITMAP
07FF00
180080
39FC40
780240
F80240
FFF240
FFF240
FE0280
FE0240
0E7E20
1E0120
3E00A0
3FF8A0
3FF8A0
3800A0
380120
39FC20
780020
F80040
FFFF80
FFFE00
FFFC00
FFF800
ENDCHAR
STARTCHAR acute
ENCODING 180
SWIDTH 600 0
DWIDTH 22 0
BBX 20 12 1 23
BITMAP
003FF0
07C010
080010
180F10
78F010
F80010
F800E0
F9FFC0
FFFF80
FFFF00
FFF800
F80000
ENDCHAR
STARTCHAR mu
ENCODING 181
SWIDTH 813 0
DWIDTH 29 0
BBX 27 29 1 -7
BITMAP
03F81FC0
0C042020
18046020
3804E020
7843E220
F843E220
F843E220
F843E220
F843E220
F843E220
F843E220
F843E220
F843E220
F843E220
F843C220
F8400220
F8600420
F8500820
F84FD020
F8400040
F8400080
F8000700
F803FE00
F803F800
FC07F000
FFFFC000
FFF80000
FFC00000
7F800000
ENDCHAR
STARTCHAR paragraph
ENCODING 182
SWIDTH 782 0
DWIDTH 28 0
BBX 27 30 0 -4
BITMAP
007FFFC0
01800020
02000020
041FFE20
0C200220
1C400220
38800220
78800220
78800220
F8800220
F8800220
F8800220
F8400220
FC600220
FC17FE20
FE020220
FF020220
7FC20220
7FE22220
7FE22220
3FE22220
0FE22220
03E02020
03E02020
03E02020
03F07040
03FFFF80
03FFFF00
03FFFE00
03F9FC00
ENDCHAR
STARTCHAR periodcentered
ENCODING 183
SWIDTH 464 0
DWIDTH 17 0
BBX 15 15 1 4
BITMAP
07FC
0802
1802
3802
F842
F842
F842
F802
F802
F802
F802
FFFC
FFF0
FFE0
FFC0
ENDCHAR
STARTCHAR cedilla
ENCODING 184
SWIDTH 600 0
DWIDTH 22 0
BBX 15 15 3 -9
BITMAP
00F0
010C
0702
0E22
1E22
1E22
1C44
3C44
3804
7808
7C10
7FE0
FFC0
FF80
FF00
ENDCHAR
STARTCHAR onesuperior
ENCODING 185
SWIDTH 557 0
DWIDTH 20 0
BBX 19 23 1 3
BITMAP
07FE00
080200
18F200
781200
F81200
FF9200
FF9200
FF9200
FF9200
0F9200
0F9200
0F9200
0F9200
0F91C0
081020
181020
39FF20
F80020
F80020
FFFFC0
FFFF00
FFFE00
FFFC00
ENDCHAR
STARTCHAR ordmasculine
ENCODING 186
SWIDTH 625 0
DWIDTH 23 0
BBX 21 31 1 -4
BITMAP
007F00
0380E0
047D10
088088
190048
390048
791C48
F91E48
F91E48
F91E48
F91E48
F91E48
F91E48
F91E48
F91C48
F90048
F88088
F87D08
FC0010
FF8060
FFFF80
FFFFF0
780008
180008
39FFC8
F80008
F80008
FFFFF0
FFFFC0
FFFF80
FFFF00
ENDCHAR
STARTCHAR guillemotright
ENCODING 187
SWIDTH 912 0
DWIDTH 33 0
BBX 31 23 1 -1
BITMAP
07003800
08F04780
180EC070
3801C008
7880C604
F87041C2
F80C4022
FC046012
FF847C12
FFE47F12
FF847C12
7C046012
180C4022
187043C2
3880C404
7801C008
F80FC070
F87FC3E0
FFF7FF80
FFE7FF00
FF87FC00
F807E000
40020000
ENDCHAR
STARTCHAR onequarter
ENCODING 188
SWIDTH 1303 0
DWIDTH 47 0
BBX 45 30 1 -4
BITMAP
07FE01FC0000
080206040000
38F20E040000
78121C440000
F8123C440000
FF923C480000
FF927C4BE1F0
FF927C8C1208
7F92788C1608
0F92788C8E48
0F92788C8E48
0F92788C8E48
0F92F89C8E48
0F91F91C8E48
0810311C8E48
1810311C8E48
39FF311C8048
F800313C4048
F800323C3FC8
FFFFE23C0048
FFFFE23E0048
FFFFE23F8048
FFFDE23FFE48
0003E07FFE08
0003C07FFE08
0003E08FFE08
0003FF003FF0
0003FE003FE0
0007FC003F80
0003F0003F00
ENDCHAR
STARTCHAR onehalf
ENCODING 189
SWIDTH 1260 0
DWIDTH 45 0
BBX 43 30 1 -4
BITMAP
07FE01FC0000
080206040000
18F20E040000
78121C440000
F8123C440000
FF923C480000
FF927C4BFF80
FF927C8C0040
7F92788C0020
0F92788CFC20
0F92788C0120
0F92788C00A0
0F92F89FF8A0
0F91F91FF8A0
0810311FC120
1810311E0220
39FF311C1C20
F8003128E0C0
F80032390300
FFFFE2391E00
FFFFE2391FE0
FFFFE2390020
FFFDE2390020
0003E078FFA0
0003C0780020
0003E0780020
0003FFFFFFC0
0003FEFFFF80
0007FCFFFF00
0003F0FFFE00
ENDCHAR
STARTCHAR threequarters
ENCODING 190
SWIDTH 1313 0
DWIDTH 47 0
BBX 45 30 1 -4
BITMAP
0FFF01FC0000
180082020000
39FC46040000
78025E240000
F8027E440000
FFF27C440000
FE027C47F1F8
FE02FC440A08
0E7E3C440E08
1E011C8C4E28
3E00988C4E28
3FF8988C4E28
3FF8988C4E28
3800988C4E28
3801189C4E28
39FC191C4628
7800111C4028
F800311C4028
F801F11C3FC8
FFFFF13C0028
FFFFF23E0028
FFFDE23F8028
FFF1E23FFE28
0001E03FFE08
0003E03FFE08
0003E047FE08
0003FF803FF0
0003FE003FE0
0003FC003FC0
0003F8003F80
ENDCHAR
STARTCHAR questiondown
ENCODING 191
SWIDTH 756 0
DWIDTH 27 0
BBX 26 30 1 -4
BITMAP
0007FC00
00080200
00384200
00784200
00F80200
00F80200
00F80200
00FFFC00
00FFC400
00E00400
03000400
04000200
080FE200
18700200
38400200
78400400
F843F800
F847F000
F847FF00
F8400040
F8400040
F8400040
F83FFC40
FC000040
FE000040
FFE00080
FFFFFF00
7FFFFE00
3FFFFC00
0FFFF000
ENDCHAR
STARTCHAR Agrave
ENCODING 192
SWIDTH 830 0
DWIDTH 30 0
BBX 28 40 1 -4
BITMAP
00400000
00BFE000
01801F00
03800100
0F8FF100
0F800900
0F800100
0FE00100
0FFFF100
0FFFFE00
0FC00100
03800100
01800100
0387E080
07081080
0F080880
0E100840
0E118440
1E21C420
1C23C420
1C23C220
3C43E210
3847E110
78400110
78400110
78400110
F87FFF10
F8400110
F8400110
F8400110
F847E110
F847E110
F847E110
F807E010
F807E010
FC0BF010
FFF3FFE0
FFE3FF80
FFC3FF00
FF01FE00
ENDCHAR
STARTCHAR Aacute
ENCODING 193
SWIDTH 830 0
DWIDTH 30 0
BBX 28 39 1 -4
BITMAP
00007F00
003F8100
00C00100
01801900
038FE100
07800100
0F800700
0F87FE00
0FFFF800
0FE00600
0FC00100
0F800100
0387E100
07081080
0F080880
0F100840
0E118440
1E21C440
1E23C420
1C23C220
3C43E220
3847E110
78400110
78400110
78400110
F87FFF10
F8400110
F8400110
F8400110
F847E110
F847E110
F847E110
F807E010
F807E010
FC0BF010
FFF3FFE0
FFE3FF80
FFC3FF00
FF01FE00
ENDCHAR
STARTCHAR Acircumflex
ENCODING 194
SWIDTH 830 0
DWIDTH 30 0
BBX 28 40 1 -4
BITMAP
0003C000
000C3800
00700600
0083C100
018C3900
03800100
07800100
0F83E100
0FBFFD00
0FFFFE00
0FC00200
0F800100
0F800100
0387E080
07081080
0F080880
0F100840
0E118440
1E21C440
1C23C420
1C23C220
3C43E210
3847E110
78400110
78400110
78400110
F87FFF10
F8400110
F8400110
F8400110
F847E110
F847E110
F847E110
F807E010
F807E010
FC0BF010
FFF3FFE0
FFE3FF80
FFC3FF00
FF01FE00
ENDCHAR
STARTCHAR Atilde
ENCODING 195
SWIDTH 830 0
DWIDTH 30 0
BBX 28 39 1 -4
BITMAP
003F8200
00407D00
00800100
01800100
078FC100
0F803900
0F800100
0F800100
0FFFFE00
0FFFFC00
0FC00200
0F800100
0387E100
07881080
0F080880
0F100880
0E118440
1E21C440
1E23C420
1C23C220
3C43E220
3C47E110
78400110
78400110
78400110
F87FFF10
F8400110
F8400110
F8400110
F847E110
F847E110
F847E110
F807E010
F807E010
FC0BF010
FFF3FFE0
FFE3FF80
FFC3FF00
FF01FE00
ENDCHAR
STARTCHAR Adieresis
ENCODING 196
SWIDTH 830 0
DWIDTH 30 0
BBX 28 39 1 -4
BITMAP
00FE7F00
01018080
03018080
07118880
1F118880
1F018080
1F018080
1FFFFF00
1FE00200
1FC00100
1F800100
1F800100
0387E080
07081080
0F080880
0E100840
0E118440
1E21C420
1C23C420
1C23C220
3C43E210
3847E110
78400110
78400110
78400110
F87FFF10
F8400110
F8400110
F8400110
F847E110
F847E110
F847E110
F807E010
F807E010
FC0BF010
FFF3FFE0
FFE3FF80
FFC3FF00
FF01FE00
ENDCHAR
STARTCHAR Aring
ENCODING 197
SWIDTH 830 0
DWIDTH 30 0
BBX 28 40 1 -4
BITMAP
000DD800
00300600
00400100
0087D100
01880880
0711C480
0F13C480
0F13C480
0F93C480
1F900480
1FC80900
1F87D100
1F800100
0F87E080
0F081080
0F080880
0E100840
0E118440
1E21C420
1C23C420
3C23C220
3C43E210
3847E110
78400110
78400110
78400110
F87FFF10
F8400110
F8400110
F8400110
F847E110
F847E110
F847E110
F807E010
F807E010
FC0BF010
FFF3FFE0
FFE3FF80
FFC3FF00
FF01FE00
ENDCHAR
STARTCHAR AE
ENCODING 198
SWIDTH 1105 0
DWIDTH 40 0
BBX 38 30 1 -4
BITMAP
003FFFFFFC
00C0000004
0180000004
0387FFFFC4
0708010004
0F10010004
0F10010004
0E11E11FF8
1E21E11FE0
1C23E11FE0
3C23E10020
3C43E10020
3847E1FE20
7840010020
7840010020
7840010020
F87FFE1FC0
F840011F00
F840011FF8
F840010004
F847E10004
F847E10004
F847E1FFC4
F807E00004
F807E00004
FC0BF00004
FFF3FFFFF8
FFE3FFFFE0
FFC3FFFFC0
FF03FFFF80
ENDCHAR
STARTCHAR Ccedilla
ENCODING 199
SWIDTH 728 0
DWIDTH 26 0
BBX 25 35 1 -9
BITMAP
007FFF00
01800080
02000080
041FF880
0C200080
18400080
38400080
78400100
7843FE00
F847FC00
F847F800
F847F000
F8440000
F8440000
F8440000
F8440000
F8440000
F8440000
F8440000
F841FE00
F8400080
F8400080
FC200080
FC1FF880
FE004080
7F008080
7FE88100
3FF08E00
1FF01C00
0FF01000
01E02000
01FFC000
01FF8000
01FF0000
03FC0000
ENDCHAR
STARTCHAR Egrave
ENCODING 200
SWIDTH 754 0
DWIDTH 27 0
BBX 24 39 2 -4
BITMAP
03F800
0407F8
0C0004
1C2004
3C1FC4
7C0004
7F8004
7FFF84
7FFFF8
780007
380001
380001
787FF9
F88001
F88001
F887FF
F887FC
F887F8
F88004
F88004
F88004
F87FC4
F88004
F88004
F88008
F887F0
F887E0
F887FE
F88001
F88001
F88001
F87FF9
F80001
F80001
F80001
FFFFFE
FFFFFC
FFFFF0
FFFFE0
ENDCHAR
STARTCHAR Eacute
ENCODING 201
SWIDTH 754 0
DWIDTH 27 0
BBX 24 39 2 -4
BITMAP
0000FE
00FF02
010002
020022
061FC2
0E0002
1E000C
3F0FF8
3FFFF0
38000F
380001
380001
787FF9
F88001
F88001
F887FF
F887FC
F887F8
F88004
F88004
F88004
F87FC4
F88004
F88004
F88008
F887F0
F887E0
F887FE
F88001
F88001
F88001
F87FF9
F80001
F80001
F80001
FFFFFE
FFFFFC
FFFFF0
FFFFE0
ENDCHAR
STARTCHAR Ecircumflex
ENCODING 202
SWIDTH 754 0
DWIDTH 27 0
BBX 24 40 2 -4
BITMAP
000F00
0030E0
01C018
020F04
0630E4
0E0004
1E0004
3E0F04
3E7FF4
3FFFFC
380003
380001
380001
F87FF9
F88001
F88001
F887FF
F887FC
F887F8
F88004
F88004
F88004
F87FC4
F88004
F88004
F88008
F887F0
F887E0
F887FE
F88001
F88001
F88001
F87FF9
F80001
F80001
F80001
FFFFFE
FFFFFC
FFFFF0
FFFFE0
ENDCHAR
STARTCHAR Edieresis
ENCODING 203
SWIDTH 754 0
DWIDTH 27 0
BBX 24 39 2 -4
BITMAP
03F8FC
040501
0C0301
1C4311
3C4311
7C0301
7C0702
7FFFFE
780002
780001
780001
380001
F87FF9
F88001
F88001
F887FF
F887FC
F887F8
F88004
F88004
F88004
F87FC4
F88004
F88004
F88008
F887F0
F887E0
F887FE
F88001
F88001
F88001
F87FF9
F80001
F80001
F80001
FFFFFE
FFFFFC
FFFFF0
FFFFE0
ENDCHAR
STARTCHAR Igrave
ENCODING 204
SWIDTH 705 0
DWIDTH 25 0
BBX 23 39 1 -4
BITMAP
03F800
0407F8
0C0004
1C2004
3C1FC4
7C0004
7F8004
7FFF84
7FFFF8
7C0006
380002
380002
78FFF2
F80202
F80202
FFC23E
FFC23C
FFC238
FFC220
FFC220
07C220
07C220
07C220
07C220
07C220
07C220
07C220
07C23C
080202
180202
380202
78FFF2
F80002
F80002
FC0002
FFFFFC
FFFFF8
FFFFF0
FFFFC0
ENDCHAR
STARTCHAR Iacute
ENCODING 205
SWIDTH 705 0
DWIDTH 25 0
BBX 23 39 1 -4
BITMAP
0001FC
01FE04
020004
040044
0C3F84
1C0004
3C0018
7E1FF0
7FFFE0
7C001E
780002
380002
78FFF2
F80202
F80202
FFC23E
FFC23C
FFC238
FFC220
FFC220
07C220
07C220
07C220
07C220
07C220
07C220
07C220
07C23C
080202
180202
380202
78FFF2
F80002
F80002
FC0002
FFFFFC
FFFFF8
FFFFF0
FFFFC0
ENDCHAR
STARTCHAR Icircumflex
ENCODING 206
SWIDTH 705 0
DWIDTH 25 0
BBX 23 40 1 -4
BITMAP
000F00
0070E0
018018
020F04
0430C4
0C0004
3C0004
3C0F04
7E7FE4
7FFFF8
7C0006
780002
380002
78FFF2
F80202
F80202
FFC23E
FFC23C
FFC238
FFC220
7FC220
07C220
07C220
07C220
07C220
07C220
07C220
07C220
07C23C
080202
180202
380202
78FFF2
F80002
F80002
FC0002
FFFFFC
FFFFF8
FFFFF0
FFFFC0
ENDCHAR
STARTCHAR Idieresis
ENCODING 207
SWIDTH 705 0
DWIDTH 25 0
BBX 23 39 1 -4
BITMAP
03F1FC
040602
0C0602
3C4622
7C4622
7C0602
7C0602
7FFFFC
7C0004
780002
780002
780002
78FFF2
F80202
F80202
FFC23E
FFC23C
FFC238
FFC220
7FC220
07C220
07C220
07C220
07C220
07C220
07C220
07C220
07C23C
080202
180202
380202
78FFF2
F80002
F80002
FC0002
FFFFFC
FFFFF8
FFFFF0
FFFFC0
ENDCHAR
STARTCHAR Eth
ENCODING 208
SWIDTH 856 0
DWIDTH 31 0
BBX 30 30 0 -4
BITMAP
01FFFFC0
02000020
0E000010
1E1FFA08
3E100108
3E100084
3E100084
3E11F844
3E11F844
3E11F844
38103844
38103844
78FE3844
F8103844
F8103844
F8103844
FE11F844
FE11F844
FE11F844
FE100044
3E100084
3E100108
3E1FFA08
3E000010
3E000020
3F0001C0
3FFFFF80
3FFFFE00
3FFFFC00
3FFFF000
ENDCHAR
STARTCHAR Ntilde
ENCODING 209
SWIDTH 853 0
DWIDTH 31 0
BBX 27 39 2 -4
BITMAP
003F0600
00C0F900
01000100
03000100
071FC100
0F003100
1F000100
1F000200
1FFFFC00
183FF3E0
180FE020
3807E020
78C3E220
F8A1E220
F890E220
F8906220
F8882220
F8842220
F8820220
F8810220
F8808220
F8804220
F8882220
F8841220
F8861220
F8870A20
F8878620
F8878220
F887C220
F887E220
F887E220
F887E220
F807E020
F80BE020
F80BE020
FFF3FFC0
FFC3FF80
FF83FE00
FF03FC00
ENDCHAR
STARTCHAR Ograve
ENCODING 210
SWIDTH 837 0
DWIDTH 30 0
BBX 28 41 1 -5
BITMAP
00400000
00BFE000
01801F00
03800100
078FF080
0F800880
0F800080
0FF00080
0FFFF900
0FE00700
0F0000C0
02000020
040FD020
0C100C10
18200210
38400110
7843E110
7847E110
F847E110
F847E110
F847E110
F847E110
F847E110
F847E110
F847E110
F847E110
F847E110
F847E110
F843E110
F8400110
F8200210
FC100C10
FC0DD020
FE000020
7F000040
7FC00380
7FFFFE00
3FFFFC00
1FFFF800
07FFE000
00180000
ENDCHAR
STARTCHAR Oacute
ENCODING 211
SWIDTH 837 0
DWIDTH 30 0
BBX 28 41 1 -5
BITMAP
00000200
0003FD00
007C0080
00800080
0187F880
07880080
0F800100
0F800600
0F8FFC00
0FF00300
0F0000C0
0E000020
0C0FD020
0C100C10
18200210
38400110
7843E110
7847E110
F847E110
F847E110
F847E110
F847E110
F847E110
F847E110
F847E110
F847E110
F847E110
F847E110
F843E110
F8400110
F8200210
FC100C10
FC0DD020
FE000020
7F000040
7FC00380
7FFFFE00
3FFFFC00
1FFFF800
07FFE000
00180000
ENDCHAR
STARTCHAR Ocircumflex
ENCODING 212
SWIDTH 837 0
DWIDTH 30 0
BBX 28 41 1 -5
BITMAP
0003C000
001C3800
00600600
0083C100
018C3880
03800080
0F800080
0F87F080
0FFFFF00
0FE00300
0F0000C0
0E000020
0C0FD020
0C100C10
18200210
38400110
7843E110
7847E110
F847E110
F847E110
F847E110
F847E110
F847E110
F847E110
F847E110
F847E110
F847E110
F847E110
F843E110
F8400110
F8200210
FC100C10
FC0DD020
FE000020
7F000040
7FC00380
7FFFFE00
3FFFFC00
1FFFF800
07FFE000
00180000
ENDCHAR
STARTCHAR Otilde
ENCODING 213
SWIDTH 837 0
DWIDTH 30 0
BBX 28 40 1 -5
BITMAP
003F8300
00407D00
00800080
03800080
078FC080
0F803880
0F800080
0F800100
0FFFFE00
0FE00300
0F0000C0
060FD020
0C100C20
1C200210
38400110
7843E110
7847E110
F847E110
F847E110
F847E110
F847E110
F847E110
F847E110
F847E110
F847E110
F847E110
F847E110
F843E110
F8400110
F8200210
FC100C10
FC0DD010
FE000020
7F000040
7FC00180
7FFFFE00
3FFFFC00
1FFFF800
07FFE000
00180000
ENDCHAR
STARTCHAR Odieresis
ENCODING 214
SWIDTH 837 0
DWIDTH 30 0
BBX 28 40 1 -5
BITMAP
00FE7F00
01018080
03018080
07118880
1F118880
1F018080
1F018080
1FFFFF00
1FE00300
1F0000C0
1E000020
040FD020
0C100C10
18200210
38400110
7843E110
7847E110
F847E110
F847E110
F847E110
F847E110
F847E110
F847E110
F847E110
F847E110
F847E110
F847E110
F843E110
F8400110
F8200210
FC100C10
FC0DD020
FE000020
7F000040
7FC00380
7FFFFE00
3FFFFC00
1FFFF800
07FFE000
00180000
ENDCHAR
STARTCHAR multiply
ENCODING 215
SWIDTH 834 0
DWIDTH 30 0
BBX 26 25 2 -2
BITMAP
00E00E00
01101100
02082080
04044040
08038040
1C210840
3E101080
7F082100
FF844200
7FC28400
3FE10800
1FC28400
0F844200
07082100
06101080
0C210840
18038040
3C07C040
7E0FE080
FF1FF100
FFEFFE00
7F87F800
3F03F000
1E01E000
0C00C000
ENDCHAR
STARTCHAR Oslash
ENCODING 216
SWIDTH 837 0
DWIDTH 30 0
BBX 28 36 1 -6
BITMAP
00000FC0
00001020
00002040
000FE040
00700040
01800440
020FF820
04300E10
0C401110
38401110
7887A110
78872110
F8872110
F8864110
F8864910
F8869110
F8849110
F8851110
F8893110
F8893110
F8827110
F8827110
F884F110
F844E110
F8440210
FC380410
FC0FD810
FE100020
FF100040
7F000380
7E03FE00
3E07FC00
1FFFF800
1FFFE000
3FF80000
3F800000
ENDCHAR
STARTCHAR Ugrave
ENCODING 217
SWIDTH 846 0
DWIDTH 30 0
BBX 28 40 1 -5
BITMAP
007E0000
0081FE00
03800100
07880100
0F87F100
0F800100
0FE00100
0FFFF100
0FFFFE00
0C07F1F0
0803F010
1803F010
3844F110
7845F110
F845F110
F845F110
F845F110
F845F110
F845F110
F845F110
F845F110
F845F110
F845F110
F845F110
F845F110
F845F110
F845F110
F843E110
F8400110
FC200210
FC100410
FC0DD810
7E000020
7F000040
7FC00180
3FFFFE00
3FFFFC00
1FFFF800
07FFE000
00180000
ENDCHAR
STARTCHAR Uacute
ENCODING 218
SWIDTH 846 0
DWIDTH 30 0
BBX 28 40 1 -5
BITMAP
00003F00
003FC080
00400080
00800880
0187F080
03800080
07800300
0FC3FE00
0FFFFC00
0C07F3F0
0803F010
18047010
3844F110
7845F110
F845F110
F845F110
F845F110
F845F110
F845F110
F845F110
F845F110
F845F110
F845F110
F845F110
F845F110
F845F110
F845F110
F843E110
F8400110
FC200210
FC100410
FC0DD810
7E000020
7F000040
7FC00180
3FFFFE00
3FFFFC00
1FFFF800
07FFE000
00180000
ENDCHAR
STARTCHAR Ucircumflex
ENCODING 219
SWIDTH 846 0
DWIDTH 30 0
BBX 28 41 1 -5
BITMAP
0001E000
000E1800
00700700
0083E080
018C1880
03800080
07800080
0F87F880
0FFFFF00
0FFFFF00
0C07F0F0
0803F010
1805F010
3844F110
7845F110
F845F110
F845F110
F845F110
F845F110
F845F110
F845F110
F845F110
F845F110
F845F110
F845F110
F845F110
F845F110
F845F110
F843E110
F8400110
FC200210
FC100410
FC0DD810
7E000020
7F000040
7FC00180
3FFFFE00
3FFFFC00
1FFFF800
07FFE000
00180000
ENDCHAR
STARTCHAR Udieresis
ENCODING 220
SWIDTH 846 0
DWIDTH 30 0
BBX 28 40 1 -5
BITMAP
00FE3F00
0101C080
03008080
07108480
0F108480
1F008080
1F008080
1F01C080
1FFFFF00
1C07F0F0
1803F010
3803F010
7844F110
F845F110
F845F110
F845F110
F845F110
F845F110
F845F110
F845F110
F845F110
F845F110
F845F110
F845F110
F845F110
F845F110
F845F110
F843E110
F8400110
FC200210
FC100410
FC0DD810
7E000020
7F000040
7FC00180
3FFFFE00
3FFFFC00
1FFFF800
07FFE000
00180000
ENDCHAR
STARTCHAR Yacute
ENCODING 221
SWIDTH 805 0
DWIDTH 29 0
BBX 27 39 1 -4
BITMAP
00007F00
007F8100
00800100
01801100
038FE100
07800100
0F800700
0F87FC00
0FFFF800
0C0FF7E0
1807E020
3804E020
7805E020
F887E220
F887E220
F887E220
F887E220
F887E220
F883C220
F843C220
F8218420
FC200840
FE101040
FE081080
FF042100
7F81C200
3FC10200
3FC10400
1FE10800
0FF10800
07F10800
03F10800
03F00800
01F00800
01F01000
01FFE000
01FFC000
01FF8000
01FE0000
ENDCHAR
STARTCHAR Thorn
ENCODING 222
SWIDTH 792 0
DWIDTH 29 0
BBX 26 30 2 -4
BITMAP
0FF80000
18080000
38080000
7887FC00
F8800300
F8800080
F87FE080
F8801840
F8800840
F8800440
F8878440
F887C440
F887C440
F887C440
F887C440
F8800440
F8800440
F8801840
F87FE080
F8800080
F8800100
F8800600
F887F800
F807F000
F807E000
F80F8000
FFF00000
FFE00000
FF800000
FF000000
ENDCHAR
STARTCHAR germandbls
ENCODING 223
SWIDTH 859 0
DWIDTH 31 0
BBX 29 30 2 -4
BITMAP
07FFFE00
18000100
38000080
787FF080
F8800880
F8800880
F8800880
F8870880
F8871080
F8871180
F8871060
F8872010
F8863E10
F8860108
F8860108
F8870088
F887F088
F887F088
F887F088
F8860088
F8860108
F8860108
F8863E10
F8060010
F8060020
F80F01C0
FFFFFF00
FFFFFE00
FFBFFC00
FF3FF000
ENDCHAR
STARTCHAR agrave
ENCODING 224
SWIDTH 830 0
DWIDTH 30 0
BBX 28 40 1 -4
BITMAP
00400000
00BFE000
01801F00
03800100
0F8FF100
0F800900
0F800100
0FE00100
0FFFF100
0FFFFE00
0FC00100
03800100
01800100
0387E080
07081080
0F080880
0E100840
0E118440
1E21C420
1C23C420
1C23C220
3C43E210
3847E110
78400110
78400110
78400110
F87FFF10
F8400110
F8400110
F8400110
F847E110
F847E110
F847E110
F807E010
F807E010
FC0BF010
FFF3FFE0
FFE3FF80
FFC3FF00
FF01FE00
ENDCHAR
STARTCHAR aacute
ENCODING 225
SWIDTH 830 0
DWIDTH 30 0
BBX 28 39 1 -4
BITMAP
00007F00
003F8100
00C00100
01801900
038FE100
07800100
0F800700
0F87FE00
0FFFF800
0FE00600
0FC00100
0F800100
0387E100
07081080
0F080880
0F100840
0E118440
1E21C440
1E23C420
1C23C220
3C43E220
3847E110
78400110
78400110
78400110
F87FFF10
F8400110
F8400110
F8400110
F847E110
F847E110
F847E110
F807E010
F807E010
FC0BF010
FFF3FFE0
FFE3FF80
FFC3FF00
FF01FE00
ENDCHAR
STARTCHAR acircumflex
ENCODING 226
SWIDTH 830 0
DWIDTH 30 0
BBX 28 40 1 -4
BITMAP
0003C000
000C3800
00700600
0083C100
018C3900
03800100
07800100
0F83E100
0FBFFD00
0FFFFE00
0FC00200
0F800100
0F800100
0387E080
07081080
0F080880
0F100840
0E118440
1E21C440
1C23C420
1C23C220
3C43E210
3847E110
78400110
78400110
78400110
F87FFF10
F8400110
F8400110
F8400110
F847E110
F847E110
F847E110
F807E010
F807E010
FC0BF010
FFF3FFE0
FFE3FF80
FFC3FF00
FF01FE00
ENDCHAR
STARTCHAR atilde
ENCODING 227
SWIDTH 830 0
DWIDTH 30 0
BBX 28 39 1 -4
BITMAP
003F8200
00407D00
00800100
01800100
078FC100
0F803900
0F800100
0F800100
0FFFFE00
0FFFFC00
0FC00200
0F800100
0387E100
07881080
0F080880
0F100880
0E118440
1E21C440
1E23C420
1C23C220
3C43E220
3C47E110
78400110
78400110
78400110
F87FFF10
F8400110
F8400110
F8400110
F847E110
F847E110
F847E110
F807E010
F807E010
FC0BF010
FFF3FFE0
FFE3FF80
FFC3FF00
FF01FE00
ENDCHAR
STARTCHAR adieresis
ENCODING 228
SWIDTH 830 0
DWIDTH 30 0
BBX 28 39 1 -4
BITMAP
00FE7F00
01018080
03018080
07118880
1F118880
1F018080
1F018080
1FFFFF00
1FE00200
1FC00100
1F800100
1F800100
0387E080
07081080
0F080880
0E100840
0E118440
1E21C420
1C23C420
1C23C220
3C43E210
3847E110
78400110
78400110
78400110
F87FFF10
F8400110
F8400110
F8400110
F847E110
F847E110
F847E110
F807E010
F807E010
FC0BF010
FFF3FFE0
FFE3FF80
FFC3FF00
FF01FE00
ENDCHAR
STARTCHAR aring
ENCODING 229
SWIDTH 830 0
DWIDTH 30 0
BBX 28 40 1 -4
BITMAP
000DD800
00300600
00400100
0087D100
01880880
0711C480
0F13C480
0F13C480
0F93C480
1F900480
1FC80900
1F87D100
1F800100
0F87E080
0F081080
0F080880
0E100840
0E118440
1E21C420
1C23C420
3C23C220
3C43E210
3847E110
78400110
78400110
78400110
F87FFF10
F8400110
F8400110
F8400110
F847E110
F847E110
F847E110
F807E010
F807E010
FC0BF010
FFF3FFE0
FFE3FF80
FFC3FF00
FF01FE00
ENDCHAR
STARTCHAR ae
ENCODING 230
SWIDTH 1105 0
DWIDTH 40 0
BBX 38 30 1 -4
BITMAP
003FFFFFFC
00C0000004
0180000004
0387FFFFC4
0708010004
0F10010004
0F10010004
0E11E11FF8
1E21E11FE0
1C23E11FE0
3C23E10020
3C43E10020
3847E1FE20
7840010020
7840010020
7840010020
F87FFE1FC0
F840011F00
F840011FF8
F840010004
F847E10004
F847E10004
F847E1FFC4
F807E00004
F807E00004
FC0BF00004
FFF3FFFFF8
FFE3FFFFE0
FFC3FFFFC0
FF03FFFF80
ENDCHAR
STARTCHAR ccedilla
ENCODING 231
SWIDTH 728 0
DWIDTH 26 0
BBX 25 35 1 -9
BITMAP
007FFF00
01800080
02000080
041FF880
0C200080
18400080
38400080
78400100
7843FE00
F847FC00
F847F800
F847F000
F8440000
F8440000
F8440000
F8440000
F8440000
F8440000
F8440000
F841FE00
F8400080
F8400080
FC200080
FC1FF880
FE004080
7F008080
7FE88100
3FF08E00
1FF01C00
0FF01000
01E02000
01FFC000
01FF8000
01FF0000
03FC0000
ENDCHAR
STARTCHAR egrave
ENCODING 232
SWIDTH 754 0
DWIDTH 27 0
BBX 24 39 2 -4
BITMAP
03F800
0407F8
0C0004
1C2004
3C1FC4
7C0004
7F8004
7FFF84
7FFFF8
780007
380001
380001
787FF9
F88001
F88001
F887FF
F887FC
F887F8
F88004
F88004
F88004
F87FC4
F88004
F88004
F88008
F887F0
F887E0
F887FE
F88001
F88001
F88001
F87FF9
F80001
F80001
F80001
FFFFFE
FFFFFC
FFFFF0
FFFFE0
ENDCHAR
STARTCHAR eacute
ENCODING 233
SWIDTH 754 0
DWIDTH 27 0
BBX 24 39 2 -4
BITMAP
0000FE
00FF02
010002
020022
061FC2
0E0002
1E000C
3F0FF8
3FFFF0
38000F
380001
380001
787FF9
F88001
F88001
F887FF
F887FC
F887F8
F88004
F88004
F88004
F87FC4
F88004
F88004
F88008
F887F0
F887E0
F887FE
F88001
F88001
F88001
F87FF9
F80001
F80001
F80001
FFFFFE
FFFFFC
FFFFF0
FFFFE0
ENDCHAR
STARTCHAR ecircumflex
ENCODING 234
SWIDTH 754 0
DWIDTH 27 0
BBX 24 40 2 -4
BITMAP
000F00
0030E0
01C018
020F04
0630E4
0E0004
1E0004
3E0F04
3E7FF4
3FFFFC
380003
380001
380001
F87FF9
F88001
F88001
F887FF
F887FC
F887F8
F88004
F88004
F88004
F87FC4
F88004
F88004
F88008
F887F0
F887E0
F887FE
F88001
F88001
F88001
F87FF9
F80001
F80001
F80001
FFFFFE
FFFFFC
FFFFF0
FFFFE0
ENDCHAR
STARTCHAR edieresis
ENCODING 235
SWIDTH 754 0
DWIDTH 27 0
BBX 24 39 2 -4
BITMAP
03F8FC
040501
0C0301
1C4311
3C4311
7C0301
7C0702
7FFFFE
780002
780001
780001
380001
F87FF9
F88001
F88001
F887FF
F887FC
F887F8
F88004
F88004
F88004
F87FC4
F88004
F88004
F88008
F887F0
F887E0
F887FE
F88001
F88001
F88001
F87FF9
F80001
F80001
F80001
FFFFFE
FFFFFC
FFFFF0
FFFFE0
ENDCHAR
STARTCHAR igrave
ENCODING 236
SWIDTH 705 0
DWIDTH 25 0
BBX 23 39 1 -4
BITMAP
03F800
0407F8
0C0004
1C2004
3C1FC4
7C0004
7F8004
7FFF84
7FFFF8
7C0006
380002
380002
78FFF2
F80202
F80202
FFC23E
FFC23C
FFC238
FFC220
FFC220
07C220
07C220
07C220
07C220
07C220
07C220
07C220
07C23C
080202
180202
380202
78FFF2
F80002
F80002
FC0002
FFFFFC
FFFFF8
FFFFF0
FFFFC0
ENDCHAR
STARTCHAR iacute
ENCODING 237
SWIDTH 705 0
DWIDTH 25 0
BBX 23 39 1 -4
BITMAP
0001FC
01FE04
020004
040044
0C3F84
1C0004
3C0018
7E1FF0
7FFFE0
7C001E
780002
380002
78FFF2
F80202
F80202
FFC23E
FFC23C
FFC238
FFC220
FFC220
07C220
07C220
07C220
07C220
07C220
07C220
07C220
07C23C
080202
180202
380202
78FFF2
F80002
F80002
FC0002
FFFFFC
FFFFF8
FFFFF0
FFFFC0
ENDCHAR
STARTCHAR icircumflex
ENCODING 238
SWIDTH 705 0
DWIDTH 25 0
BBX 23 40 1 -4
BITMAP
000F00
0070E0
018018
020F04
0430C4
0C0004
3C0004
3C0F04
7E7FE4
7FFFF8
7C0006
780002
380002
78FFF2
F80202
F80202
FFC23E
FFC23C
FFC238
FFC220
7FC220
07C220
07C220
07C220
07C220
07C220
07C220
07C220
07C23C
080202
180202
380202
78FFF2
F80002
F80002
FC0002
FFFFFC
FFFFF8
FFFFF0
FFFFC0
ENDCHAR
STARTCHAR idieresis
ENCODING 239
SWIDTH 705 0
DWIDTH 25 0
BBX 23 39 1 -4
BITMAP
03F1FC
040602
0C0602
3C4622
7C4622
7C0602
7C0602
7FFFFC
7C0004
780002
780002
780002
78FFF2
F80202
F80202
FFC23E
FFC23C
FFC238
FFC220
7FC220
07C220
07C220
07C220
07C220
07C220
07C220
07C220
07C23C
080202
180202
380202
78FFF2
F80002
F80002
FC0002
FFFFFC
FFFFF8
FFFFF0
FFFFC0
ENDCHAR
STARTCHAR eth
ENCODING 240
SWIDTH 856 0
DWIDTH 31 0
BBX 30 30 0 -4
BITMAP
01FFFFC0
02000020
0E000010
1E1FFA08
3E100108
3E100084
3E100084
3E11F844
3E11F844
3E11F844
38103844
38103844
78FE3844
F8103844
F8103844
F8103844
FE11F844
FE11F844
FE11F844
FE100044
3E100084
3E100108
3E1FFA08
3E000010
3E000020
3F0001C0
3FFFFF80
3FFFFE00
3FFFFC00
3FFFF000
ENDCHAR
STARTCHAR ntilde
ENCODING 241
SWIDTH 853 0
DWIDTH 31 0
BBX 27 39 2 -4
BITMAP
003F0600
00C0F900
01000100
03000100
071FC100
0F003100
1F000100
1F000200
1FFFFC00
183FF3E0
180FE020
3807E020
78C3E220
F8A1E220
F890E220
F8906220
F8882220
F8842220
F8820220
F8810220
F8808220
F8804220
F8882220
F8841220
F8861220
F8870A20
F8878620
F8878220
F887C220
F887E220
F887E220
F887E220
F807E020
F80BE020
F80BE020
FFF3FFC0
FFC3FF80
FF83FE00
FF03FC00
ENDCHAR
STARTCHAR ograve
ENCODING 242
SWIDTH 837 0
DWIDTH 30 0
BBX 28 41 1 -5
BITMAP
00400000
00BFE000
01801F00
03800100
078FF080
0F800880
0F800080
0FF00080
0FFFF900
0FE00700
0F0000C0
02000020
040FD020
0C100C10
18200210
38400110
7843E110
7847E110
F847E110
F847E110
F847E110
F847E110
F847E110
F847E110
F847E110
F847E110
F847E110
F847E110
F843E110
F8400110
F8200210
FC100C10
FC0DD020
FE000020
7F000040
7FC00380
7FFFFE00
3FFFFC00
1FFFF800
07FFE000
00180000
ENDCHAR
STARTCHAR oacute
ENCODING 243
SWIDTH 837 0
DWIDTH 30 0
BBX 28 41 1 -5
BITMAP
00000200
0003FD00
007C0080
00800080
0187F880
07880080
0F800100
0F800600
0F8FFC00
0FF00300
0F0000C0
0E000020
0C0FD020
0C100C10
18200210
38400110
7843E110
7847E110
F847E110
F847E110
F847E110
F847E110
F847E110
F847E110
F847E110
F847E110
F847E110
F847E110
F843E110
F8400110
F8200210
FC100C10
FC0DD020
FE000020
7F000040
7FC00380
7FFFFE00
3FFFFC00
1FFFF800
07FFE000
00180000
ENDCHAR
STARTCHAR ocircumflex
ENCODING 244
SWIDTH 837 0
DWIDTH 30 0
BBX 28 41 1 -5
BITMAP
0003C000
001C3800
00600600
0083C100
018C3880
03800080
0F800080
0F87F080
0FFFFF00
0FE00300
0F0000C0
0E000020
0C0FD020
0C100C10
18200210
38400110
7843E110
7847E110
F847E110
F847E110
F847E110
F847E110
F847E110
F847E110
F847E110
F847E110
F847E110
F847E110
F843E110
F8400110
F8200210
FC100C10
FC0DD020
FE000020
7F000040
7FC00380
7FFFFE00
3FFFFC00
1FFFF800
07FFE000
00180000
ENDCHAR
STARTCHAR otilde
ENCODING 245
SWIDTH 837 0
DWIDTH 30 0
BBX 28 40 1 -5
BITMAP
003F8300
00407D00
00800080
03800080
078FC080
0F803880
0F800080
0F800100
0FFFFE00
0FE00300
0F0000C0
060FD020
0C100C20
1C200210
38400110
7843E110
7847E110
F847E110
F847E110
F847E110
F847E110
F847E110
F847E110
F847E110
F847E110
F847E110
F847E110
F843E110
F8400110
F8200210
FC100C10
FC0DD010
FE000020
7F000040
7FC00180
7FFFFE00
3FFFFC00
1FFFF800
07FFE000
00180000
ENDCHAR
STARTCHAR odieresis
ENCODING 246
SWIDTH 837 0
DWIDTH 30 0
BBX 28 40 1 -5
BITMAP
00FE7F00
01018080
03018080
07118880
1F118880
1F018080
1F018080
1FFFFF00
1FE00300
1F0000C0
1E000020
040FD020
0C100C10
18200210
38400110
7843E110
7847E110
F847E110
F847E110
F847E110
F847E110
F847E110
F847E110
F847E110
F847E110
F847E110
F847E110
F843E110
F8400110
F8200210
FC100C10
FC0DD020
FE000020
7F000040
7FC00380
7FFFFE00
3FFFFC00
1FFFF800
07FFE000
00180000
ENDCHAR
STARTCHAR divide
ENCODING 247
SWIDTH 834 0
DWIDTH 30 0
BBX 26 28 2 -3
BITMAP
001FE000
00201000
00601000
00E11000
03E11000
03E01000
03E01000
03FFE000
07FFFF80
08000040
18000040
38000040
F8FFFE40
F8000040
F8000040
FFFFFF80
FFF01F00
FFE00E00
FFE00C00
7FE11000
01E11000
03E01000
03E01000
03F01000
03FFE000
03FF8000
03FF0000
03FE0000
ENDCHAR
STARTCHAR oslash
ENCODING 248
SWIDTH 837 0
DWIDTH 30 0
BBX 28 36 1 -6
BITMAP
00000FC0
00001020
00002040
000FE040
00700040
01800440
020FF820
04300E10
0C401110
38401110
7887A110
78872110
F8872110
F8864110
F8864910
F8869110
F8849110
F8851110
F8893110
F8893110
F8827110
F8827110
F884F110
F844E110
F8440210
FC380410
FC0FD810
FE100020
FF100040
7F000380
7E03FE00
3E07FC00
1FFFF800
1FFFE000
3FF80000
3F800000
ENDCHAR
STARTCHAR ugrave
ENCODING 249
SWIDTH 846 0
DWIDTH 30 0
BBX 28 40 1 -5
BITMAP
007E0000
0081FE00
03800100
07880100
0F87F100
0F800100
0FE00100
0FFFF100
0FFFFE00
0C07F1F0
0803F010
1803F010
3844F110
7845F110
F845F110
F845F110
F845F110
F845F110
F845F110
F845F110
F845F110
F845F110
F845F110
F845F110
F845F110
F845F110
F845F110
F843E110
F8400110
FC200210
FC100410
FC0DD810
7E000020
7F000040
7FC00180
3FFFFE00
3FFFFC00
1FFFF800
07FFE000
00180000
ENDCHAR
STARTCHAR uacute
ENCODING 250
SWIDTH 846 0
DWIDTH 30 0
BBX 28 40 1 -5
BITMAP
00003F00
003FC080
00400080
00800880
0187F080
03800080
07800300
0FC3FE00
0FFFFC00
0C07F3F0
0803F010
18047010
3844F110
7845F110
F845F110
F845F110
F845F110
F845F110
F845F110
F845F110
F845F110
F845F110
F845F110
F845F110
F845F110
F845F110
F845F110
F843E110
F8400110
FC200210
FC100410
FC0DD810
7E000020
7F000040
7FC00180
3FFFFE00
3FFFFC00
1FFFF800
07FFE000
00180000
ENDCHAR
STARTCHAR ucircumflex
ENCODING 251
SWIDTH 846 0
DWIDTH 30 0
BBX 28 41 1 -5
BITMAP
0001E000
000E1800
00700700
0083E080
018C1880
03800080
07800080
0F87F880
0FFFFF00
0FFFFF00
0C07F0F0
0803F010
1805F010
3844F110
7845F110
F845F110
F845F110
F845F110
F845F110
F845F110
F845F110
F845F110
F845F110
F845F110
F845F110
F845F110
F845F110
F845F110
F843E110
F8400110
FC200210
FC100410
FC0DD810
7E000020
7F000040
7FC00180
3FFFFE00
3FFFFC00
1FFFF800
07FFE000
00180000
ENDCHAR
STARTCHAR udieresis
ENCODING 252
SWIDTH 846 0
DWIDTH 30 0
BBX 28 40 1 -5
BITMAP
00FE3F00
0101C080
03008080
07108480
0F108480
1F008080
1F008080
1F01C080
1FFFFF00
1C07F0F0
1803F010
3803F010
7844F110
F845F110
F845F110
F845F110
F845F110
F845F110
F845F110
F845F110
F845F110
F845F110
F845F110
F845F110
F845F110
F845F110
F845F110
F843E110
F8400110
FC200210
FC100410
FC0DD810
7E000020
7F000040
7FC00180
3FFFFE00
3FFFFC00
1FFFF800
07FFE000
00180000
ENDCHAR
STARTCHAR yacute
ENCODING 253
SWIDTH 805 0
DWIDTH 29 0
BBX 27 39 1 -4
BITMAP
00007F00
007F8100
00800100
01801100
038FE100
07800100
0F800700
0F87FC00
0FFFF800
0C0FF7E0
1807E020
3804E020
7805E020
F887E220
F887E220
F887E220
F887E220
F887E220
F883C220
F843C220
F8218420
FC200840
FE101040
FE081080
FF042100
7F81C200
3FC10200
3FC10400
1FE10800
0FF10800
07F10800
03F10800
03F00800
01F00800
01F01000
01FFE000
01FFC000
01FF8000
01FE0000
ENDCHAR
STARTCHAR thorn
ENCODING 254
SWIDTH 792 0
DWIDTH 29 0
BBX 26 30 2 -4
BITMAP
0FF80000
18080000
38080000
7887FC00
F8800300
F8800080
F87FE080
F8801840
F8800840
F8800440
F8878440
F887C440
F887C440
F887C440
F887C440
F8800440
F8800440
F8801840
F87FE080
F8800080
F8800100
F8800600
F887F800
F807F000
F807E000
F80F8000
FFF00000
FFE00000
FF800000
FF000000
ENDCHAR
STARTCHAR ydieresis
ENCODING 255
SWIDTH 805 0
DWIDTH 29 0
BBX 27 39 1 -4
BITMAP
00FC7E00
02028080
06018080
0E118880
1E118880
3E018080
3E018080
3F038080
3FFFFF00
3C0FF1E0
3807E020
3807E020
7805E020
F887E220
F887E220
F887E220
F887E220
F887E220
F883C220
F843C220
F8218420
FC200840
FE101040
FE081080
FF042100
7F81C200
3FC10200
1FC10400
1FE10800
0FF10800
07F10800
03F10800
03F00800
01F00800
01F01000
01FFE000
01FFC000
01FF8000
01FE0000
ENDCHAR
STARTCHAR Amacron
ENCODING 256
SWIDTH 830 0
DWIDTH 30 0
BBX 28 38 1 -4
BITMAP
007FFE00
00800100
01800100
078FF900
0F800100
0F800100
0FFFFE00
0FE00200
0FC00100
0F800100
0F800100
0387E080
07081080
0F080840
0E100840
0E118440
1E21C420
1C23C420
1C23C220
3C43E210
3847E110
78400110
78400110
78400110
F87FFF10
F8400110
F8400110
F8400110
F847E110
F847E110
F847E110
F807E010
F807E010
FC0BF010
FFF3FFE0
FFE3FF80
FFC3FF00
FF01FE00
ENDCHAR
STARTCHAR amacron
ENCODING 257
SWIDTH 830 0
DWIDTH 30 0
BBX 28 38 1 -4
BITMAP
007FFE00
00800100
01800100
078FF900
0F800100
0F800100
0FFFFE00
0FE00200
0FC00100
0F800100
0F800100
0387E080
07081080
0F080840
0E100840
0E118440
1E21C420
1C23C420
1C23C220
3C43E210
3847E110
78400110
78400110
78400110
F87FFF10
F8400110
F8400110
F8400110
F847E110
F847E110
F847E110
F807E010
F807E010
FC0BF010
FFF3FFE0
FFE3FF80
FFC3FF00
FF01FE00
ENDCHAR
STARTCHAR Abreve
ENCODING 258
SWIDTH 830 0
DWIDTH 30 0
BBX 28 40 1 -4
BITMAP
007C1E00
00826080
0302C080
07110480
0F180880
0F87D080
1F800100
1FC00100
1FE00600
0FFFF800
0FFFFE00
07C00100
03800100
0387E100
07881080
0F080880
0F100840
0E118440
1E21C440
1E23C420
1C23C220
3C43E220
3C47E110
78400110
78400110
78400110
F87FFF10
F8400110
F8400110
F8400110
F847E110
F847E110
F847E110
F807E010
F807E010
FC0BF010
FFF3FFE0
FFE3FF80
FFC3FF00
FF01FE00
ENDCHAR
STARTCHAR abreve
ENCODING 259
SWIDTH 830 0
DWIDTH 30 0
BBX 28 40 1 -4
BITMAP
007C1E00
00826080
0302C080
07110480
0F180880
0F87D080
1F800100
1FC00100
1FE00600
0FFFF800
0FFFFE00
07C00100
03800100
0387E100
07881080
0F080880
0F100840
0E118440
1E21C440
1E23C420
1C23C220
3C43E220
3C47E110
78400110
78400110
78400110
F87FFF10
F8400110
F8400110
F8400110
F847E110
F847E110
F847E110
F807E010
F807E010
FC0BF010
FFF3FFE0
FFE3FF80
FFC3FF00
FF01FE00
ENDCHAR
STARTCHAR Aogonek
ENCODING 260
SWIDTH 830 0
DWIDTH 30 0
BBX 28 37 1 -11
BITMAP
003FFE00
00400100
01800100
0387E100
07081080
0F080880
0F100840
0E118440
1E21C440
1E23C420
1C23C220
3C43E220
3847E110
78400110
78400110
78400110
F87FFF10
F8400110
F8400110
F8400110
F847E110
F847E110
F847E110
F807E210
F807E210
FC0BE430
FFF3E440
FFE3E460
FFC3E410
FF03E310
0003E010
0003E010
0003F810
0003FFE0
0003FF80
0003FF00
0001FE00
ENDCHAR
STARTCHAR aogonek
ENCODING 261
SWIDTH 830 0
DWIDTH 30 0
BBX 28 37 1 -11
BITMAP
003FFE00
00400100
01800100
0387E100
07081080
0F080880
0F100840
0E118440
1E21C440
1E23C420
1C23C220
3C43E220
3847E110
78400110
78400110
78400110
F87FFF10
F8400110
F8400110
F8400110
F847E110
F847E110
F847E110
F807E210
F807E210
FC0BE430
FFF3E440
FFE3E460
FFC3E410
FF03E310
0003E010
0003E010
0003F810
0003FFE0
0003FF80
0003FF00
0001FE00
ENDCHAR
STARTCHAR Cacute
ENCODING 262
SWIDTH 728 0
DWIDTH 26 0
BBX 25 39 1 -4
BITMAP
00003F00
003FC080
00400080
00800880
018FF080
07800080
0F800300
0F87FE00
0FFFFC00
0FF80300
0F000080
0E000080
041FF880
0C200080
38400080
38400100
7843FE00
7847FC00
F847F800
F847F000
F8440000
F8440000
F8440000
F8440000
F8440000
F8440000
F8440000
F841FE00
F8400080
F8400080
FC200080
FC17F880
FE000080
7F000080
7FF00100
3FFFFE00
3FFFFC00
1FFFF800
03FFF000
ENDCHAR
STARTCHAR cacute
ENCODING 263
SWIDTH 728 0
DWIDTH 26 0
BBX 25 39 1 -4
BITMAP
00003F00
003FC080
00400080
00800880
018FF080
07800080
0F800300
0F87FE00
0FFFFC00
0FF80300
0F000080
0E000080
041FF880
0C200080
38400080
38400100
7843FE00
7847FC00
F847F800
F847F000
F8440000
F8440000
F8440000
F8440000
F8440000
F8440000
F8440000
F841FE00
F8400080
F8400080
FC200080
FC17F880
FE000080
7F000080
7FF00100
3FFFFE00
3FFFFC00
1FFFF800
03FFF000
ENDCHAR
STARTCHAR Ccircumflex
ENCODING 264
SWIDTH 728 0
DWIDTH 26 0
BBX 25 40 1 -4
BITMAP
00038000
001C7000
00E00E00
01038100
031C7100
07000100
0F000100
1F03C100
1F3FF900
1FFFFE00
1FF80100
1F000080
1E000080
041FF880
0C200080
18400080
38400100
7843FE00
7847FC00
F847F800
F847F000
F8440000
F8440000
F8440000
F8440000
F8440000
F8440000
F8440000
F841FE00
F8400080
F8400080
FC200080
FC17F880
FE000080
7F000080
7FF00100
3FFFFE00
3FFFFC00
1FFFF800
03FFF000
ENDCHAR
STARTCHAR ccircumflex
ENCODING 265
SWIDTH 728 0
DWIDTH 26 0
BBX 25 40 1 -4
BITMAP
00038000
001C7000
00E00E00
01038100
031C7100
07000100
0F000100
1F03C100
1F3FF900
1FFFFE00
1FF80100
1F000080
1E000080
041FF880
0C200080
18400080
38400100
7843FE00
7847FC00
F847F800
F847F000
F8440000
F8440000
F8440000
F8440000
F8440000
F8440000
F8440000
F841FE00
F8400080
F8400080
FC200080
FC17F880
FE000080
7F000080
7FF00100
3FFFFE00
3FFFFC00
1FFFF800
03FFF000
ENDCHAR
STARTCHAR Cdotaccent
ENCODING 266
SWIDTH 728 0
DWIDTH 26 0
BBX 25 40 1 -4
BITMAP
000FE000
00100800
00300800
00700800
01F10800
01F10800
01F00800
01F00800
01F00800
01FFF000
01F81F00
03000080
06000080
0C1FF880
1C200080
38400080
78400100
7843FE00
F847FC00
F847F800
F847F000
F8440000
F8440000
F8440000
F8440000
F8440000
F8440000
F8440000
F841FE00
F8400080
F8400080
FC200080
FC17F880
FE000080
7F000080
7FF00100
3FFFFE00
3FFFFC00
0FFFF800
03FFF000
ENDCHAR
STARTCHAR cdotaccent
ENCODING 267
SWIDTH 728 0
DWIDTH 26 0
BBX 25 40 1 -4
BITMAP
000FE000
00100800
00300800
00700800
01F10800
01F10800
01F00800
01F00800
01F00800
01FFF000
01F81F00
03000080
06000080
0C1FF880
1C200080
38400080
78400100
7843FE00
F847FC00
F847F800
F847F000
F8440000
F8440000
F8440000
F8440000
F8440000
F8440000
F8440000
F841FE00
F8400080
F8400080
FC200080
FC17F880
FE000080
7F000080
7FF00100
3FFFFE00
3FFFFC00
0FFFF800
03FFF000
ENDCHAR
STARTCHAR Ccaron
ENCODING 268
SWIDTH 728 0
DWIDTH 26 0
BBX 25 41 1 -4
BITMAP
00000600
01F83900
0107C100
07000100
0F000100
1F1C7100
1F018100
1F800200
1FE00400
1FF83800
1FFFF000
1FF80F00
07000080
02000080
041FF880
0C200080
18400080
38400100
7843FE00
7847FC00
F847F800
F847F000
F8440000
F8440000
F8440000
F8440000
F8440000
F8440000
F8440000
F841FE00
F8400080
F8400080
FC200080
FC17F880
FE000080
7F000080
7FF00100
3FFFFE00
3FFFFC00
1FFFF800
03FFF000
ENDCHAR
STARTCHAR ccaron
ENCODING 269
SWIDTH 728 0
DWIDTH 26 0
BBX 25 41 1 -4
BITMAP
00000600
01F83900
0107C100
07000100
0F000100
1F1C7100
1F018100
1F800200
1FE00400
1FF83800
1FFFF000
1FF80F00
07000080
02000080
041FF880
0C200080
18400080
38400100
7843FE00
7847FC00
F847F800
F847F000
F8440000
F8440000
F8440000
F8440000
F8440000
F8440000
F8440000
F841FE00
F8400080
F8400080
FC200080
FC17F880
FE000080
7F000080
7FF00100
3FFFFE00
3FFFFC00
1FFFF800
03FFF000
ENDCHAR
STARTCHAR Dcaron
ENCODING 270
SWIDTH 846 0
DWIDTH 30 0
BBX 27 41 2 -4
BITMAP
00000600
01F83900
0107C100
07000100
0F000100
1F1C7100
1F038100
1F800200
1FE00400
1FF83800
1FFFF000
18000F00
18000080
38000040
787FF020
F8800C20
F8800220
F8800220
F887E220
F887E220
F887E220
F887E220
F88BE220
F88BE220
F88BE220
F88BE220
F88BE220
F88BE220
F88BE220
F887C220
F8800220
F8800220
F8800420
F87FF820
F8000040
F8000080
F8000F00
FFFFFC00
FFFFF800
FFFFF000
FFFFC000
ENDCHAR
STARTCHAR dcaron
ENCODING 271
SWIDTH 846 0
DWIDTH 30 0
BBX 27 41 2 -4
BITMAP
00000600
01F83900
0107C100
07000100
0F000100
1F1C7100
1F038100
1F800200
1FE00400
1FF83800
1FFFF000
18000F00
18000080
38000040
787FF020
F8800C20
F8800220
F8800220
F887E220
F887E220
F887E220
F887E220
F88BE220
F88BE220
F88BE220
F88BE220
F88BE220
F88BE220
F88BE220
F887C220
F8800220
F8800220
F8800420
F87FF820
F8000040
F8000080
F8000F00
FFFFFC00
FFFFF800
FFFFF000
FFFFC000
ENDCHAR
STARTCHAR Dcroat
ENCODING 272
SWIDTH 856 0
DWIDTH 31 0
BBX 30 30 0 -4
BITMAP
01FFFFC0
02000020
0E000010
1E1FFA08
3E100108
3E100084
3E100084
3E11F844
3E11F844
3E11F844
38103844
38103844
78FE3844
F8103844
F8103844
F8103844
FE11F844
FE11F844
FE11F844
FE100044
3E100084
3E100108
3E1FFA08
3E000010
3E000020
3F0001C0
3FFFFF80
3FFFFE00
3FFFFC00
3FFFF000
ENDCHAR
STARTCHAR dcroat
ENCODING 273
SWIDTH 856 0
DWIDTH 31 0
BBX 30 30 0 -4
BITMAP
01FFFFC0
02000020
0E000010
1E1FFA08
3E100108
3E100084
3E100084
3E11F844
3E11F844
3E11F844
38103844
38103844
78FE3844
F8103844
F8103844
F8103844
FE11F844
FE11F844
FE11F844
FE100044
3E100084
3E100108
3E1FFA08
3E000010
3E000020
3F0001C0
3FFFFF80
3FFFFE00
3FFFFC00
3FFFF000
ENDCHAR
STARTCHAR Emacron
ENCODING 274
SWIDTH 754 0
DWIDTH 27 0
BBX 24 38 2 -4
BITMAP
01FFF8
020004
060004
1E3FE4
3E0004
3E0004
3E0004
3FFFF8
380007
380001
380001
787FF9
F88001
F88001
F887FF
F887FC
F887F8
F88004
F88004
F88004
F87FC4
F88004
F88004
F88008
F887F0
F887E0
F887FE
F88001
F88001
F88001
F87FF9
F80001
F80001
F80001
FFFFFE
FFFFFC
FFFFF0
FFFFE0
ENDCHAR
STARTCHAR emacron
ENCODING 275
SWIDTH 754 0
DWIDTH 27 0
BBX 24 38 2 -4
BITMAP
01FFF8
020004
060004
1E3FE4
3E0004
3E0004
3E0004
3FFFF8
380007
380001
380001
787FF9
F88001
F88001
F887FF
F887FC
F887F8
F88004
F88004
F88004
F87FC4
F88004
F88004
F88008
F887F0
F887E0
F887FE
F88001
F88001
F88001
F87FF9
F80001
F80001
F80001
FFFFFE
FFFFFC
FFFFF0
FFFFE0
ENDCHAR
STARTCHAR Ebreve
ENCODING 276
SWIDTH 754 0
DWIDTH 27 0
BBX 24 40 2 -4
BITMAP
01F07C
020882
060B82
0E4412
1E2022
3E1FC2
3E0002
3F0004
3F8008
3FFFF0
38001F
180001
380001
787FF9
F88001
F88001
F887FF
F887FC
F887F8
F88004
F88004
F88004
F87FC4
F88004
F88004
F88008
F887F0
F887E0
F887FE
F88001
F88001
F88001
F87FF9
F80001
F80001
F80001
FFFFFE
FFFFFC
FFFFF0
FFFFE0
ENDCHAR
STARTCHAR ebreve
ENCODING 277
SWIDTH 754 0
DWIDTH 27 0
BBX 24 40 2 -4
BITMAP
01F07C
020882
060B82
0E4412
1E2022
3E1FC2
3E0002
3F0004
3F8008
3FFFF0
38001F
180001
380001
787FF9
F88001
F88001
F887FF
F887FC
F887F8
F88004
F88004
F88004
F87FC4
F88004
F88004
F88008
F887F0
F887E0
F887FE
F88001
F88001
F88001
F87FF9
F80001
F80001
F80001
FFFFFE
FFFFFC
FFFFF0
FFFFE0
ENDCHAR
STARTCHAR Edotaccent
ENCODING 278
SWIDTH 754 0
DWIDTH 27 0
BBX 24 40 2 -4
BITMAP
003F80
004020
00C020
01C020
03C420
07C420
07C020
07C020
07C040
07FF80
04007F
180001
380001
787FF9
F88001
F88001
F887FF
F887FC
F887F8
F88004
F88004
F88004
F87FC4
F88004
F88004
F88008
F887F0
F887E0
F887FE
F88001
F88001
F88001
F87FF9
F80001
F80001
F80001
FFFFFE
FFFFFC
FFFFF0
FFFFE0
ENDCHAR
STARTCHAR edotaccent
ENCODING 279
SWIDTH 754 0
DWIDTH 27 0
BBX 24 40 2 -4
BITMAP
003F80
004020
00C020
01C020
03C420
07C420
07C020
07C020
07C040
07FF80
04007F
180001
380001
787FF9
F88001
F88001
F887FF
F887FC
F887F8
F88004
F88004
F88004
F87FC4
F88004
F88004
F88008
F887F0
F887E0
F887FE
F88001
F88001
F88001
F87FF9
F80001
F80001
F80001
FFFFFE
FFFFFC
FFFFF0
FFFFE0
ENDCHAR
STARTCHAR Eogonek
ENCODING 280
SWIDTH 754 0
DWIDTH 27 0
BBX 24 37 2 -11
BITMAP
0FFFFF
180001
380001
787FF9
F88001
F88001
F887FF
F887FC
F887F8
F88004
F88004
F88004
F87FC4
F88004
F88004
F88008
F887F0
F887E0
F887FE
F88001
F88001
F88001
F87FF9
F80021
F80021
F80021
FFFE26
FFFE26
FFFE21
FFFE39
003E01
003F01
003FC1
003FFE
003FFC
001FF8
000FE0
ENDCHAR
STARTCHAR eogonek
ENCODING 281
SWIDTH 754 0
DWIDTH 27 0
BBX 24 37 2 -11
BITMAP
0FFFFF
180001
380001
787FF9
F88001
F88001
F887FF
F887FC
F887F8
F88004
F88004
F88004
F87FC4
F88004
F88004
F88008
F887F0
F887E0
F887FE
F88001
F88001
F88001
F87FF9
F80021
F80021
F80021
FFFE26
FFFE26
FFFE21
FFFE39
003E01
003F01
003FC1
003FFE
003FFC
001FF8
000FE0
ENDCHAR
STARTCHAR Ecaron
ENCODING 282
SWIDTH 754 0
DWIDTH 27 0
BBX 24 41 2 -4
BITMAP
00000C
03F072
060F82
0E0002
1E0002
3E38E2
3E0702
3F0004
3F8008
3FF070
3FFFE0
38001F
180001
380001
787FF9
F88001
F88001
F887FF
F887FC
F887F8
F88004
F88004
F88004
F87FC4
F88004
F88004
F88008
F887F0
F887E0
F887FE
F88001
F88001
F88001
F87FF9
F80001
F80001
F80001
FFFFFE
FFFFFC
FFFFF0
FFFFE0
ENDCHAR
STARTCHAR ecaron
ENCODING 283
SWIDTH 754 0
DWIDTH 27 0
BBX 24 41 2 -4
BITMAP
00000C
03F072
060F82
0E0002
1E0002
3E38E2
3E0702
3F0004
3F8008
3FF070
3FFFE0
38001F
180001
380001
787FF9
F88001
F88001
F887FF
F887FC
F887F8
F88004
F88004
F88004
F87FC4
F88004
F88004
F88008
F887F0
F887E0
F887FE
F88001
F88001
F88001
F87FF9
F80001
F80001
F80001
FFFFFE
FFFFFC
FFFFF0
FFFFE0
ENDCHAR
STARTCHAR Gcircumflex
ENCODING 284
SWIDTH 808 0
DWIDTH 29 0
BBX 27 40 1 -4
BITMAP
0001E000
000E1C00
00300300
0041E080
00861880
03800080
07800080
0F81E080
0F9FFE80
0FFFFF00
0FC00080
0F000080
0E000080
041FF880
0C200080
38400080
38400080
7843FF00
7847FC00
F847F800
F847F000
F8441FC0
F8442020
F8446020
F845E020
F847E220
F847E220
F847E220
F843E220
F8400220
F8400220
FC300220
FC0FFE20
FE000020
7F000020
7FF00020
3FFFFFC0
3FFFFF00
1FFFFE00
03FFFC00
ENDCHAR
STARTCHAR gcircumflex
ENCODING 285
SWIDTH 808 0
DWIDTH 29 0
BBX 27 40 1 -4
BITMAP
0001E000
000E1C00
00300300
0041E080
00861880
03800080
07800080
0F81E080
0F9FFE80
0FFFFF00
0FC00080
0F000080
0E000080
041FF880
0C200080
38400080
38400080
7843FF00
7847FC00
F847F800
F847F000
F8441FC0
F8442020
F8446020
F845E020
F847E220
F847E220
F847E220
F843E220
F8400220
F8400220
FC300220
FC0FFE20
FE000020
7F000020
7FF00020
3FFFFFC0
3FFFFF00
1FFFFE00
03FFFC00
ENDCHAR
STARTCHAR Gbreve
ENCODING 286
SWIDTH 808 0
DWIDTH 29 0
BBX 27 40 1 -4
BITMAP
007C1F00
00822080
0182E080
03910480
0F880880
0F87F080
0F800080
0FC00100
0FE00200
0FFFFC00
0FF80700
07000080
02000080
041FF880
0C200080
18400080
38400080
7843FF00
7847FC00
F847F800
F847F000
F8441FC0
F8442020
F8446020
F845E020
F847E220
F847E220
F847E220
F843E220
F8400220
F8400220
FC300220
FC0FFE20
FE000020
7F000020
7FF00020
3FFFFFC0
3FFFFF00
1FFFFE00
03FFFC00
ENDCHAR
STARTCHAR gbreve
ENCODING 287
SWIDTH 808 0
DWIDTH 29 0
BBX 27 40 1 -4
BITMAP
007C1F00
00822080
0182E080
03910480
0F880880
0F87F080
0F800080
0FC00100
0FE00200
0FFFFC00
0FF80700
07000080
02000080
041FF880
0C200080
18400080
38400080
7843FF00
7847FC00
F847F800
F847F000
F8441FC0
F8442020
F8446020
F845E020
F847E220
F847E220
F847E220
F843E220
F8400220
F8400220
FC300220
FC0FFE20
FE000020
7F000020
7FF00020
3FFFFFC0
3FFFFF00
1FFFFE00
03FFFC00
ENDCHAR
STARTCHAR Gdotaccent
ENCODING 288
SWIDTH 808 0
DWIDTH 29 0
BBX 27 40 1 -4
BITMAP
0007F000
00080800
00180800
00380800
00F88800
00F88800
01F80800
01F80800
01F80800
01FFF000
01F80F00
01000080
02000080
041FF880
0C200080
18400080
38400080
7843FF00
7847FC00
F847F800
F847F000
F8441FC0
F8442020
F8446020
F845E020
F847E220
F847E220
F847E220
F843E220
F8400220
F8400220
FC300220
FC0FFE20
FE000020
7F000020
7FF00020
3FFFFFC0
3FFFFF00
1FFFFE00
03FFFC00
ENDCHAR
STARTCHAR gdotaccent
ENCODING 289
SWIDTH 808 0
DWIDTH 29 0
BBX 27 40 1 -4
BITMAP
0007F000
00080800
00180800
00380800
00F88800
00F88800
01F80800
01F80800
01F80800
01FFF000
01F80F00
01000080
02000080
041FF880
0C200080
18400080
38400080
7843FF00
7847FC00
F847F800
F847F000
F8441FC0
F8442020
F8446020
F845E020
F847E220
F847E220
F847E220
F843E220
F8400220
F8400220
FC300220
FC0FFE20
FE000020
7F000020
7FF00020
3FFFFFC0
3FFFFF00
1FFFFE00
03FFFC00
ENDCHAR
STARTCHAR Gcommaaccent
ENCODING 290
SWIDTH 808 0
DWIDTH 29 0
BBX 27 43 1 -17
BITMAP
007FFF00
01800080
02000080
041FF880
0C200080
18400080
38400080
7843FF00
7847FC00
F847F800
F847F000
F8441FC0
F8442020
F8446020
F845E020
F847E220
F847E220
F847E220
F843E220
F8400220
F8400220
FC300220
FC0FFE20
FE000020
7F000020
7FC00020
3FFFFFC0
3FFFFF00
0FF00600
03F00400
0073E800
00F02800
01F02800
01F82800
01FFA800
01F82800
01FBC800
00F81000
007FE000
00FFC000
00FF8000
00FF0000
00FC0000
ENDCHAR
STARTCHAR gcommaaccent
ENCODING 291
SWIDTH 808 0
DWIDTH 29 0
BBX 27 43 1 -17
BITMAP
007FFF00
01800080
02000080
041FF880
0C200080
18400080
38400080
7843FF00
7847FC00
F847F800
F847F000
F8441FC0
F8442020
F8446020
F845E020
F847E220
F847E220
F847E220
F843E220
F8400220
F8400220
FC300220
FC0FFE20
FE000020
7F000020
7FC00020
3FFFFFC0
3FFFFF00
0FF00600
03F00400
0073E800
00F02800
01F02800
01F82800
01FFA800
01F82800
01FBC800
00F81000
007FE000
00FFC000
00FF8000
00FF0000
00FC0000
ENDCHAR
STARTCHAR Hcircumflex
ENCODING 292
SWIDTH 859 0
DWIDTH 31 0
BBX 27 40 2 -4
BITMAP
0003C000
001C3000
00600E00
0083C100
011C3100
07000100
0F000100
1F03C100
1F3FF900
1FFFFE00
180FF1E0
1807E020
3808E020
7889E220
F88BE220
F88BE220
F88BE220
F88BE220
F887E220
F8800220
F8800220
F8800220
F87FFE20
F8800220
F8800220
F8800220
F8800220
F887E220
F887E220
F887E220
F887E220
F88BE220
F88BE220
F80BE020
F80BE020
F80BE020
FFF3FFC0
FFE3FF80
FF83FF00
FF03FC00
ENDCHAR
STARTCHAR hcircumflex
ENCODING 293
SWIDTH 859 0
DWIDTH 31 0
BBX 27 40 2 -4
BITMAP
0003C000
001C3000
00600E00
0083C100
011C3100
07000100
0F000100
1F03C100
1F3FF900
1FFFFE00
180FF1E0
1807E020
3808E020
7889E220
F88BE220
F88BE220
F88BE220
F88BE220
F887E220
F8800220
F8800220
F8800220
F87FFE20
F8800220
F8800220
F8800220
F8800220
F887E220
F887E220
F887E220
F887E220
F88BE220
F88BE220
F80BE020
F80BE020
F80BE020
FFF3FFC0
FFE3FF80
FF83FF00
FF03FC00
ENDCHAR
STARTCHAR Hbar
ENCODING 294
SWIDTH 879 0
DWIDTH 32 0
BBX 31 30 0 -4
BITMAP
01FE07F8
02010804
0E011804
1E117844
3E11F844
38100042
38100042
38FFFFF2
F8100042
F8100042
FE11F846
FE11F844
FE11F844
FE100044
3E100044
3E100044
3E1FFF84
3E100044
3E100044
3E100044
3E100044
3E11F844
3E11F844
3E01F804
3E01F804
3F02FC0C
3FFCFFF0
3FF8FFE0
3FF0FFC0
3FC07F80
ENDCHAR
STARTCHAR hbar
ENCODING 295
SWIDTH 879 0
DWIDTH 32 0
BBX 31 30 0 -4
BITMAP
01FE07F8
02010804
0E011804
1E117844
3E11F844
38100042
38100042
38FFFFF2
F8100042
F8100042
FE11F846
FE11F844
FE11F844
FE100044
3E100044
3E100044
3E1FFF84
3E100044
3E100044
3E100044
3E100044
3E11F844
3E11F844
3E01F804
3E01F804
3F02FC0C
3FFCFFF0
3FF8FFE0
3FF0FFC0
3FC07F80
ENDCHAR
STARTCHAR Itilde
ENCODING 296
SWIDTH 705 0
DWIDTH 25 0
BBX 23 39 1 -4
BITMAP
00FC08
0303F4
060004
0C0004
1C3F04
3C00C4
7C0004
7C000C
7FFFF0
7C000E
780002
380002
78FFF2
F80202
F80202
FFC23E
FFC23C
FFC238
FFC220
FFC220
07C220
07C220
07C220
07C220
07C220
07C220
07C220
07C23C
080202
180202
380202
78FFF2
F80002
F80002
FC0002
FFFFFC
FFFFF8
FFFFF0
FFFFC0
ENDCHAR
STARTCHAR itilde
ENCODING 297
SWIDTH 705 0
DWIDTH 25 0
BBX 23 39 1 -4
BITMAP
00FC08
0303F4
060004
0C0004
1C3F04
3C00C4
7C0004
7C000C
7FFFF0
7C000E
780002
380002
78FFF2
F80202
F80202
FFC23E
FFC23C
FFC238
FFC220
FFC220
07C220
07C220
07C220
07C220
07C220
07C220
07C220
07C23C
080202
180202
380202
78FFF2
F80002
F80002
FC0002
FFFFFC
FFFFF8
FFFFF0
FFFFC0
ENDCHAR
STARTCHAR Imacron
ENCODING 298
SWIDTH 705 0
DWIDTH 25 0
BBX 23 38 1 -4
BITMAP
01FFF8
020004
0C0004
1C3FC4
3C0004
7E0004
7FFFFC
7C000C
780002
780002
380002
78FFF2
F80202
F80202
FFC23E
FFC23C
FFC238
FFC220
7FC220
07C220
07C220
07C220
07C220
07C220
07C220
07C220
07C23C
080202
180202
380202
78FFF2
F80002
F80002
FC0002
FFFFFC
FFFFF8
FFFFF0
FFFFC0
ENDCHAR
STARTCHAR imacron
ENCODING 299
SWIDTH 705 0
DWIDTH 25 0
BBX 23 38 1 -4
BITMAP
01FFF8
020004
0C0004
1C3FC4
3C0004
7E0004
7FFFFC
7C000C
780002
780002
380002
78FFF2
F80202
F80202
FFC23E
FFC23C
FFC238
FFC220
7FC220
07C220
07C220
07C220
07C220
07C220
07C220
07C220
07C23C
080202
180202
380202
78FFF2
F80002
F80002
FC0002
FFFFFC
FFFFF8
FFFFF0
FFFFC0
ENDCHAR
STARTCHAR Ibreve
ENCODING 300
SWIDTH 705 0
DWIDTH 25 0
BBX 23 40 1 -4
BITMAP
03F0F8
040904
0C0B02
1C4422
3C4024
7C3FC4
7E0004
7E0008
7F8010
7FFFE0
3C001E
180002
380002
78FFF2
F80202
F80202
FFC23E
FFC23C
FFC238
FFC220
FFC220
07C220
07C220
07C220
07C220
07C220
07C220
07C220
07C23C
080202
180202
380202
78FFF2
F80002
F80002
FC0002
FFFFFC
FFFFF8
FFFFF0
FFFFC0
ENDCHAR
STARTCHAR ibreve
ENCODING 301
SWIDTH 705 0
DWIDTH 25 0
BBX 23 40 1 -4
BITMAP
03F0F8
040904
0C0B02
1C4422
3C4024
7C3FC4
7E0004
7E0008
7F8010
7FFFE0
3C001E
180002
380002
78FFF2
F80202
F80202
FFC23E
FFC23C
FFC238
FFC220
FFC220
07C220
07C220
07C220
07C220
07C220
07C220
07C220
07C23C
080202
180202
380202
78FFF2
F80002
F80002
FC0002
FFFFFC
FFFFF8
FFFFF0
FFFFC0
ENDCHAR
STARTCHAR Iogonek
ENCODING 302
SWIDTH 705 0
DWIDTH 25 0
BBX 23 37 1 -11
BITMAP
07FFFE
080002
380002
78FFF2
F80202
F80202
FFC23E
FFC23C
FFC238
FFC220
FFC220
07C220
07C220
07C220
07C220
07C220
07C220
07C220
07C23C
080202
180202
380202
78FFF2
F80042
F80042
FC0042
FFFC4C
FFFC4C
FFFC42
FFFC72
007C02
007E02
007F82
007FFC
007FF8
003FF0
001FC0
ENDCHAR
STARTCHAR iogonek
ENCODING 303
SWIDTH 705 0
DWIDTH 25 0
BBX 23 37 1 -11
BITMAP
07FFFE
080002
380002
78FFF2
F80202
F80202
FFC23E
FFC23C
FFC238
FFC220
FFC220
07C220
07C220
07C220
07C220
07C220
07C220
07C220
07C23C
080202
180202
380202
78FFF2
F80042
F80042
FC0042
FFFC4C
FFFC4C
FFFC42
FFFC72
007C02
007E02
007F82
007FFC
007FF8
003FF0
001FC0
ENDCHAR
STARTCHAR Idotaccent
ENCODING 304
SWIDTH 705 0
DWIDTH 25 0
BBX 23 40 1 -4
BITMAP
003F80
004020
00C020
01C020
03C220
07C220
07C020
07C020
07C020
07FFC0
04007E
080002
380002
78FFF2
F80202
F80202
FFC23E
FFC23C
FFC238
FFC220
FFC220
07C220
07C220
07C220
07C220
07C220
07C220
07C220
07C23C
080202
180202
380202
78FFF2
F80002
F80002
FC0002
FFFFFC
FFFFF8
FFFFF0
FFFFC0
ENDCHAR
STARTCHAR dotlessi
ENCODING 305
SWIDTH 705 0
DWIDTH 25 0
BBX 23 30 1 -4
BITMAP
07FFFE
080002
380002
78FFF2
F80202
F80202
FFC23E
FFC23C
FFC238
FFC220
FFC220
07C220
07C220
07C220
07C220
07C220
07C220
07C220
07C23C
080202
180202
380202
78FFF2
F80002
F80002
FC0002
FFFFFC
FFFFF8
FFFFF0
FFFFC0
ENDCHAR
STARTCHAR IJ
ENCODING 306
SWIDTH 844 0
DWIDTH 30 0
BBX 27 30 2 -4
BITMAP
0FF83FE0
18084020
3808C020
788BC220
F887C220
F887C220
F887C220
F887C220
F887C220
F887C220
F887C220
F807C220
F807C220
F807C220
FC0FC220
FFF7C220
FFC7C220
FF87C220
FFFF8220
08000220
18000420
78000C20
F8FFF040
F8000040
F8000180
F8000E00
FFFFFC00
FFFFF800
FFFFE000
FFFF8000
ENDCHAR
STARTCHAR ij
ENCODING 307
SWIDTH 844 0
DWIDTH 30 0
BBX 27 30 2 -4
BITMAP
0FF83FE0
18084020
3808C020
788BC220
F887C220
F887C220
F887C220
F887C220
F887C220
F887C220
F887C220
F807C220
F807C220
F807C220
FC0FC220
FFF7C220
FFC7C220
FF87C220
FFFF8220
08000220
18000420
78000C20
F8FFF040
F8000040
F8000180
F8000E00
FFFFFC00
FFFFF800
FFFFE000
FFFF8000
ENDCHAR
STARTCHAR Jcircumflex
ENCODING 308
SWIDTH 788 0
DWIDTH 28 0
BBX 29 41 1 -5
BITMAP
00001E00
0000E1C0
00030030
00041E08
000C6188
001C0008
003C0008
007C1F08
007DFFE8
007FFFF0
007FC060
007E8040
00738040
00078440
000F8440
000F8440
000F8440
000F8440
000F8440
000F8440
000F8440
07FF8440
080F8440
180F8440
780F8440
F88F8440
F88F8440
F88F8440
F8878440
F8800440
F8400840
F8201040
F81BA040
FC000080
FE000100
FF800600
7FFFF800
7FFFF000
1FFFE000
0FFF8000
00600000
ENDCHAR
STARTCHAR jcircumflex
ENCODING 309
SWIDTH 788 0
DWIDTH 28 0
BBX 29 41 1 -5
BITMAP
00001E00
0000E1C0
00030030
00041E08
000C6188
001C0008
003C0008
007C1F08
007DFFE8
007FFFF0
007FC060
007E8040
00738040
00078440
000F8440
000F8440
000F8440
000F8440
000F8440
000F8440
000F8440
07FF8440
080F8440
180F8440
780F8440
F88F8440
F88F8440
F88F8440
F8878440
F8800440
F8400840
F8201040
F81BA040
FC000080
FE000100
FF800600
7FFFF800
7FFFF000
1FFFE000
0FFF8000
00600000
ENDCHAR
STARTCHAR Kcommaaccent
ENCODING 310
SWIDTH 846 0
DWIDTH 30 0
BBX 27 43 2 -17
BITMAP
0FF83FE0
18084020
38098040
788B8840
F8870880
F8871080
F8871100
F8861100
F8862200
F8802180
F8804040
F8804020
F87FF820
F8800420
F8800220
F8800220
F887C220
F887E220
F887E220
F887E220
F887E220
F88BE220
F88BE220
F80BE020
F80BE020
F80BE020
FFF3FFC0
FFFFFF80
FFA00E00
FF600C00
00E7D000
01E05000
03E05000
03F05000
03FF5000
03F05000
03F79000
01F02000
00FFC000
01FF8000
01FF0000
01FC0000
01F80000
ENDCHAR
STARTCHAR kcommaaccent
ENCODING 311
SWIDTH 846 0
DWIDTH 30 0
BBX 27 43 2 -17
BITMAP
0FF83FE0
18084020
38098040
788B8840
F8870880
F8871080
F8871100
F8861100
F8862200
F8802180
F8804040
F8804020
F87FF820
F8800420
F8800220
F8800220
F887C220
F887E220
F887E220
F887E220
F887E220
F88BE220
F88BE220
F80BE020
F80BE020
F80BE020
FFF3FFC0
FFFFFF80
FFA00E00
FF600C00
00E7D000
01E05000
03E05000
03F05000
03FF5000
03F05000
03F79000
01F02000
00FFC000
01FF8000
01FF0000
01FC0000
01F80000
ENDCHAR
STARTCHAR kgreenlandic
ENCODING 312
SWIDTH 846 0
DWIDTH 30 0
BBX 27 30 2 -4
BITMAP
0FF83FE0
18084020
38098040
788B8840
F8870880
F8871080
F8871100
F8861100
F8862200
F8802180
F8804040
F8804020
F87FF820
F8800420
F8800220
F8800220
F887C220
F887E220
F887E220
F887E220
F887E220
F88BE220
F88BE220
F80BE020
F80BE020
F80BE020
FFF3FFC0
FFE3FF80
FF83FE00
FF03FC00
ENDCHAR
STARTCHAR Lacute
ENCODING 313
SWIDTH 795 0
DWIDTH 29 0
BBX 26 39 2 -4
BITMAP
001FF000
07E01000
08001000
387F1000
78801000
F8001000
F8006000
F87FC000
FFFF8000
F8060000
F8080000
F8080000
F8880000
F8880000
F8880000
F8880000
F8880000
F8880000
F8880000
F8880000
F8883F80
F8884040
F888C040
F889C040
F887C440
F887C440
F887C440
F887C440
F8800440
F8800440
F8800440
F87FFC40
F8000040
F8000040
F8000040
FFFFFF80
FFFFFE00
FFFFFC00
FFFFF800
ENDCHAR
STARTCHAR lacute
ENCODING 314
SWIDTH 795 0
DWIDTH 29 0
BBX 26 39 2 -4
BITMAP
001FF000
07E01000
08001000
387F1000
78801000
F8001000
F8006000
F87FC000
FFFF8000
F8060000
F8080000
F8080000
F8880000
F8880000
F8880000
F8880000
F8880000
F8880000
F8880000
F8880000
F8883F80
F8884040
F888C040
F889C040
F887C440
F887C440
F887C440
F887C440
F8800440
F8800440
F8800440
F87FFC40
F8000040
F8000040
F8000040
FFFFFF80
FFFFFE00
FFFFFC00
FFFFF800
ENDCHAR
STARTCHAR Lcommaaccent
ENCODING 315
SWIDTH 795 0
DWIDTH 29 0
BBX 26 43 2 -17
BITMAP
0FF80000
18080000
38080000
78880000
F8880000
F8880000
F8880000
F8880000
F8880000
F8880000
F8880000
F8883F80
F8884040
F888C040
F889C040
F887C440
F887C440
F887C440
F887C440
F8800440
F8800440
F8800440
F87FFC40
F8000040
F8000040
FFFFFFC0
FFFFFF00
FFE01E00
FFE01C00
FFE01800
01E79000
03E05000
03E05000
03E05000
03FF5000
03F09000
03E71000
03E02000
01FFC000
01FF0000
03FE0000
03FC0000
01F80000
ENDCHAR
STARTCHAR lcommaaccent
ENCODING 316
SWIDTH 795 0
DWIDTH 29 0
BBX 26 43 2 -17
BITMAP
0FF80000
18080000
38080000
78880000
F8880000
F8880000
F8880000
F8880000
F8880000
F8880000
F8880000
F8883F80
F8884040
F888C040
F889C040
F887C440
F887C440
F887C440
F887C440
F8800440
F8800440
F8800440
F87FFC40
F8000040
F8000040
FFFFFFC0
FFFFFF00
FFE01E00
FFE01C00
FFE01800
01E79000
03E05000
03E05000
03E05000
03FF5000
03F09000
03E71000
03E02000
01FFC000
01FF0000
03FE0000
03FC0000
01F80000
ENDCHAR
STARTCHAR Lcaron
ENCODING 317
SWIDTH 795 0
DWIDTH 29 0
BBX 26 30 2 -4
BITMAP
0FF83F80
1808C040
3809C040
788B8480
F8878880
F8878880
F8878880
F8878100
F8878100
F887FE00
F887FC00
F887FF80
F887C040
F887C040
F889C040
F887C440
F887C440
F887C440
F887C440
F8800440
F8800440
F8800440
F87FFC40
F8000040
F8000040
F8000040
FFFFFF80
FFFFFE00
FFFFFC00
FFFFF800
ENDCHAR
STARTCHAR lcaron
ENCODING 318
SWIDTH 795 0
DWIDTH 29 0
BBX 26 30 2 -4
BITMAP
0FF83F80
1808C040
3809C040
788B8480
F8878880
F8878880
F8878880
F8878100
F8878100
F887FE00
F887FC00
F887FF80
F887C040
F887C040
F889C040
F887C440
F887C440
F887C440
F887C440
F8800440
F8800440
F8800440
F87FFC40
F8000040
F8000040
F8000040
FFFFFF80
FFFFFE00
FFFFFC00
FFFFF800
ENDCHAR
STARTCHAR Ldot
ENCODING 319
SWIDTH 795 0
DWIDTH 29 0
BBX 26 30 2 -4
BITMAP
0FF80000
18080000
38080000
78880000
F8883F00
F8884040
F8888040
F8898040
F88B8440
F8878440
F8878040
F8878040
F887FF80
F887FF00
F887FF80
F887C040
F887C040
F889C040
F887C440
F8800440
F8800440
F8800440
F87FFC40
F8000040
F8000040
F8000040
FFFFFF80
FFFFFE00
FFFFFC00
FFFFF800
ENDCHAR
STARTCHAR ldot
ENCODING 320
SWIDTH 795 0
DWIDTH 29 0
BBX 26 30 2 -4
BITMAP
0FF80000
18080000
38080000
78880000
F8883F00
F8884040
F8888040
F8898040
F88B8440
F8878440
F8878040
F8878040
F887FF80
F887FF00
F887FF80
F887C040
F887C040
F889C040
F887C440
F8800440
F8800440
F8800440
F87FFC40
F8000040
F8000040
F8000040
FFFFFF80
FFFFFE00
FFFFFC00
FFFFF800
ENDCHAR
STARTCHAR Lslash
ENCODING 321
SWIDTH 805 0
DWIDTH 29 0
BBX 28 30 0 -4
BITMAP
01FE0000
02010000
0E010000
1E110000
3E110000
3E110000
3E110000
3E11E000
3E102000
38102000
38162000
38E82FE0
78101010
F8103010
F811F010
FE11F110
FE11F110
FE11F110
FE11F110
FE100110
3E100110
3E100110
3E1FFF10
3E000010
3E000010
3F000010
3FFFFFE0
3FFFFFC0
3FFFFF00
3FFFFE00
ENDCHAR
STARTCHAR lslash
ENCODING 322
SWIDTH 805 0
DWIDTH 29 0
BBX 28 30 0 -4
BITMAP
01FE0000
02010000
0E010000
1E110000
3E110000
3E110000
3E110000
3E11E000
3E102000
38102000
38162000
38E82FE0
78101010
F8103010
F811F010
FE11F110
FE11F110
FE11F110
FE11F110
FE100110
3E100110
3E100110
3E1FFF10
3E000010
3E000010
3F000010
3FFFFFE0
3FFFFFC0
3FFFFF00
3FFFFE00
ENDCHAR
STARTCHAR Nacute
ENCODING 323
SWIDTH 853 0
DWIDTH 31 0
BBX 27 39 2 -4
BITMAP
00007F00
007F8100
00800100
01001100
030FE100
07000100
0F000700
1F87FC00
1FFFF800
183FF7E0
180FE020
3804E020
78C3E220
F8A1E220
F890E220
F8906220
F8882220
F8842220
F8820220
F8810220
F8808220
F8804220
F8882220
F8841220
F8861220
F8870A20
F8878620
F8878220
F887C220
F887E220
F887E220
F887E220
F807E020
F80BE020
F80BE020
FFF3FFC0
FFC3FF80
FF83FE00
FF03FC00
ENDCHAR
STARTCHAR nacute
ENCODING 324
SWIDTH 853 0
DWIDTH 31 0
BBX 27 39 2 -4
BITMAP
00007F00
007F8100
00800100
01001100
030FE100
07000100
0F000700
1F87FC00
1FFFF800
183FF7E0
180FE020
3804E020
78C3E220
F8A1E220
F890E220
F8906220
F8882220
F8842220
F8820220
F8810220
F8808220
F8804220
F8882220
F8841220
F8861220
F8870A20
F8878620
F8878220
F887C220
F887E220
F887E220
F887E220
F807E020
F80BE020
F80BE020
FFF3FFC0
FFC3FF80
FF83FE00
FF03FC00
ENDCHAR
STARTCHAR Ncommaaccent
ENCODING 325
SWIDTH 853 0
DWIDTH 31 0
BBX 27 43 2 -17
BITMAP
0FF01FE0
18086020
3804E020
78C3E220
F8A1E220
F890E220
F8906220
F8882220
F8842220
F8820220
F8810220
F8808220
F8804220
F8882220
F8841220
F8861220
F8870A20
F8878620
F8878220
F887C220
F887E220
F887E220
F887E220
F807E020
F80BE020
F80BE020
FFF3FFC0
FFCFFF80
FFB00E00
FF700C00
00F3C800
01F04800
03F04800
03F04800
03FF4800
03F05000
01F39000
01F02000
00FFC000
01FF8000
01FF0000
01FE0000
01F80000
ENDCHAR
STARTCHAR ncommaaccent
ENCODING 326
SWIDTH 853 0
DWIDTH 31 0
BBX 27 43 2 -17
BITMAP
0FF01FE0
18086020
3804E020
78C3E220
F8A1E220
F890E220
F8906220
F8882220
F8842220
F8820220
F8810220
F8808220
F8804220
F8882220
F8841220
F8861220
F8870A20
F8878620
F8878220
F887C220
F887E220
F887E220
F887E220
F807E020
F80BE020
F80BE020
FFF3FFC0
FFCFFF80
FFB00E00
FF700C00
00F3C800
01F04800
03F04800
03F04800
03FF4800
03F05000
01F39000
01F02000
00FFC000
01FF8000
01FF0000
01FE0000
01F80000
ENDCHAR
STARTCHAR Ncaron
ENCODING 327
SWIDTH 853 0
DWIDTH 31 0
BBX 27 41 2 -4
BITMAP
00000400
00F03A00
010FC100
03000100
07000100
1F187100
1F078200
1F000200
1FC00C00
1FF03000
1FFFE000
183FDFE0
180E6020
3804E020
78C3E220
F8A1E220
F890E220
F8906220
F8882220
F8842220
F8820220
F8810220
F8808220
F8804220
F8882220
F8841220
F8861220
F8870A20
F8878620
F8878220
F887C220
F887E220
F887E220
F887E220
F807E020
F80BE020
F80BE020
FFF3FFC0
FFC3FF80
FF83FE00
FF03FC00
ENDCHAR
STARTCHAR ncaron
ENCODING 328
SWIDTH 853 0
DWIDTH 31 0
BBX 27 41 2 -4
BITMAP
00000400
00F03A00
010FC100
03000100
07000100
1F187100
1F078200
1F000200
1FC00C00
1FF03000
1FFFE000
183FDFE0
180E6020
3804E020
78C3E220
F8A1E220
F890E220
F8906220
F8882220
F8842220
F8820220
F8810220
F8808220
F8804220
F8882220
F8841220
F8861220
F8870A20
F8878620
F8878220
F887C220
F887E220
F887E220
F887E220
F807E020
F80BE020
F80BE020
FFF3FFC0
FFC3FF80
FF83FE00
FF03FC00
ENDCHAR
STARTCHAR napostrophe
ENCODING 329
SWIDTH 853 0
DWIDTH 31 0
BBX 28 44 1 -4
BITMAP
07F80000
08040000
18040000
38040000
79E40000
F8140000
F8140000
F8140000
FFD40000
FC240000
FDC40000
FC080000
7C080000
7FF00000
7FF80FF0
7C043010
7C027010
7C61F110
7C50F110
7C487110
7C483110
7C441110
7C421110
7C410110
7C408110
7C404110
7C402110
7C441110
7C420910
7C430910
7C438510
7C43C310
7C43C110
7C43E110
7C43F110
7C43F110
7C43F110
7C03F010
7C05F010
7C05F010
7FF9FFE0
7FE1FFC0
7FC1FF00
7F81FE00
ENDCHAR
STARTCHAR Eng
ENCODING 330
SWIDTH 846 0
DWIDTH 30 0
BBX 28 34 1 -7
BITMAP
000FF800
00700700
018000C0
0205D820
04180410
0C200210
1C400110
3843E110
7843E110
7843E110
7843E110
F843E110
F843E110
F843E110
F843E110
F843E110
F843E110
F843E110
F843E110
F843E110
F843E110
F843E110
F843E110
F8030110
F8030110
F8070210
FC071C10
FFFF0020
FFFF0040
FFDF0180
7F9FFF00
001FFC00
001FF800
001FF000
ENDCHAR
STARTCHAR eng
ENCODING 331
SWIDTH 846 0
DWIDTH 30 0
BBX 28 34 1 -7
BITMAP
000FF800
00700700
018000C0
0205D820
04180410
0C200210
1C400110
3843E110
7843E110
7843E110
7843E110
F843E110
F843E110
F843E110
F843E110
F843E110
F843E110
F843E110
F843E110
F843E110
F843E110
F843E110
F843E110
F8030110
F8030110
F8070210
FC071C10
FFFF0020
FFFF0040
FFDF0180
7F9FFF00
001FFC00
001FF800
001FF000
ENDCHAR
STARTCHAR Omacron
ENCODING 332
SWIDTH 837 0
DWIDTH 30 0
BBX 28 40 1 -5
BITMAP
007FFE00
00800080
01800080
03800080
078FF880
0F800080
0F800100
0FFFFE00
0FE00300
0F0000C0
0E000020
040FD020
0C100C10
18200210
38400110
7843E110
7847E110
F847E110
F847E110
F847E110
F847E110
F847E110
F847E110
F847E110
F847E110
F847E110
F847E110
F843E110
F8400110
F8200210
FC100C10
FC0DD020
FE000020
7F000040
7FC00380
7FFFFE00
3FFFFC00
1FFFF800
07FFE000
00180000
ENDCHAR
STARTCHAR omacron
ENCODING 333
SWIDTH 837 0
DWIDTH 30 0
BBX 28 40 1 -5
BITMAP
007FFE00
00800080
01800080
03800080
078FF880
0F800080
0F800100
0FFFFE00
0FE00300
0F0000C0
0E000020
040FD020
0C100C10
18200210
38400110
7843E110
7847E110
F847E110
F847E110
F847E110
F847E110
F847E110
F847E110
F847E110
F847E110
F847E110
F847E110
F843E110
F8400110
F8200210
FC100C10
FC0DD020
FE000020
7F000040
7FC00380
7FFFFE00
3FFFFC00
1FFFF800
07FFE000
00180000
ENDCHAR
STARTCHAR Obreve
ENCODING 334
SWIDTH 837 0
DWIDTH 30 0
BBX 28 41 1 -5
BITMAP
007C1E00
00826080
0382E080
07910480
0F880880
0F87D080
0F800100
0FC00100
0FE00200
0FFFFC00
0FF00E00
07800180
060FD060
0C100C20
1C200210
38400110
7843E110
7847E110
F847E110
F847E110
F847E110
F847E110
F847E110
F847E110
F847E110
F847E110
F847E110
F847E110
F843E110
F8400110
F8200210
FC100C10
FC0DD010
FE000020
7F000040
7FC00180
7FFFFE00
3FFFFC00
1FFFF800
07FFE000
00180000
ENDCHAR
STARTCHAR obreve
ENCODING 335
SWIDTH 837 0
DWIDTH 30 0
BBX 28 41 1 -5
BITMAP
007C1E00
00826080
0382E080
07910480
0F880880
0F87D080
0F800100
0FC00100
0FE00200
0FFFFC00
0FF00E00
07800180
060FD060
0C100C20
1C200210
38400110
7843E110
7847E110
F847E110
F847E110
F847E110
F847E110
F847E110
F847E110
F847E110
F847E110
F847E110
F847E110
F843E110
F8400110
F8200210
FC100C10
FC0DD010
FE000020
7F000040
7FC00180
7FFFFE00
3FFFFC00
1FFFF800
07FFE000
00180000
ENDCHAR
STARTCHAR Ohungarumlaut
ENCODING 336
SWIDTH 837 0
DWIDTH 30 0
BBX 28 44 1 -5
BITMAP
001F0F80
00209020
00C0B020
01C0E040
03C8E240
07C8E240
0788E440
0789C480
0781C080
0F81C080
0F83C080
0FFFFF00
0FE00300
1F0000C0
1E000020
040FD020
0C100C10
18200210
38400110
7843E110
7847E110
F847E110
F847E110
F847E110
F847E110
F847E110
F847E110
F847E110
F847E110
F847E110
F847E110
F843E110
F8400110
F8200210
FC100C10
FC0DD020
FE000020
7F000040
7FC00380
7FFFFE00
3FFFFC00
1FFFF800
07FFE000
00180000
ENDCHAR
STARTCHAR ohungarumlaut
ENCODING 337
SWIDTH 837 0
DWIDTH 30 0
BBX 28 44 1 -5
BITMAP
001F0F80
00209020
00C0B020
01C0E040
03C8E240
07C8E240
0788E440
0789C480
0781C080
0F81C080
0F83C080
0FFFFF00
0FE00300
1F0000C0
1E000020
040FD020
0C100C10
18200210
38400110
7843E110
7847E110
F847E110
F847E110
F847E110
F847E110
F847E110
F847E110
F847E110
F847E110
F847E110
F847E110
F843E110
F8400110
F8200210
FC100C10
FC0DD020
FE000020
7F000040
7FC00380
7FFFFE00
3FFFFC00
1FFFF800
07FFE000
00180000
ENDCHAR
STARTCHAR OE
ENCODING 338
SWIDTH 1115 0
DWIDTH 40 0
BBX 38 30 1 -4
BITMAP
007FFFFFFC
0180000004
0200000004
040FFFFFC4
0C30010004
1840010004
3843E11FFC
7847E11FF0
7847E11FE0
F847E10010
F847E10010
F847E10010
F847E1FE10
F847E10010
F847E10010
F847E10020
F847E11FC0
F847E11F80
F843E11FF8
F840010004
F840010004
FC30010004
FC0BFFFFC4
FE00000004
7F00000004
7FE0000004
7FFFFFFFF8
3FFFFFFFF0
1FFFFFFFC0
03FFFFFF80
ENDCHAR
STARTCHAR oe
ENCODING 339
SWIDTH 1115 0
DWIDTH 40 0
BBX 38 30 1 -4
BITMAP
007FFFFFFC
0180000004
0200000004
040FFFFFC4
0C30010004
1840010004
3843E11FFC
7847E11FF0
7847E11FE0
F847E10010
F847E10010
F847E10010
F847E1FE10
F847E10010
F847E10010
F847E10020
F847E11FC0
F847E11F80
F843E11FF8
F840010004
F840010004
FC30010004
FC0BFFFFC4
FE00000004
7F00000004
7FE0000004
7FFFFFFFF8
3FFFFFFFF0
1FFFFFFFC0
03FFFFFF80
ENDCHAR
STARTCHAR Racute
ENCODING 340
SWIDTH 843 0
DWIDTH 30 0
BBX 28 40 2 -4
BITMAP
00000400
0007FA00
00F80200
03000200
071FE200
0F000200
1F000200
1F000C00
1F0FF000
1FFFFC00
18000200
18000100
38000080
F87FE080
F8801040
F8800840
F8878840
F8878840
F8878840
F8878880
F8870880
F8800980
F8801040
F87FF420
F8800210
F8800210
F8800110
F887E110
F887E110
F887E110
F887E110
F88BE110
F80BE010
F80BE010
F80BE010
F80BF030
FFF3FFC0
FFC3FF80
FF83FF00
FF03FE00
ENDCHAR
STARTCHAR racute
ENCODING 341
SWIDTH 843 0
DWIDTH 30 0
BBX 28 40 2 -4
BITMAP
00000400
0007FA00
00F80200
03000200
071FE200
0F000200
1F000200
1F000C00
1F0FF000
1FFFFC00
18000200
18000100
38000080
F87FE080
F8801040
F8800840
F8878840
F8878840
F8878840
F8878880
F8870880
F8800980
F8801040
F87FF420
F8800210
F8800210
F8800110
F887E110
F887E110
F887E110
F887E110
F88BE110
F80BE010
F80BE010
F80BE010
F80BF030
FFF3FFC0
FFC3FF80
FF83FF00
FF03FE00
ENDCHAR
STARTCHAR Rcommaaccent
ENCODING 342
SWIDTH 843 0
DWIDTH 30 0
BBX 28 43 2 -17
BITMAP
0FFFFC00
18000300
38000080
787FE080
F8801040
F8800840
F8878840
F8878840
F8878840
F8878880
F8870880
F8800980
F8801040
F87FF420
F8800210
F8800210
F8800110
F887E110
F887E110
F887E110
F887E110
F88BE110
F80BE010
F80BE010
F80BE010
F80BF030
FFF3FFC0
FFCFFF80
FF900F00
FF700E00
00F3C800
01F04800
01F04800
01F04800
01FF4800
01F04800
01F39000
01F02000
00FFC000
01FF8000
01FF0000
01FE0000
01F80000
ENDCHAR
STARTCHAR rcommaaccent
ENCODING 343
SWIDTH 843 0
DWIDTH 30 0
BBX 28 43 2 -17
BITMAP
0FFFFC00
18000300
38000080
787FE080
F8801040
F8800840
F8878840
F8878840
F8878840
F8878880
F8870880
F8800980
F8801040
F87FF420
F8800210
F8800210
F8800110
F887E110
F887E110
F887E110
F887E110
F88BE110
F80BE010
F80BE010
F80BE010
F80BF030
FFF3FFC0
FFCFFF80
FF900F00
FF700E00
00F3C800
01F04800
01F04800
01F04800
01FF4800
01F04800
01F39000
01F02000
00FFC000
01FF8000
01FF0000
01FE0000
01F80000
ENDCHAR
STARTCHAR Rcaron
ENCODING 344
SWIDTH 843 0
DWIDTH 30 0
BBX 28 41 2 -4
BITMAP
00000600
01F83900
0307C100
07000100
0F000100
1F1C7100
1F038100
1F800200
1FC00400
1FF83800
1FFFF000
1FFFFC00
18000300
38000080
787FE080
F8801080
F8800840
F8878840
F8878840
F8878840
F8878880
F8870880
F8800980
F8801040
F87FF420
F8800210
F8800210
F8800110
F887E110
F887E110
F887E110
F887E110
F88BE110
F80BE010
F80BE010
F80BE010
F80BF030
FFF3FFC0
FFC3FF80
FF83FF00
FF03FE00
ENDCHAR
STARTCHAR rcaron
ENCODING 345
SWIDTH 843 0
DWIDTH 30 0
BBX 28 41 2 -4
BITMAP
00000600
01F83900
0307C100
07000100
0F000100
1F1C7100
1F038100
1F800200
1FC00400
1FF83800
1FFFF000
1FFFFC00
18000300
38000080
787FE080
F8801080
F8800840
F8878840
F8878840
F8878840
F8878880
F8870880
F8800980
F8801040
F87FF420
F8800210
F8800210
F8800110
F887E110
F887E110
F887E110
F887E110
F88BE110
F80BE010
F80BE010
F80BE010
F80BF030
FFF3FFC0
FFC3FF80
FF83FF00
FF03FE00
ENDCHAR
STARTCHAR Sacute
ENCODING 346
SWIDTH 750 0
DWIDTH 27 0
BBX 25 39 1 -4
BITMAP
0000FE00
00FF0200
01000200
03002200
071FC200
0F000200
1F000E00
1F0FFC00
1FFFF000
1FE00F00
1F000100
1C000100
0C1FF900
18600100
38400100
78400100
F847FE00
F847FC00
F8403C00
F8400200
F8600100
F81F0080
FC00F080
FE000880
FF000880
FFFC0880
7FFF8880
3FFF8880
18000880
18000880
38001080
78FFC080
F8000100
F8000200
FC001C00
FFFFF800
FFFFF000
FFFFC000
FFFF0000
ENDCHAR
STARTCHAR sacute
ENCODING 347
SWIDTH 750 0
DWIDTH 27 0
BBX 25 39 1 -4
BITMAP
0000FE00
00FF0200
01000200
03002200
071FC200
0F000200
1F000E00
1F0FFC00
1FFFF000
1FE00F00
1F000100
1C000100
0C1FF900
18600100
38400100
78400100
F847FE00
F847FC00
F8403C00
F8400200
F8600100
F81F0080
FC00F080
FE000880
FF000880
FFFC0880
7FFF8880
3FFF8880
18000880
18000880
38001080
78FFC080
F8000100
F8000200
FC001C00
FFFFF800
FFFFF000
FFFFC000
FFFF0000
ENDCHAR
STARTCHAR Scircumflex
ENCODING 348
SWIDTH 750 0
DWIDTH 27 0
BBX 25 40 1 -4
BITMAP
00078000
00386000
00C01C00
01078200
02186200
0E000200
1E000200
3E078200
3E7FF200
3FFFFC00
3FE00300
3F000100
3C000100
0C1FF900
18600100
38400100
78400100
F847FE00
F847FC00
F8403C00
F8400200
F8600100
F81F0080
FC00F080
FE000880
FF000880
FFFC0880
7FFF8880
3FFF8880
18000880
18000880
38001080
78FFC080
F8000100
F8000200
FC001C00
FFFFF800
FFFFF000
FFFFC000
FFFF0000
ENDCHAR
STARTCHAR scircumflex
ENCODING 349
SWIDTH 750 0
DWIDTH 27 0
BBX 25 40 1 -4
BITMAP
00078000
00386000
00C01C00
01078200
02186200
0E000200
1E000200
3E078200
3E7FF200
3FFFFC00
3FE00300
3F000100
3C000100
0C1FF900
18600100
38400100
78400100
F847FE00
F847FC00
F8403C00
F8400200
F8600100
F81F0080
FC00F080
FE000880
FF000880
FFFC0880
7FFF8880
3FFF8880
18000880
18000880
38001080
78FFC080
F8000100
F8000200
FC001C00
FFFFF800
FFFFF000
FFFFC000
FFFF0000
ENDCHAR
STARTCHAR Scedilla
ENCODING 350
SWIDTH 750 0
DWIDTH 27 0
BBX 25 34 1 -8
BITMAP
00FFFF00
01000100
02000100
0C1FF900
18600100
38400100
78400100
7847FE00
F847FC00
F8403C00
F8400200
F8600100
F81F0080
FC00F080
FE000880
FF000880
FFFC0880
7FFF8880
3FFF8880
18000880
18000880
38001080
78FFC080
F8010100
F8010200
F8020C00
FFE23800
FFC02000
FFC04000
FFC08000
03FF0000
07FE0000
07FC0000
07F80000
ENDCHAR
STARTCHAR scedilla
ENCODING 351
SWIDTH 750 0
DWIDTH 27 0
BBX 25 34 1 -8
BITMAP
00FFFF00
01000100
02000100
0C1FF900
18600100
38400100
78400100
7847FE00
F847FC00
F8403C00
F8400200
F8600100
F81F0080
FC00F080
FE000880
FF000880
FFFC0880
7FFF8880
3FFF8880
18000880
18000880
38001080
78FFC080
F8010100
F8010200
F8020C00
FFE23800
FFC02000
FFC04000
FFC08000
03FF0000
07FE0000
07FC0000
07F80000
ENDCHAR
STARTCHAR Scaron
ENCODING 352
SWIDTH 750 0
DWIDTH 27 0
BBX 25 41 1 -4
BITMAP
00800400
01787A00
03078200
07000200
0F000200
1F186200
1F078200
1F000200
1FC00C00
1FF03000
1FFFE000
1FE01F00
07000100
04000100
0C1FF900
18600100
38400100
78400100
F847FE00
F847FC00
F8403C00
F8400200
F8600100
F81F0080
FC00F080
FE000880
FF000880
FFFC0880
7FFF8880
3FFF8880
18000880
18000880
38001080
78FFC080
F8000100
F8000200
FC001C00
FFFFF800
FFFFF000
FFFFC000
FFFF0000
ENDCHAR
STARTCHAR scaron
ENCODING 353
SWIDTH 750 0
DWIDTH 27 0
BBX 25 41 1 -4
BITMAP
00800400
01787A00
03078200
07000200
0F000200
1F186200
1F078200
1F000200
1FC00C00
1FF03000
1FFFE000
1FE01F00
07000100
04000100
0C1FF900
18600100
38400100
78400100
F847FE00
F847FC00
F8403C00
F8400200
F8600100
F81F0080
FC00F080
FE000880
FF000880
FFFC0880
7FFF8880
3FFF8880
18000880
18000880
38001080
78FFC080
F8000100
F8000200
FC001C00
FFFFF800
FFFFF000
FFFFC000
FFFF0000
ENDCHAR
STARTCHAR Tcommaaccent
ENCODING 354
SWIDTH 756 0
DWIDTH 27 0
BBX 27 43 0 -17
BITMAP
07FFFFE0
08000020
18000020
78FFFF20
F8010020
F8010020
FC010020
FFF10FC0
FFF10F80
FFF10E00
FFF10C00
01F10800
01F10800
01F10800
01F10800
01F10800
01F10800
01F10800
01F10800
01F10800
01F10800
01F10800
01F00800
01F00800
01F00800
01FFF000
01FFF000
01F00800
01F00800
01F00800
00F3C800
01F04800
01F04800
01F04800
01FF4800
01F04800
01F39000
01F03000
00FFC000
01FF8000
01FF0000
01FE0000
01F80000
ENDCHAR
STARTCHAR tcommaaccent
ENCODING 355
SWIDTH 756 0
DWIDTH 27 0
BBX 27 43 0 -17
BITMAP
07FFFFE0
08000020
18000020
78FFFF20
F8010020
F8010020
FC010020
FFF10FC0
FFF10F80
FFF10E00
FFF10C00
01F10800
01F10800
01F10800
01F10800
01F10800
01F10800
01F10800
01F10800
01F10800
01F10800
01F10800
01F00800
01F00800
01F00800
01FFF000
01FFF000
01F00800
01F00800
01F00800
00F3C800
01F04800
01F04800
01F04800
01FF4800
01F04800
01F39000
01F03000
00FFC000
01FF8000
01FF0000
01FE0000
01F80000
ENDCHAR
STARTCHAR Tcaron
ENCODING 356
SWIDTH 756 0
DWIDTH 27 0
BBX 27 41 0 -4
BITMAP
00000200
00F83D00
0107C100
03000100
07000100
0F0C3100
1F03C100
1F800100
1FE00600
1FF81800
1FFFF000
0C000FE0
08000020
18000020
78FFFF20
F8010020
F8010020
FC010020
FFF10FC0
FFF10F80
FFF10E00
FFF10C00
01F10800
01F10800
01F10800
01F10800
01F10800
01F10800
01F10800
01F10800
01F10800
01F10800
01F10800
01F00800
01F00800
01F00800
01F01000
01FFE000
01FFC000
01FF8000
01FF0000
ENDCHAR
STARTCHAR tcaron
ENCODING 357
SWIDTH 756 0
DWIDTH 27 0
BBX 27 41 0 -4
BITMAP
00000200
00F83D00
0107C100
03000100
07000100
0F0C3100
1F03C100
1F800100
1FE00600
1FF81800
1FFFF000
0C000FE0
08000020
18000020
78FFFF20
F8010020
F8010020
FC010020
FFF10FC0
FFF10F80
FFF10E00
FFF10C00
01F10800
01F10800
01F10800
01F10800
01F10800
01F10800
01F10800
01F10800
01F10800
01F10800
01F10800
01F00800
01F00800
01F00800
01F01000
01FFE000
01FFC000
01FF8000
01FF0000
ENDCHAR
STARTCHAR Tbar
ENCODING 358
SWIDTH 756 0
DWIDTH 27 0
BBX 27 30 0 -4
BITMAP
07FFFFE0
08000020
18000020
78FFFF20
F8010020
F8010020
F8010020
FFF10FC0
FFF10F80
FFF10F00
FFF10E00
01F10E00
01010080
07010080
0F1FF880
1F010080
1F010080
1F010180
1FF10E00
1FF10C00
1FF10800
1FF10800
01F00800
01F00800
01F00800
01F01000
01FFE000
01FFC000
01FF8000
01FF0000
ENDCHAR
STARTCHAR tbar
ENCODING 359
SWIDTH 756 0
DWIDTH 27 0
BBX 27 30 0 -4
BITMAP
07FFFFE0
08000020
18000020
78FFFF20
F8010020
F8010020
F8010020
FFF10FC0
FFF10F80
FFF10F00
FFF10E00
01F10E00
01010080
07010080
0F1FF880
1F010080
1F010080
1F010180
1FF10E00
1FF10C00
1FF10800
1FF10800
01F00800
01F00800
01F00800
01F01000
01FFE000
01FFC000
01FF8000
01FF0000
ENDCHAR
STARTCHAR Utilde
ENCODING 360
SWIDTH 846 0
DWIDTH 30 0
BBX 28 40 1 -5
BITMAP
003F8300
00407C80
00800080
01800080
038FE080
07801880
0F800080
0F800100
0FFFFE00
0C07F1F0
0803F010
1803F010
3844F110
7845F110
F845F110
F845F110
F845F110
F845F110
F845F110
F845F110
F845F110
F845F110
F845F110
F845F110
F845F110
F845F110
F845F110
F843E110
F8400110
FC200210
FC100410
FC0DD810
7E000020
7F000040
7FC00180
3FFFFE00
3FFFFC00
1FFFF800
07FFE000
00180000
ENDCHAR
STARTCHAR utilde
ENCODING 361
SWIDTH 846 0
DWIDTH 30 0
BBX 28 40 1 -5
BITMAP
003F8300
00407C80
00800080
01800080
038FE080
07801880
0F800080
0F800100
0FFFFE00
0C07F1F0
0803F010
1803F010
3844F110
7845F110
F845F110
F845F110
F845F110
F845F110
F845F110
F845F110
F845F110
F845F110
F845F110
F845F110
F845F110
F845F110
F845F110
F843E110
F8400110
FC200210
FC100410
FC0DD810
7E000020
7F000040
7FC00180
3FFFFE00
3FFFFC00
1FFFF800
07FFE000
00180000
ENDCHAR
STARTCHAR Umacron
ENCODING 362
SWIDTH 846 0
DWIDTH 30 0
BBX 28 40 1 -5
BITMAP
007FFE00
00800080
01800080
03800080
078FF880
0F800080
0F800080
0F800100
0FFFFE00
0C07F1F0
0803F010
1803F010
3844F110
7845F110
F845F110
F845F110
F845F110
F845F110
F845F110
F845F110
F845F110
F845F110
F845F110
F845F110
F845F110
F845F110
F845F110
F843E110
F8400110
FC200210
FC100410
FC0DD810
7E000020
7F000040
7FC00180
3FFFFE00
3FFFFC00
1FFFF800
07FFE000
00180000
ENDCHAR
STARTCHAR umacron
ENCODING 363
SWIDTH 846 0
DWIDTH 30 0
BBX 28 40 1 -5
BITMAP
007FFE00
00800080
01800080
03800080
078FF880
0F800080
0F800080
0F800100
0FFFFE00
0C07F1F0
0803F010
1803F010
3844F110
7845F110
F845F110
F845F110
F845F110
F845F110
F845F110
F845F110
F845F110
F845F110
F845F110
F845F110
F845F110
F845F110
F845F110
F843E110
F8400110
FC200210
FC100410
FC0DD810
7E000020
7F000040
7FC00180
3FFFFE00
3FFFFC00
1FFFF800
07FFE000
00180000
ENDCHAR
STARTCHAR Ubreve
ENCODING 364
SWIDTH 846 0
DWIDTH 30 0
BBX 28 41 1 -5
BITMAP
007C1F00
00822080
0182E080
03910480
07880880
0F87F080
0F800080
0FC00100
0FE00600
0FFFF800
0C07F7F0
0803F010
1803F010
3803F010
7845F110
F845F110
F845F110
F845F110
F845F110
F845F110
F845F110
F845F110
F845F110
F845F110
F845F110
F845F110
F845F110
F845F110
F843E110
F8400110
FC200210
FC100410
FC0DD810
7E000020
7F000040
7FC00180
3FFFFE00
3FFFFC00
1FFFF800
07FFE000
00180000
ENDCHAR
STARTCHAR ubreve
ENCODING 365
SWIDTH 846 0
DWIDTH 30 0
BBX 28 41 1 -5
BITMAP
007C1F00
00822080
0182E080
03910480
07880880
0F87F080
0F800080
0FC00100
0FE00600
0FFFF800
0C07F7F0
0803F010
1803F010
3803F010
7845F110
F845F110
F845F110
F845F110
F845F110
F845F110
F845F110
F845F110
F845F110
F845F110
F845F110
F845F110
F845F110
F845F110
F843E110
F8400110
FC200210
FC100410
FC0DD810
7E000020
7F000040
7FC00180
3FFFFE00
3FFFFC00
1FFFF800
07FFE000
00180000
ENDCHAR
STARTCHAR Uring
ENCODING 366
SWIDTH 846 0
DWIDTH 30 0
BBX 28 47 1 -5
BITMAP
000DD800
00300600
0045F100
00880880
01900480
0391C480
0791E480
0F91E480
0F91E480
0F900480
0F880880
0F85D080
0F800080
0FC00100
0FE00200
0FFFFC00
0C07F7F0
0803F010
1803F010
3804F010
7845F110
F845F110
F845F110
F845F110
F845F110
F845F110
F845F110
F845F110
F845F110
F845F110
F845F110
F845F110
F845F110
F845F110
F845F110
F843E110
FC200210
FC100410
FC0DD810
7E000020
7F000040
7FC00180
3FFFFE00
3FFFFC00
1FFFF800
07FFE000
00180000
ENDCHAR
STARTCHAR uring
ENCODING 367
SWIDTH 846 0
DWIDTH 30 0
BBX 28 47 1 -5
BITMAP
000DD800
00300600
0045F100
00880880
01900480
0391C480
0791E480
0F91E480
0F91E480
0F900480
0F880880
0F85D080
0F800080
0FC00100
0FE00200
0FFFFC00
0C07F7F0
0803F010
1803F010
3804F010
7845F110
F845F110
F845F110
F845F110
F845F110
F845F110
F845F110
F845F110
F845F110
F845F110
F845F110
F845F110
F845F110
F845F110
F845F110
F843E110
FC200210
FC100410
FC0DD810
7E000020
7F000040
7FC00180
3FFFFE00
3FFFFC00
1FFFF800
07FFE000
00180000
ENDCHAR
STARTCHAR Uhungarumlaut
ENCODING 368
SWIDTH 846 0
DWIDTH 30 0
BBX 28 44 1 -5
BITMAP
001F8FC0
00205020
00607020
00C07020
01C4F240
03C4E240
03C8E240
07C8E440
0780E040
0781C080
0781C080
0F81C080
0FFFFF00
0C07F0F0
0803F010
1803F010
3844F110
7845F110
F845F110
F845F110
F845F110
F845F110
F845F110
F845F110
F845F110
F845F110
F845F110
F845F110
F845F110
F845F110
F845F110
F843E110
F8400110
FC200210
FC100410
FC0DD810
7E000020
7F000040
7FC00180
3FFFFE00
3FFFFC00
1FFFF800
07FFE000
00180000
ENDCHAR
STARTCHAR uhungarumlaut
ENCODING 369
SWIDTH 846 0
DWIDTH 30 0
BBX 28 44 1 -5
BITMAP
001F8FC0
00205020
00607020
00C07020
01C4F240
03C4E240
03C8E240
07C8E440
0780E040
0781C080
0781C080
0F81C080
0FFFFF00
0C07F0F0
0803F010
1803F010
3844F110
7845F110
F845F110
F845F110
F845F110
F845F110
F845F110
F845F110
F845F110
F845F110
F845F110
F845F110
F845F110
F845F110
F845F110
F843E110
F8400110
FC200210
FC100410
FC0DD810
7E000020
7F000040
7FC00180
3FFFFE00
3FFFFC00
1FFFF800
07FFE000
00180000
ENDCHAR
STARTCHAR Uogonek
ENCODING 370
SWIDTH 846 0
DWIDTH 30 0
BBX 28 37 1 -11
BITMAP
07FC1FF0
08043010
18047010
3844F110
7845F110
F845F110
F845F110
F845F110
F845F110
F845F110
F845F110
F845F110
F845F110
F845F110
F845F110
F845F110
F845F110
F845F110
F843E110
F8400110
FC200210
FC100410
FC0DF810
7E008020
7F008040
7FE08380
3FF89E00
3FF88400
0FF88200
07F8E200
00F80200
00FC0200
00FF0400
00FFF800
00FFF000
00FFE000
003F8000
ENDCHAR
STARTCHAR uogonek
ENCODING 371
SWIDTH 846 0
DWIDTH 30 0
BBX 28 37 1 -11
BITMAP
07FC1FF0
08043010
18047010
3844F110
7845F110
F845F110
F845F110
F845F110
F845F110
F845F110
F845F110
F845F110
F845F110
F845F110
F845F110
F845F110
F845F110
F845F110
F843E110
F8400110
FC200210
FC100410
FC0DF810
7E008020
7F008040
7FE08380
3FF89E00
3FF88400
0FF88200
07F8E200
00F80200
00FC0200
00FF0400
00FFF800
00FFF000
00FFE000
003F8000
ENDCHAR
STARTCHAR Wcircumflex
ENCODING 372
SWIDTH 931 0
DWIDTH 34 0
BBX 31 40 1 -4
BITMAP
0000F000
00070E00
00180180
0020F040
00630C40
00E00040
01E00040
03E0F040
03E7FF40
03FFFF80
0407FF7E
0807FE02
38047E02
78441E22
F8443E22
F8443E22
F8443E22
F8443E22
F844FE22
F8450622
F8460622
F8460222
F8440222
F8446222
F8409022
F8410822
F8410822
F8420422
FC426422
FC446222
FC246222
FE287144
7E10F084
7E00F004
7F00F808
3F81F810
3FFFFFE0
3FF9FFC0
1FF0FF80
1FE0FF00
ENDCHAR
STARTCHAR wcircumflex
ENCODING 373
SWIDTH 931 0
DWIDTH 34 0
BBX 31 40 1 -4
BITMAP
0000F000
00070E00
00180180
0020F040
00630C40
00E00040
01E00040
03E0F040
03E7FF40
03FFFF80
0407FF7E
0807FE02
38047E02
78441E22
F8443E22
F8443E22
F8443E22
F8443E22
F844FE22
F8450622
F8460622
F8460222
F8440222
F8446222
F8409022
F8410822
F8410822
F8420422
FC426422
FC446222
FC246222
FE287144
7E10F084
7E00F004
7F00F808
3F81F810
3FFFFFE0
3FF9FFC0
1FF0FF80
1FE0FF00
ENDCHAR
STARTCHAR Ycircumflex
ENCODING 374
SWIDTH 805 0
DWIDTH 29 0
BBX 27 40 1 -4
BITMAP
0003C000
001C3000
00600E00
0083C100
011C3100
03000100
0F000100
1F07C100
1F3FFD00
1FFFFE00
1C0FF1E0
1807E020
3807E020
7885E220
F887E220
F887E220
F887E220
F887E220
F887E220
F883C220
F843C220
F8218420
FC200840
FE101040
FE081080
FF042100
7F81C200
3FC10200
3FC10400
1FE10800
0FF10800
07F10800
03F10800
03F00800
01F00800
01F01000
01FFE000
01FFC000
01FF8000
01FE0000
ENDCHAR
STARTCHAR ycircumflex
ENCODING 375
SWIDTH 805 0
DWIDTH 29 0
BBX 27 40 1 -4
BITMAP
0003C000
001C3000
00600E00
0083C100
011C3100
03000100
0F000100
1F07C100
1F3FFD00
1FFFFE00
1C0FF1E0
1807E020
3807E020
7885E220
F887E220
F887E220
F887E220
F887E220
F887E220
F883C220
F843C220
F8218420
FC200840
FE101040
FE081080
FF042100
7F81C200
3FC10200
3FC10400
1FE10800
0FF10800
07F10800
03F10800
03F00800
01F00800
01F01000
01FFE000
01FFC000
01FF8000
01FE0000
ENDCHAR
STARTCHAR Ydieresis
ENCODING 376
SWIDTH 805 0
DWIDTH 29 0
BBX 27 39 1 -4
BITMAP
00FC7E00
02028080
06018080
0E118880
1E118880
3E018080
3E018080
3F038080
3FFFFF00
3C0FF1E0
3807E020
3807E020
7805E020
F887E220
F887E220
F887E220
F887E220
F887E220
F883C220
F843C220
F8218420
FC200840
FE101040
FE081080
FF042100
7F81C200
3FC10200
1FC10400
1FE10800
0FF10800
07F10800
03F10800
03F00800
01F00800
01F01000
01FFE000
01FFC000
01FF8000
01FE0000
ENDCHAR
STARTCHAR Zacute
ENCODING 377
SWIDTH 760 0
DWIDTH 27 0
BBX 26 39 1 -4
BITMAP
00007E00
007F8100
01800100
03003100
071FC100
0F000100
1F000E00
1F0FFC00
1FFFF000
1C000F80
18000080
18000080
387FF080
78000880
F8000880
FC001080
FFFC1080
FFF82080
FFF04100
7FE08200
00610400
00C10800
01821000
03041000
06082000
04084000
0C108000
1821FF80
38400040
78800040
F8800040
F87FFC40
F8000040
F8000040
F8000080
FFFFFF00
FFFFFE00
FFFFFC00
FFFFF800
ENDCHAR
STARTCHAR zacute
ENCODING 378
SWIDTH 760 0
DWIDTH 27 0
BBX 26 39 1 -4
BITMAP
00007E00
007F8100
01800100
03003100
071FC100
0F000100
1F000E00
1F0FFC00
1FFFF000
1C000F80
18000080
18000080
387FF080
78000880
F8000880
FC001080
FFFC1080
FFF82080
FFF04100
7FE08200
00610400
00C10800
01821000
03041000
06082000
04084000
0C108000
1821FF80
38400040
78800040
F8800040
F87FFC40
F8000040
F8000040
F8000080
FFFFFF00
FFFFFE00
FFFFFC00
FFFFF800
ENDCHAR
STARTCHAR Zdotaccent
ENCODING 379
SWIDTH 760 0
DWIDTH 27 0
BBX 26 40 1 -4
BITMAP
001FC000
00201000
00601000
00E01000
01E11000
03E11000
03E01000
03E01000
03E01000
03FFE000
04003F80
08000080
18000080
387FF080
78000880
F8000880
FC001080
FFFC1080
FFF82080
FFF04100
7FE08200
00610400
00C10800
01821000
03041000
06082000
04084000
0C108000
1821FF80
38400040
78800040
F8800040
F87FFC40
F8000040
F8000040
F8000080
FFFFFF00
FFFFFE00
FFFFFC00
FFFFF800
ENDCHAR
STARTCHAR zdotaccent
ENCODING 380
SWIDTH 760 0
DWIDTH 27 0
BBX 26 40 1 -4
BITMAP
001FC000
00201000
00601000
00E01000
01E11000
03E11000
03E01000
03E01000
03E01000
03FFE000
04003F80
08000080
18000080
387FF080
78000880
F8000880
FC001080
FFFC1080
FFF82080
FFF04100
7FE08200
00610400
00C10800
01821000
03041000
06082000
04084000
0C108000
1821FF80
38400040
78800040
F8800040
F87FFC40
F8000040
F8000040
F8000080
FFFFFF00
FFFFFE00
FFFFFC00
FFFFF800
ENDCHAR
STARTCHAR Zcaron
ENCODING 381
SWIDTH 760 0
DWIDTH 27 0
BBX 26 41 1 -4
BITMAP
00000400
01F07A00
020F8200
06000200
0E000200
1E186200
3F078200
3F000200
3FC00C00
3FF03000
3FFFE000
1C001F80
08000080
18000080
387FF080
78000880
F8000880
FC001080
FFFC1080
FFF82080
FFF04100
7FE08200
00610400
00C10800
01821000
03041000
06082000
04084000
0C108000
1821FF80
38400040
78800040
F8800040
F87FFC40
F8000040
F8000040
F8000080
FFFFFF00
FFFFFE00
FFFFFC00
FFFFF800
ENDCHAR
STARTCHAR zcaron
ENCODING 382
SWIDTH 760 0
DWIDTH 27 0
BBX 26 41 1 -4
BITMAP
00000400
01F07A00
020F8200
06000200
0E000200
1E186200
3F078200
3F000200
3FC00C00
3FF03000
3FFFE000
1C001F80
08000080
18000080
387FF080
78000880
F8000880
FC001080
FFFC1080
FFF82080
FFF04100
7FE08200
00610400
00C10800
01821000
03041000
06082000
04084000
0C108000
1821FF80
38400040
78800040
F8800040
F87FFC40
F8000040
F8000040
F8000080
FFFFFF00
FFFFFE00
FFFFFC00
FFFFF800
ENDCHAR
STARTCHAR Schwa
ENCODING 399
SWIDTH 815 0
DWIDTH 29 0
BBX 27 31 1 -5
BITMAP
00FFFE00
03000180
07000040
0F1FE820
1F000420
1F000220
1FFFE220
1FFFE220
1FFFE120
18000120
08000120
18000120
787FFE20
F8800120
F8800120
F8800120
F887E120
F887E120
F883E220
F8400220
F8400220
F8300C20
FC0BD020
FE000040
FF000080
FFC00300
7FFFFE00
7FFFFC00
1FFFF000
0FFFC000
00300000
ENDCHAR
STARTCHAR florin
ENCODING 402
SWIDTH 674 0
DWIDTH 24 0
BBX 23 30 1 -4
BITMAP
0007FC
001802
002002
0041E2
00C202
01C402
038402
07843C
078430
0F843C
080402
180402
38FFE2
780402
F80402
F80402
FF843C
FF8430
FF8420
F80440
180440
380840
78D080
F80080
F80300
F80C00
FFF800
FFF000
FFE000
FF0000
ENDCHAR
STARTCHAR Ohorn
ENCODING 416
SWIDTH 847 0
DWIDTH 30 0
BBX 30 35 1 -5
BITMAP
000001F8
00000204
00000204
000FFE04
00700024
01800024
020FD044
04100E88
0C200210
38400110
7843E110
7847E110
F847E110
F847E110
F847E110
F847E110
F847E110
F847E110
F847E110
F847E110
F847E110
F847E110
F843E110
F8400110
F8200210
FC100410
FC0DD810
FE000020
FF000040
7FC00380
7FFFFE00
3FFFFC00
1FFFF800
0FFFE000
00180000
ENDCHAR
STARTCHAR ohorn
ENCODING 417
SWIDTH 847 0
DWIDTH 30 0
BBX 30 35 1 -5
BITMAP
000001F8
00000204
00000204
000FFE04
00700024
01800024
020FD044
04100E88
0C200210
38400110
7843E110
7847E110
F847E110
F847E110
F847E110
F847E110
F847E110
F847E110
F847E110
F847E110
F847E110
F847E110
F843E110
F8400110
F8200210
FC100410
FC0DD810
FE000020
FF000040
7FC00380
7FFFFE00
3FFFFC00
1FFFF800
0FFFE000
00180000
ENDCHAR
STARTCHAR Uhorn
ENCODING 431
SWIDTH 856 0
DWIDTH 31 0
BBX 30 35 1 -5
BITMAP
000000F8
00000104
00000304
00000F04
07FC1024
08043024
18047024
3844F1C4
7845F108
F845F110
F845F110
F845F110
F845F110
F845F110
F845F110
F845F110
F845F110
F845F110
F845F110
F845F110
F845F110
F845F110
F843E110
F8400110
FC200210
FC100410
FC0DD810
FE000020
7F000040
7FC00180
7FFFFE00
3FFFFC00
1FFFF800
07FFE000
00180000
ENDCHAR
STARTCHAR uhorn
ENCODING 432
SWIDTH 856 0
DWIDTH 31 0
BBX 30 35 1 -5
BITMAP
000000F8
00000104
00000304
00000F04
07FC1024
08043024
18047024
3844F1C4
7845F108
F845F110
F845F110
F845F110
F845F110
F845F110
F845F110
F845F110
F845F110
F845F110
F845F110
F845F110
F845F110
F845F110
F843E110
F8400110
FC200210
FC100410
FC0DD810
FE000020
7F000040
7FC00180
7FFFFE00
3FFFFC00
1FFFF800
07FFE000
00180000
ENDCHAR
STARTCHAR Acaron
ENCODING 461
SWIDTH 830 0
DWIDTH 30 0
BBX 28 41 1 -4
BITMAP
00400200
00BC1D00
0183E100
03800100
07800100
0F8C3900
0F83C100
0F800100
0FE00600
0FF81C00
0FFFF800
0FE00600
03C00100
01800100
0387E100
07081080
0F080880
0F100840
0E118440
1E21C440
1E23C420
1C23C220
3C43E220
3847E110
78400110
78400110
78400110
F87FFF10
F8400110
F8400110
F8400110
F847E110
F847E110
F847E110
F807E010
F807E010
FC0BF010
FFF3FFE0
FFE3FF80
FFC3FF00
FF01FE00
ENDCHAR
STARTCHAR acaron
ENCODING 462
SWIDTH 830 0
DWIDTH 30 0
BBX 28 41 1 -4
BITMAP
00400200
00BC1D00
0183E100
03800100
07800100
0F8C3900
0F83C100
0F800100
0FE00600
0FF81C00
0FFFF800
0FE00600
03C00100
01800100
0387E100
07081080
0F080880
0F100840
0E118440
1E21C440
1E23C420
1C23C220
3C43E220
3847E110
78400110
78400110
78400110
F87FFF10
F8400110
F8400110
F8400110
F847E110
F847E110
F847E110
F807E010
F807E010
FC0BF010
FFF3FFE0
FFE3FF80
FFC3FF00
FF01FE00
ENDCHAR
STARTCHAR Icaron
ENCODING 463
SWIDTH 705 0
DWIDTH 25 0
BBX 23 41 1 -4
BITMAP
000008
03E0F4
041F04
0C0004
1C0004
3C30C4
7E0F04
7E0004
7F8018
7FE060
7FFFC0
3C003E
080002
380002
78FFF2
F80202
F80202
FFC23E
FFC23C
FFC238
FFC220
FFC220
07C220
07C220
07C220
07C220
07C220
07C220
07C220
07C23C
080202
180202
380202
78FFF2
F80002
F80002
FC0002
FFFFFC
FFFFF8
FFFFF0
FFFFC0
ENDCHAR
STARTCHAR icaron
ENCODING 464
SWIDTH 705 0
DWIDTH 25 0
BBX 23 41 1 -4
BITMAP
000008
03E0F4
041F04
0C0004
1C0004
3C30C4
7E0F04
7E0004
7F8018
7FE060
7FFFC0
3C003E
080002
380002
78FFF2
F80202
F80202
FFC23E
FFC23C
FFC238
FFC220
FFC220
07C220
07C220
07C220
07C220
07C220
07C220
07C220
07C23C
080202
180202
380202
78FFF2
F80002
F80002
FC0002
FFFFFC
FFFFF8
FFFFF0
FFFFC0
ENDCHAR
STARTCHAR Ocaron
ENCODING 465
SWIDTH 837 0
DWIDTH 30 0
BBX 28 42 1 -5
BITMAP
00400300
00BC1C80
0183E080
03800080
07800080
0F8E3880
0F81C080
0F800100
0FE00600
0FFC1C00
0FFFF800
0FE00700
010000C0
020FD020
0C100C20
1C200210
3C400110
7843E110
7847E110
F847E110
F847E110
F847E110
F847E110
F847E110
F847E110
F847E110
F847E110
F847E110
F847E110
F843E110
F8400110
F8200210
FC100C10
FC0DD010
FE000020
7F000040
7FC00180
7FFFFE00
3FFFFC00
1FFFF800
07FFE000
00180000
ENDCHAR
STARTCHAR ocaron
ENCODING 466
SWIDTH 837 0
DWIDTH 30 0
BBX 28 42 1 -5
BITMAP
00400300
00BC1C80
0183E080
03800080
07800080
0F8E3880
0F81C080
0F800100
0FE00600
0FFC1C00
0FFFF800
0FE00700
010000C0
020FD020
0C100C20
1C200210
3C400110
7843E110
7847E110
F847E110
F847E110
F847E110
F847E110
F847E110
F847E110
F847E110
F847E110
F847E110
F847E110
F843E110
F8400110
F8200210
FC100C10
FC0DD010
FE000020
7F000040
7FC00180
7FFFFE00
3FFFFC00
1FFFF800
07FFE000
00180000
ENDCHAR
STARTCHAR Ucaron
ENCODING 467
SWIDTH 846 0
DWIDTH 30 0
BBX 28 42 1 -5
BITMAP
00000300
00781C80
0087E080
01800080
03800080
078E3880
0F81C080
0FC00100
0FF00200
0FFC1C00
0FFFF800
0C07F7F0
0803F010
18027010
3844F110
7845F110
F845F110
F845F110
F845F110
F845F110
F845F110
F845F110
F845F110
F845F110
F845F110
F845F110
F845F110
F845F110
F845F110
F843E110
F8400110
FC200210
FC100410
FC0DD810
7E000020
7F000040
7FC00180
3FFFFE00
3FFFFC00
1FFFF800
07FFE000
00180000
ENDCHAR
STARTCHAR ucaron
ENCODING 468
SWIDTH 846 0
DWIDTH 30 0
BBX 28 42 1 -5
BITMAP
00000300
00781C80
0087E080
01800080
03800080
078E3880
0F81C080
0FC00100
0FF00200
0FFC1C00
0FFFF800
0C07F7F0
0803F010
18027010
3844F110
7845F110
F845F110
F845F110
F845F110
F845F110
F845F110
F845F110
F845F110
F845F110
F845F110
F845F110
F845F110
F845F110
F845F110
F843E110
F8400110
FC200210
FC100410
FC0DD810
7E000020
7F000040
7FC00180
3FFFFE00
3FFFFC00
1FFFF800
07FFE000
00180000
ENDCHAR
STARTCHAR Udieresismacron
ENCODING 469
SWIDTH 846 0
DWIDTH 30 0
BBX 28 48 1 -5
BITMAP
007FFE00
00800080
01800080
03800080
078FF880
0F800080
0F800100
0FFFFE00
0F01C180
0F008080
0F008080
07108480
0F108480
1F008080
1F008080
1F01C080
1FFFFF00
1C07F0F0
1803F010
3803F010
7844F110
F845F110
F845F110
F845F110
F845F110
F845F110
F845F110
F845F110
F845F110
F845F110
F845F110
F845F110
F845F110
F845F110
F845F110
F843E110
F8400110
FC200210
FC100410
FC0DD810
7E000020
7F000040
7FC00180
3FFFFE00
3FFFFC00
0FFFF800
07FFE000
00180000
ENDCHAR
STARTCHAR udieresismacron
ENCODING 470
SWIDTH 846 0
DWIDTH 30 0
BBX 28 48 1 -5
BITMAP
007FFE00
00800080
01800080
03800080
078FF880
0F800080
0F800100
0FFFFE00
0F01C180
0F008080
0F008080
07108480
0F108480
1F008080
1F008080
1F01C080
1FFFFF00
1C07F0F0
1803F010
3803F010
7844F110
F845F110
F845F110
F845F110
F845F110
F845F110
F845F110
F845F110
F845F110
F845F110
F845F110
F845F110
F845F110
F845F110
F845F110
F843E110
F8400110
FC200210
FC100410
FC0DD810
7E000020
7F000040
7FC00180
3FFFFE00
3FFFFC00
0FFFF800
07FFE000
00180000
ENDCHAR
STARTCHAR Udieresisacute
ENCODING 471
SWIDTH 846 0
DWIDTH 30 0
BBX 28 48 1 -5
BITMAP
0000FC00
00030400
00040400
001CE400
003C0400
007C0400
007C0800
007CF000
00FFFF00
0101C080
03008080
07108480
0F108480
1F008080
1F008080
1F01C080
1FFFFF00
1C07F0F0
1803F010
3803F010
7844F110
F845F110
F845F110
F845F110
F845F110
F845F110
F845F110
F845F110
F845F110
F845F110
F845F110
F845F110
F845F110
F845F110
F845F110
F843E110
F8400110
FC200210
FC100410
FC0DD810
7E000020
7F000040
7FC00180
3FFFFE00
3FFFFC00
1FFFF800
07FFE000
00180000
ENDCHAR
STARTCHAR udieresisacute
ENCODING 472
SWIDTH 846 0
DWIDTH 30 0
BBX 28 48 1 -5
BITMAP
0000FC00
00030400
00040400
001CE400
003C0400
007C0400
007C0800
007CF000
00FFFF00
0101C080
03008080
07108480
0F108480
1F008080
1F008080
1F01C080
1FFFFF00
1C07F0F0
1803F010
3803F010
7844F110
F845F110
F845F110
F845F110
F845F110
F845F110
F845F110
F845F110
F845F110
F845F110
F845F110
F845F110
F845F110
F845F110
F845F110
F843E110
F8400110
FC200210
FC100410
FC0DD810
7E000020
7F000040
7FC00180
3FFFFE00
3FFFFC00
1FFFF800
07FFE000
00180000
ENDCHAR
STARTCHAR Udieresiscaron
ENCODING 473
SWIDTH 846 0
DWIDTH 30 0
BBX 28 50 1 -5
BITMAP
00000300
00FC1C80
0083E080
01800080
07800080
0F8E3880
0F81C080
0FC00100
0FF80E00
0FFE3800
0FFFFF00
0701C080
03008080
07108480
0F108480
1F008080
1F008080
1F01C080
1FFFFF00
1C07F0F0
1803F010
3803F010
7844F110
F845F110
F845F110
F845F110
F845F110
F845F110
F845F110
F845F110
F845F110
F845F110
F845F110
F845F110
F845F110
F845F110
F845F110
F843E110
F8400110
FC200210
FC100410
FC0DD810
7E000020
7F000040
7FC00180
3FFFFE00
3FFFFC00
1FFFF800
07FFE000
00180000
ENDCHAR
STARTCHAR udieresiscaron
ENCODING 474
SWIDTH 846 0
DWIDTH 30 0
BBX 28 50 1 -5
BITMAP
00000300
00FC1C80
0083E080
01800080
07800080
0F8E3880
0F81C080
0FC00100
0FF80E00
0FFE3800
0FFFFF00
0701C080
03008080
07108480
0F108480
1F008080
1F008080
1F01C080
1FFFFF00
1C07F0F0
1803F010
3803F010
7844F110
F845F110
F845F110
F845F110
F845F110
F845F110
F845F110
F845F110
F845F110
F845F110
F845F110
F845F110
F845F110
F845F110
F845F110
F843E110
F8400110
FC200210
FC100410
FC0DD810
7E000020
7F000040
7FC00180
3FFFFE00
3FFFFC00
1FFFF800
07FFE000
00180000
ENDCHAR
STARTCHAR Udieresisgrave
ENCODING 475
SWIDTH 846 0
DWIDTH 30 0
BBX 28 48 1 -5
BITMAP
000FC000
00103000
00701000
00F18800
01F04800
01F00800
01FC1000
01FFD000
01FFFF00
0101C080
03008080
07108480
0F108480
1F008080
1F008080
1F01C080
1FFFFF00
1C07F0F0
1803F010
3803F010
7844F110
F845F110
F845F110
F845F110
F845F110
F845F110
F845F110
F845F110
F845F110
F845F110
F845F110
F845F110
F845F110
F845F110
F845F110
F843E110
F8400110
FC200210
FC100410
FC0DD810
7E000020
7F000040
7FC00180
3FFFFE00
3FFFFC00
1FFFF800
07FFE000
00180000
ENDCHAR
STARTCHAR udieresisgrave
ENCODING 476
SWIDTH 846 0
DWIDTH 30 0
BBX 28 48 1 -5
BITMAP
000FC000
00103000
00701000
00F18800
01F04800
01F00800
01FC1000
01FFD000
01FFFF00
0101C080
03008080
07108480
0F108480
1F008080
1F008080
1F01C080
1FFFFF00
1C07F0F0
1803F010
3803F010
7844F110
F845F110
F845F110
F845F110
F845F110
F845F110
F845F110
F845F110
F845F110
F845F110
F845F110
F845F110
F845F110
F845F110
F845F110
F843E110
F8400110
FC200210
FC100410
FC0DD810
7E000020
7F000040
7FC00180
3FFFFE00
3FFFFC00
1FFFF800
07FFE000
00180000
ENDCHAR
STARTCHAR Gcaron
ENCODING 486
SWIDTH 808 0
DWIDTH 29 0
BBX 27 41 1 -4
BITMAP
00000200
00F83D00
0107C100
03000100
07000100
0F0C3100
1F03C100
1F800300
1FE00400
1FF81800
1FFFF000
0FF80F00
03000080
02000080
041FF880
0C200080
18400080
38400080
7843FF00
7847FC00
F847F800
F847F000
F8441FC0
F8442020
F8446020
F845E020
F847E220
F847E220
F847E220
F843E220
F8400220
F8400220
FC300220
FC0FFE20
FE000020
7F000020
7FF00020
3FFFFFC0
3FFFFF00
1FFFFE00
03FFFC00
ENDCHAR
STARTCHAR gcaron
ENCODING 487
SWIDTH 808 0
DWIDTH 29 0
BBX 27 41 1 -4
BITMAP
00000200
00F83D00
0107C100
03000100
07000100
0F0C3100
1F03C100
1F800300
1FE00400
1FF81800
1FFFF000
0FF80F00
03000080
02000080
041FF880
0C200080
18400080
38400080
7843FF00
7847FC00
F847F800
F847F000
F8441FC0
F8442020
F8446020
F845E020
F847E220
F847E220
F847E220
F843E220
F8400220
F8400220
FC300220
FC0FFE20
FE000020
7F000020
7FF00020
3FFFFFC0
3FFFFF00
1FFFFE00
03FFFC00
ENDCHAR
STARTCHAR Scommaaccent
ENCODING 536
SWIDTH 750 0
DWIDTH 27 0
BBX 25 43 1 -17
BITMAP
00FFFF00
01000100
02000100
0C1FF900
18600100
38400100
78400100
7847FE00
F847FC00
F8401C00
F8400200
F8600180
F81F0080
FC00F080
FE000880
FF000880
FFFC0880
7FFF8880
3FFF8880
18000880
18000880
38001080
78FFC080
F8000100
F8000200
FFFFFC00
FFFFF800
FFE01000
FFE01000
FFE01000
01E79000
03E05000
03E05000
03E05000
03FE5000
03F09000
03E71000
03E02000
01FFC000
03FF0000
03FE0000
03FC0000
01F80000
ENDCHAR
STARTCHAR scommaaccent
ENCODING 537
SWIDTH 750 0
DWIDTH 27 0
BBX 25 43 1 -17
BITMAP
00FFFF00
01000100
02000100
0C1FF900
18600100
38400100
78400100
7847FE00
F847FC00
F8401C00
F8400200
F8600180
F81F0080
FC00F080
FE000880
FF000880
FFFC0880
7FFF8880
3FFF8880
18000880
18000880
38001080
78FFC080
F8000100
F8000200
FFFFFC00
FFFFF800
FFE01000
FFE01000
FFE01000
01E79000
03E05000
03E05000
03E05000
03FE5000
03F09000
03E71000
03E02000
01FFC000
03FF0000
03FE0000
03FC0000
01F80000
ENDCHAR
STARTCHAR uni021A
ENCODING 538
SWIDTH 756 0
DWIDTH 27 0
BBX 27 43 0 -17
BITMAP
07FFFFE0
08000020
18000020
78FFFF20
F8010020
F8010020
FC010020
FFF10FC0
FFF10F80
FFF10E00
FFF10C00
01F10800
01F10800
01F10800
01F10800
01F10800
01F10800
01F10800
01F10800
01F10800
01F10800
01F10800
01F00800
01F00800
01F00800
01FFF000
01FFF000
01F00800
01F00800
01F00800
00F3C800
01F04800
01F04800
01F04800
01FF4800
01F04800
01F39000
01F03000
00FFC000
01FF8000
01FF0000
01FE0000
01F80000
ENDCHAR
STARTCHAR uni021B
ENCODING 539
SWIDTH 756 0
DWIDTH 27 0
BBX 27 43 0 -17
BITMAP
07FFFFE0
08000020
18000020
78FFFF20
F8010020
F8010020
FC010020
FFF10FC0
FFF10F80
FFF10E00
FFF10C00
01F10800
01F10800
01F10800
01F10800
01F10800
01F10800
01F10800
01F10800
01F10800
01F10800
01F10800
01F00800
01F00800
01F00800
01FFF000
01FFF000
01F00800
01F00800
01F00800
00F3C800
01F04800
01F04800
01F04800
01FF4800
01F04800
01F39000
01F03000
00FFC000
01FF8000
01FF0000
01FE0000
01F80000
ENDCHAR
STARTCHAR dotlessj
ENCODING 567
SWIDTH 788 0
DWIDTH 28 0
BBX 26 31 1 -5
BITMAP
00007FC0
00008040
00018040
00078440
000F8440
000F8440
000F8440
000F8440
000F8440
000F8440
000F8440
07FF8440
080F8440
180F8440
780F8440
F88F8440
F88F8440
F88F8440
F8878440
F8800440
F8400840
F8201040
F81BA040
FC000080
FE000100
FF800600
7FFFF800
7FFFF000
1FFFE000
0FFF8000
00600000
ENDCHAR
STARTCHAR ascript
ENCODING 593
SWIDTH 846 0
DWIDTH 30 0
BBX 28 31 1 -4
BITMAP
000FF800
00700700
018000C0
020FD020
04100C20
0C200210
38400110
7843E110
7847E110
F847E110
F847E110
F847E110
F847E110
F847E110
F847E110
F847E110
F847E110
F847E110
F847E110
F841E110
F8400110
F8400110
FC300110
FC0FFF10
FE000010
FF000010
7FF00010
7FFFFFE0
3FFFFF80
1FFFFF00
07FFFE00
ENDCHAR
STARTCHAR schwa
ENCODING 601
SWIDTH 815 0
DWIDTH 29 0
BBX 27 31 1 -5
BITMAP
00FFFE00
03000180
07000040
0F1FE820
1F000420
1F000220
1FFFE220
1FFFE220
1FFFE120
18000120
08000120
18000120
787FFE20
F8800120
F8800120
F8800120
F887E120
F887E120
F883E220
F8400220
F8400220
F8300C20
FC0BD020
FE000040
FF000080
FFC00300
7FFFFE00
7FFFFC00
1FFFF000
0FFFC000
00300000
ENDCHAR
STARTCHAR gscript
ENCODING 609
SWIDTH 815 0
DWIDTH 29 0
BBX 28 34 1 -7
BITMAP
000FF000
00F00F00
01000080
02000040
040FF820
08300420
38400210
78400210
7847E110
F847E110
F847E110
F847E110
F847E110
F8400110
F8400110
F8200110
FC1FFE10
FC000110
FE000110
FFC00110
7FFFE110
7FFFE110
3FFFE110
0F000210
03000210
07000420
0F1FF820
1F000040
1F000080
1F800700
1FFFFC00
1FFFF800
1FFFF000
1FFFC000
ENDCHAR
STARTCHAR commaturnedmod
ENCODING 699
SWIDTH 600 0
DWIDTH 22 0
BBX 14 16 4 10
BITMAP
01F8
0604
08E4
1908
3970
790C
F904
F904
F9E4
F804
F804
F804
FFF8
FFE0
FFC0
FF80
ENDCHAR
STARTCHAR apostrophemod
ENCODING 700
SWIDTH 600 0
DWIDTH 22 0
BBX 14 17 4 9
BITMAP
07F8
0804
1804
3804
79E4
F814
F814
F814
FF94
FC24
F9C8
F810
7FE0
FFC0
FF80
FF00
7800
ENDCHAR
STARTCHAR ringhalfright
ENCODING 702
SWIDTH 412 0
DWIDTH 15 0
BBX 15 17 0 9
BITMAP
07F8
0804
18E2
3812
7812
FF92
FF92
FF92
FF12
0812
18E2
3804
F808
FFF0
FFE0
FF80
FF00
ENDCHAR
STARTCHAR ringhalfleft
ENCODING 703
SWIDTH 412 0
DWIDTH 15 0
BBX 15 17 0 9
BITMAP
03FE
0402
0C72
1882
3882
789C
F898
F890
F89C
F882
F872
FC02
FF02
FFFC
FFF0
7FE0
3FC0
ENDCHAR
STARTCHAR circumflex
ENCODING 710
SWIDTH 600 0
DWIDTH 22 0
BBX 20 13 1 23
BITMAP
003C00
01C380
060060
083C10
18C310
780010
F80010
F87F10
FFFFF0
FFFFE0
FFFF80
F83F00
C00600
ENDCHAR
STARTCHAR caron
ENCODING 711
SWIDTH 600 0
DWIDTH 22 0
BBX 20 14 1 22
BITMAP
000020
0FC3D0
183C10
380010
780010
F8C310
F83C10
FC0020
FF81C0
FFFF80
FFFF00
FFFC00
1FF000
038000
ENDCHAR
STARTCHAR verticallinemod
ENCODING 712
SWIDTH 456 0
DWIDTH 16 0
BBX 14 18 1 8
BITMAP
07FC
0804
1804
3804
7844
F844
F844
F844
F844
F844
F844
F804
F804
FC04
FFF8
FFF0
FFE0
FFC0
ENDCHAR
STARTCHAR firsttonechinese
ENCODING 713
SWIDTH 600 0
DWIDTH 22 0
BBX 20 11 1 23
BITMAP
07FFE0
080010
180010
78FF10
F80010
F80010
F80010
FFFFE0
FFFF80
FFFF00
FFFE00
ENDCHAR
STARTCHAR secondtonechinese
ENCODING 714
SWIDTH 600 0
DWIDTH 22 0
BBX 20 12 1 23
BITMAP
003FF0
07C010
080010
180F10
78F010
F80010
F800E0
F9FFC0
FFFF80
FFFF00
FFF800
F80000
ENDCHAR
STARTCHAR fourthtonechinese
ENCODING 715
SWIDTH 600 0
DWIDTH 22 0
BBX 20 12 1 23
BITMAP
0FFC00
1803E0
380010
78F810
F80710
F80010
FF8010
FFFF90
FFFFE0
FFFFC0
7FFF00
007E00
ENDCHAR
STARTCHAR verticallinelowmod
ENCODING 716
SWIDTH 456 0
DWIDTH 16 0
BBX 14 18 1 -9
BITMAP
07FC
0804
1804
3804
7844
F844
F844
F844
F844
F844
F844
F804
F804
FC04
FFF8
FFF0
FFE0
FFC0
ENDCHAR
STARTCHAR breve
ENCODING 728
SWIDTH 600 0
DWIDTH 22 0
BBX 21 13 0 22
BITMAP
03E1F0
0C1208
181608
388828
78C048
FC3E88
FC0008
FF0010
FFFFE0
7FFF80
7FFF00
3FFE00
0FF800
ENDCHAR
STARTCHAR dotaccent
ENCODING 729
SWIDTH 600 0
DWIDTH 22 0
BBX 14 12 4 23
BITMAP
07F8
0804
1804
3844
7844
F804
F804
FC04
FFF8
FFE0
FFC0
FF80
ENDCHAR
STARTCHAR ring
ENCODING 730
SWIDTH 600 0
DWIDTH 22 0
BBX 21 19 0 22
BITMAP
005E80
018070
020008
043F88
184048
388048
789E28
789E28
F89E28
F89E48
F84048
FC3E88
FC0008
FF0010
FFFFE0
7FFF80
7FFF00
3FFE00
0FF800
ENDCHAR
STARTCHAR ogonek
ENCODING 731
SWIDTH 600 0
DWIDTH 22 0
BBX 14 14 4 -11
BITMAP
03F0
0C90
1C90
3890
7898
7884
78E4
F804
FC04
FF04
FFF8
FFF0
7FE0
3FC0
ENDCHAR
STARTCHAR tilde
ENCODING 732
SWIDTH 600 0
DWIDTH 22 0
BBX 20 12 1 22
BITMAP
07FE60
080190
180010
38F810
780710
F80010
F80010
FFFFE0
FFFFC0
FFFF00
FFFE00
C1FC00
ENDCHAR
STARTCHAR hungarumlaut
ENCODING 733
SWIDTH 600 0
DWIDTH 22 0
BBX 23 15 -1 23
BITMAP
01F87C
020482
060702
0E0702
1C4722
3C4E24
3C8E24
3C0E04
780E04
781C08
7C1E08
7FFFF0
FFBFC0
FF7F80
FE3F00
ENDCHAR
STARTCHAR gravecmb
ENCODING 768
SWIDTH 100 0
DWIDTH 4 0
BBX 20 12 -8 23
BITMAP
0FFC00
1803E0
380010
78F810
F80710
F80010
FF8010
FFFF90
FFFFE0
FFFFC0
7FFF00
007E00
ENDCHAR
STARTCHAR acutecmb
ENCODING 769
SWIDTH 100 0
DWIDTH 4 0
BBX 20 12 -8 23
BITMAP
003FF0
07C010
080010
180F10
78F010
F80010
F800E0
F9FFC0
FFFF80
FFFF00
FFF800
F80000
ENDCHAR
STARTCHAR circumflexcmb
ENCODING 770
SWIDTH 100 0
DWIDTH 4 0
BBX 20 13 -8 23
BITMAP
003C00
01C380
060060
083C10
18C310
780010
F80010
F87F10
FFFFF0
FFFFE0
FFFF80
F83F00
C00600
ENDCHAR
STARTCHAR tildecmb
ENCODING 771
SWIDTH 100 0
DWIDTH 4 0
BBX 20 12 -8 22
BITMAP
07FE60
080190
180010
38F810
780710
F80010
F80010
FFFFE0
FFFFC0
FFFF00
FFFE00
C1FC00
ENDCHAR
STARTCHAR uni0304
ENCODING 772
SWIDTH 600 0
DWIDTH 22 0
BBX 20 11 1 23
BITMAP
07FFE0
080010
180010
78FF10
F80010
F80010
F80010
FFFFE0
FFFF80
FFFF00
FFFE00
ENDCHAR
STARTCHAR brevecmb
ENCODING 774
SWIDTH 100 0
DWIDTH 4 0
BBX 21 13 -9 22
BITMAP
03E1F0
0C1208
181608
388828
78C048
FC3E88
FC0008
FF0010
FFFFE0
7FFF80
7FFF00
3FFE00
0FF800
ENDCHAR
STARTCHAR dotaccentcmb
ENCODING 775
SWIDTH 100 0
DWIDTH 4 0
BBX 14 12 -5 23
BITMAP
07F8
0804
1804
3844
7844
F804
F804
FC08
FFF0
FFE0
FFC0
FF80
ENDCHAR
STARTCHAR dieresiscmb
ENCODING 776
SWIDTH 100 0
DWIDTH 4 0
BBX 22 12 -9 23
BITMAP
07F3F8
080C04
180C04
388C44
F88C44
F80C04
F80C04
F80E04
FFFFF8
FFFFE0
FFFFC0
FF7F80
ENDCHAR
STARTCHAR hookcmb
ENCODING 777
SWIDTH 100 0
DWIDTH 4 0
BBX 16 15 -5 22
BITMAP
07FC
0802
19F1
7805
FFE5
FFE5
FE05
FEF9
7E01
3E06
7FF8
3FF0
3FE0
3F80
2000
ENDCHAR
STARTCHAR ringcmb
ENCODING 778
SWIDTH 100 0
DWIDTH 4 0
BBX 21 19 -9 22
BITMAP
005E80
018070
020008
043F88
184048
388048
789E28
789E28
F89E28
F89E48
F84048
FC3E88
FC0008
FF0010
FFFFE0
7FFF80
7FFF00
3FFE00
0FF800
ENDCHAR
STARTCHAR hungarumlautcmb
ENCODING 779
SWIDTH 100 0
DWIDTH 4 0
BBX 24 15 -9 23
BITMAP
00F87C
010481
060581
0E0702
1E4712
3E4712
3C4722
3C0E04
3C0E04
7C0E04
7C1E08
7FFFF0
7FBFE0
FF3FC0
7E3F00
ENDCHAR
STARTCHAR caroncmb
ENCODING 780
SWIDTH 100 0
DWIDTH 4 0
BBX 20 14 -8 22
BITMAP
000020
0FC3D0
183C10
380010
780010
F8C310
F83C10
FC0020
FF81C0
FFFF80
FFFF00
FFFC00
1FF000
038000
ENDCHAR
STARTCHAR horncmb
ENCODING 795
SWIDTH 100 0
DWIDTH 4 0
BBX 13 13 -5 16
BITMAP
03F0
0408
0C08
1848
7888
7888
7B10
F820
FBC0
FF80
FF00
FC00
F000
ENDCHAR
STARTCHAR dotbelowcmb
ENCODING 803
SWIDTH 100 0
DWIDTH 4 0
BBX 14 12 -5 -13
BITMAP
07F8
0804
1804
3844
7844
F804
F804
FC08
FFF0
FFE0
FFC0
FF80
ENDCHAR
STARTCHAR dieresisbelowcmb
ENCODING 804
SWIDTH 100 0
DWIDTH 4 0
BBX 22 12 -9 -13
BITMAP
07F3F8
080C04
180C04
388C44
F88C44
F80C04
F80C04
F80E04
FFFFF8
FFFFE0
FFFFC0
FF7F80
ENDCHAR
STARTCHAR commaaccent
ENCODING 806
SWIDTH 600 0
DWIDTH 22 0
BBX 14 17 4 -18
BITMAP
07F8
0804
1804
3804
79E4
F814
F814
F814
FF94
FC24
F9C8
F810
7FE0
FFC0
FF80
FF00
7800
ENDCHAR
STARTCHAR cedillacmb
ENCODING 807
SWIDTH 100 0
DWIDTH 4 0
BBX 15 15 -6 -9
BITMAP
00F0
010C
0702
0E22
1E22
1E22
1C44
3C44
3804
7808
7C10
7FE0
FFC0
FF80
FF00
ENDCHAR
STARTCHAR ogonekcmb
ENCODING 808
SWIDTH 100 0
DWIDTH 4 0
BBX 14 14 -4 -11
BITMAP
07F0
0C90
1890
3890
7918
7904
F8E4
F804
F804
FE04
FFF8
FFF0
FFC0
7F80
ENDCHAR
STARTCHAR brevebelowcmb
ENCODING 814
SWIDTH 100 0
DWIDTH 4 0
BBX 21 13 -9 -15
BITMAP
03E1F0
0C1208
181608
388828
78C048
FC3E88
FC0008
FF0010
FFFFE0
7FFF80
7FFF00
3FFE00
0FF800
ENDCHAR
STARTCHAR macronbelowcmb
ENCODING 817
SWIDTH 100 0
DWIDTH 4 0
BBX 20 11 -8 -12
BITMAP
07FFE0
080010
180010
78FF10
F80010
F80010
F80010
FFFFE0
FFFF80
FFFF00
FFFE00
ENDCHAR
STARTCHAR uni0394
ENCODING 916
SWIDTH 830 0
DWIDTH 30 0
BBX 28 30 1 -4
BITMAP
007FFE00
00800100
01800100
0383E080
07081080
0F100880
0F100880
0F118840
1E118440
1E21C440
1E21C440
1E23C420
3C23C220
3C23C220
3C43E220
3C47E210
7847E110
7847E110
7847E110
78400110
F8400110
F8400110
F87FFE10
F8000010
F8000010
F8000010
FFFFFFE0
FFFFFFC0
FFFFFF00
FFFFFE00
ENDCHAR
STARTCHAR uni03A9
ENCODING 937
SWIDTH 877 0
DWIDTH 32 0
BBX 31 31 0 -4
BITMAP
000FFF80
00700060
00800010
0100F008
03070E08
06080184
0E100084
1E106044
3E11F844
3E11F844
3E11F844
3E11F844
3E11F844
3E11F844
3E11F844
3E11F844
3E11F844
3E11F844
3E11F844
3F11F84C
3C107082
38086102
38046202
387C63F2
78006002
F8006002
FC006002
FFFFFFFC
FFFFFFF8
FFFFFFF0
7FFBFFE0
ENDCHAR
STARTCHAR uni03BC
ENCODING 956
SWIDTH 813 0
DWIDTH 29 0
BBX 27 29 1 -7
BITMAP
03F81FC0
0C042020
18046020
3804E020
7843E220
F843E220
F843E220
F843E220
F843E220
F843E220
F843E220
F843E220
F843E220
F843E220
F843C220
F8400220
F8600420
F8500820
F84FD020
F8400040
F8400080
F8000700
F803FE00
F803F800
FC07F000
FFFFC000
FFF80000
FFC00000
7F800000
ENDCHAR
STARTCHAR pi
ENCODING 960
SWIDTH 821 0
DWIDTH 30 0
BBX 27 25 1 -4
BITMAP
07FFFFE0
08000020
18000020
383FFC20
78400220
F8400220
F8400220
F843E220
F843E220
F843E220
F843E220
F843E220
F843E220
F843E220
F843E220
F843E220
F843E220
F843E220
F803E020
F803E020
FC07E020
FFFBFFC0
FFF3FF80
FFC3FF00
FF83FE00
ENDCHAR
STARTCHAR Ddotbelow
ENCODING 7692
SWIDTH 846 0
DWIDTH 30 0
BBX 27 39 2 -13
BITMAP
07FFFE00
18000180
38000040
787FF020
F8800C20
F8800220
F8800220
F887E220
F887E220
F887E220
F887E220
F88BE220
F88BE220
F88BE220
F88BE220
F88BE220
F88BE220
F88BE220
F887C220
F8800220
F8800220
F8800420
F87FF820
F8000040
F8000080
F8000700
FFFFFC00
FFF01800
FFE01000
FFE01000
00E11000
01E11000
03E01000
03E01000
03F01000
03FFE000
03FF8000
03FF0000
01FE0000
ENDCHAR
STARTCHAR ddotbelow
ENCODING 7693
SWIDTH 846 0
DWIDTH 30 0
BBX 27 39 2 -13
BITMAP
07FFFE00
18000180
38000040
787FF020
F8800C20
F8800220
F8800220
F887E220
F887E220
F887E220
F887E220
F88BE220
F88BE220
F88BE220
F88BE220
F88BE220
F88BE220
F88BE220
F887C220
F8800220
F8800220
F8800420
F87FF820
F8000040
F8000080
F8000700
FFFFFC00
FFF01800
FFE01000
FFE01000
00E11000
01E11000
03E01000
03E01000
03F01000
03FFE000
03FF8000
03FF0000
01FE0000
ENDCHAR
STARTCHAR Dlinebelow
ENCODING 7694
SWIDTH 846 0
DWIDTH 30 0
BBX 27 38 2 -12
BITMAP
07FFFE00
18000180
38000040
787FF020
F8800C20
F8800220
F8800220
F887E220
F887E220
F887E220
F887E220
F88BE220
F88BE220
F88BE220
F88BE220
F88BE220
F88BE220
F88BE220
F887C220
F8800220
F8800220
F8800420
F87FF820
F8000040
F8000080
F8000300
FFFFFE00
FFFFFC00
FF000200
FF000100
071FF100
0F000100
1F000100
1F800200
1FFFFC00
1FFFF800
1FFFF000
1FFFC000
ENDCHAR
STARTCHAR dlinebelow
ENCODING 7695
SWIDTH 846 0
DWIDTH 30 0
BBX 27 38 2 -12
BITMAP
07FFFE00
18000180
38000040
787FF020
F8800C20
F8800220
F8800220
F887E220
F887E220
F887E220
F887E220
F88BE220
F88BE220
F88BE220
F88BE220
F88BE220
F88BE220
F88BE220
F887C220
F8800220
F8800220
F8800420
F87FF820
F8000040
F8000080
F8000300
FFFFFE00
FFFFFC00
FF000200
FF000100
071FF100
0F000100
1F000100
1F800200
1FFFFC00
1FFFF800
1FFFF000
1FFFC000
ENDCHAR
STARTCHAR Gmacron
ENCODING 7712
SWIDTH 808 0
DWIDTH 29 0
BBX 27 38 1 -4
BITMAP
007FFF00
00800080
01800080
0387F880
07800080
0FC00080
0FFFFF80
0FF00100
0F000080
0E000080
04000080
041FF880
08200080
38400080
78400080
7843FF00
7847FC00
F847F800
F847F000
F8441FC0
F8442020
F8446020
F845E020
F847E220
F847E220
F847E220
F843E220
F8400220
F8400220
FC300220
FC0FFE20
FE000020
7F000020
7FF00020
3FFFFFC0
3FFFFF00
1FFFFE00
03FFFC00
ENDCHAR
STARTCHAR gmacron
ENCODING 7713
SWIDTH 808 0
DWIDTH 29 0
BBX 27 38 1 -4
BITMAP
007FFF00
00800080
01800080
0387F880
07800080
0FC00080
0FFFFF80
0FF00100
0F000080
0E000080
04000080
041FF880
08200080
38400080
78400080
7843FF00
7847FC00
F847F800
F847F000
F8441FC0
F8442020
F8446020
F845E020
F847E220
F847E220
F847E220
F843E220
F8400220
F8400220
FC300220
FC0FFE20
FE000020
7F000020
7FF00020
3FFFFFC0
3FFFFF00
1FFFFE00
03FFFC00
ENDCHAR
STARTCHAR Hdotbelow
ENCODING 7716
SWIDTH 859 0
DWIDTH 31 0
BBX 27 39 2 -13
BITMAP
0FF81FE0
18086020
3808E020
7889E220
F88BE220
F88BE220
F88BE220
F88BE220
F887E220
F8800220
F8800220
F8800220
F87FFE20
F8800220
F8800220
F8800220
F8800220
F887E220
F887E220
F887E220
F887E220
F88BE220
F88BE220
F80BE020
F80BE020
F80BE020
FFFFFFC0
FFF00F80
FFB00F00
FF700C00
00F10800
01F10800
01F00800
01F00800
01F01000
01FFE000
01FFC000
01FF0000
01FE0000
ENDCHAR
STARTCHAR hdotbelow
ENCODING 7717
SWIDTH 859 0
DWIDTH 31 0
BBX 27 39 2 -13
BITMAP
0FF81FE0
18086020
3808E020
7889E220
F88BE220
F88BE220
F88BE220
F88BE220
F887E220
F8800220
F8800220
F8800220
F87FFE20
F8800220
F8800220
F8800220
F8800220
F887E220
F887E220
F887E220
F887E220
F88BE220
F88BE220
F80BE020
F80BE020
F80BE020
FFFFFFC0
FFF00F80
FFB00F00
FF700C00
00F10800
01F10800
01F00800
01F00800
01F01000
01FFE000
01FFC000
01FF0000
01FE0000
ENDCHAR
STARTCHAR Hbrevebelow
ENCODING 7722
SWIDTH 859 0
DWIDTH 31 0
BBX 27 40 2 -14
BITMAP
07F81FE0
18086020
3808E020
7889E220
F88BE220
F88BE220
F88BE220
F88BE220
F887E220
F8800220
F8800220
F8800220
F87FFE20
F8800220
F8800220
F8800220
F8800220
F887E220
F887E220
F887E220
F887E220
F88BE220
F88BE220
F80BE020
F80BE020
F80BE020
FFF3FFE0
FFFFFF80
FF03C100
FF03C100
0F210900
1F101900
1F0BE100
1F800200
1FE00400
1FFFF800
1FFFF000
0FFFE000
07FFC000
01FE0000
ENDCHAR
STARTCHAR hbrevebelow
ENCODING 7723
SWIDTH 859 0
DWIDTH 31 0
BBX 27 40 2 -14
BITMAP
07F81FE0
18086020
3808E020
7889E220
F88BE220
F88BE220
F88BE220
F88BE220
F887E220
F8800220
F8800220
F8800220
F87FFE20
F8800220
F8800220
F8800220
F8800220
F887E220
F887E220
F887E220
F887E220
F88BE220
F88BE220
F80BE020
F80BE020
F80BE020
FFF3FFE0
FFFFFF80
FF03C100
FF03C100
0F210900
1F101900
1F0BE100
1F800200
1FE00400
1FFFF800
1FFFF000
0FFFE000
07FFC000
01FE0000
ENDCHAR
STARTCHAR Ldotbelow
ENCODING 7734
SWIDTH 795 0
DWIDTH 29 0
BBX 26 39 2 -13
BITMAP
07F80000
18080000
38080000
78880000
F8880000
F8880000
F8880000
F8880000
F8880000
F8880000
F8880000
F8883F80
F8884040
F888C040
F889C040
F887C440
F887C440
F887C440
F887C440
F8800440
F8800440
F8800440
F87FFC40
F8000040
F8000040
F8000040
FFFFFF80
FFF01E00
FFE01C00
FFE01800
01E11000
03E11000
03E01000
03E01000
03F02000
03FFC000
03FF8000
03FF0000
03FE0000
ENDCHAR
STARTCHAR ldotbelow
ENCODING 7735
SWIDTH 795 0
DWIDTH 29 0
BBX 26 39 2 -13
BITMAP
07F80000
18080000
38080000
78880000
F8880000
F8880000
F8880000
F8880000
F8880000
F8880000
F8880000
F8883F80
F8884040
F888C040
F889C040
F887C440
F887C440
F887C440
F887C440
F8800440
F8800440
F8800440
F87FFC40
F8000040
F8000040
F8000040
FFFFFF80
FFF01E00
FFE01C00
FFE01800
01E11000
03E11000
03E01000
03E01000
03F02000
03FFC000
03FF8000
03FF0000
03FE0000
ENDCHAR
STARTCHAR Ldotbelowmacron
ENCODING 7736
SWIDTH 795 0
DWIDTH 29 0
BBX 26 47 2 -13
BITMAP
01FFFC00
02000200
06000200
0E3FE200
1E000200
3E000200
3FFFFC00
380FF800
3807E000
3807C000
38080000
78880000
F8880000
F8880000
F8880000
F8880000
F8880000
F8880000
F8880000
F8883F80
F8884040
F888C040
F889C040
F887C440
F887C440
F887C440
F887C440
F8800440
F8800440
F8800440
F87FFC40
F8000040
F8000040
F8000040
FFFFFF80
FFF01E00
FFE01C00
FFE01800
01E11000
03E11000
03E01000
03E01000
03F02000
03FFC000
03FF8000
03FF0000
03FE0000
ENDCHAR
STARTCHAR ldotbelowmacron
ENCODING 7737
SWIDTH 795 0
DWIDTH 29 0
BBX 26 47 2 -13
BITMAP
01FFFC00
02000200
06000200
0E3FE200
1E000200
3E000200
3FFFFC00
380FF800
3807E000
3807C000
38080000
78880000
F8880000
F8880000
F8880000
F8880000
F8880000
F8880000
F8880000
F8883F80
F8884040
F888C040
F889C040
F887C440
F887C440
F887C440
F887C440
F8800440
F8800440
F8800440
F87FFC40
F8000040
F8000040
F8000040
FFFFFF80
FFF01E00
FFE01C00
FFE01800
01E11000
03E11000
03E01000
03E01000
03F02000
03FFC000
03FF8000
03FF0000
03FE0000
ENDCHAR
STARTCHAR Llinebelow
ENCODING 7738
SWIDTH 795 0
DWIDTH 29 0
BBX 26 37 2 -11
BITMAP
0FF80000
18080000
38080000
78880000
F8880000
F8880000
F8880000
F8880000
F8880000
F8880000
F8880000
F8883F80
F8884040
F889C040
F88BC040
F887C440
F887C440
F887C440
F8800440
F8800440
F8800440
F87FFC40
F8000040
F8000040
F8000040
FFFFFF80
FF000700
FE000200
FE000200
FE3FE200
1E000200
3E000200
3F000400
3FFFF800
3FFFF000
3FFFE000
3FFFC000
ENDCHAR
STARTCHAR llinebelow
ENCODING 7739
SWIDTH 795 0
DWIDTH 29 0
BBX 26 37 2 -11
BITMAP
0FF80000
18080000
38080000
78880000
F8880000
F8880000
F8880000
F8880000
F8880000
F8880000
F8880000
F8883F80
F8884040
F889C040
F88BC040
F887C440
F887C440
F887C440
F8800440
F8800440
F8800440
F87FFC40
F8000040
F8000040
F8000040
FFFFFF80
FF000700
FE000200
FE000200
FE3FE200
1E000200
3E000200
3F000400
3FFFF800
3FFFF000
3FFFE000
3FFFC000
ENDCHAR
STARTCHAR Mdotbelow
ENCODING 7746
SWIDTH 949 0
DWIDTH 34 0
BBX 31 39 2 -13
BITMAP
0FF807FC
18040802
38021802
786230C2
F8917142
F888E242
F888C442
F8840442
F8820842
F8821042
F8812042
F8884242
F8880442
F8840442
F8840C42
F8860C42
F887FC42
F887FC42
F887FC42
F8877C42
F8867C42
F8887C42
F8087C02
F8087C02
F8087C02
F8087E04
FFF7FFF8
FFC807F0
FF9803E0
FF3803C0
00784400
00F84400
00F80400
00F80400
00FC0400
00FFF800
00FFE000
00FFC000
007F8000
ENDCHAR
STARTCHAR mdotbelow
ENCODING 7747
SWIDTH 949 0
DWIDTH 34 0
BBX 31 39 2 -13
BITMAP
0FF807FC
18040802
38021802
786230C2
F8917142
F888E242
F888C442
F8840442
F8820842
F8821042
F8812042
F8884242
F8880442
F8840442
F8840C42
F8860C42
F887FC42
F887FC42
F887FC42
F8877C42
F8867C42
F8887C42
F8087C02
F8087C02
F8087C02
F8087E04
FFF7FFF8
FFC807F0
FF9803E0
FF3803C0
00784400
00F84400
00F80400
00F80400
00FC0400
00FFF800
00FFE000
00FFC000
007F8000
ENDCHAR
STARTCHAR Ndotaccent
ENCODING 7748
SWIDTH 853 0
DWIDTH 31 0
BBX 27 40 2 -4
BITMAP
000FF000
00101000
00300800
00700800
00F10800
01F10800
01F00800
01F01000
01FFE000
01FFC000
0E3F9FE0
180F6020
3804E020
78C3E220
F8A1E220
F890E220
F8906220
F8882220
F8842220
F8820220
F8810220
F8808220
F8804220
F8882220
F8841220
F8861220
F8870A20
F8878620
F8878220
F887C220
F887E220
F887E220
F887E220
F807E020
F80BE020
F80BE020
FFF3FFC0
FFC3FF80
FF83FE00
FF03FC00
ENDCHAR
STARTCHAR ndotaccent
ENCODING 7749
SWIDTH 853 0
DWIDTH 31 0
BBX 27 40 2 -4
BITMAP
000FF000
00101000
00300800
00700800
00F10800
01F10800
01F00800
01F01000
01FFE000
01FFC000
0E3F9FE0
180F6020
3804E020
78C3E220
F8A1E220
F890E220
F8906220
F8882220
F8842220
F8820220
F8810220
F8808220
F8804220
F8882220
F8841220
F8861220
F8870A20
F8878620
F8878220
F887C220
F887E220
F887E220
F887E220
F807E020
F80BE020
F80BE020
FFF3FFC0
FFC3FF80
FF83FE00
FF03FC00
ENDCHAR
STARTCHAR Ndotbelow
ENCODING 7750
SWIDTH 853 0
DWIDTH 31 0
BBX 27 39 2 -13
BITMAP
0FF01FE0
18086020
3804E020
78C3E220
F8A1E220
F890E220
F8906220
F8882220
F8842220
F8820220
F8810220
F8808220
F8804220
F8882220
F8841220
F8861220
F8870A20
F8878620
F8878220
F887C220
F887E220
F887E220
F887E220
F807E020
F80BE020
F80BE020
FFFFFFC0
FFD00F80
FFB00E00
FF700C00
01F10800
01F10800
01F00800
01F00800
01F01000
01FFE000
01FFC000
01FF0000
01FE0000
ENDCHAR
STARTCHAR ndotbelow
ENCODING 7751
SWIDTH 853 0
DWIDTH 31 0
BBX 27 39 2 -13
BITMAP
0FF01FE0
18086020
3804E020
78C3E220
F8A1E220
F890E220
F8906220
F8882220
F8842220
F8820220
F8810220
F8808220
F8804220
F8882220
F8841220
F8861220
F8870A20
F8878620
F8878220
F887C220
F887E220
F887E220
F887E220
F807E020
F80BE020
F80BE020
FFFFFFC0
FFD00F80
FFB00E00
FF700C00
01F10800
01F10800
01F00800
01F00800
01F01000
01FFE000
01FFC000
01FF0000
01FE0000
ENDCHAR
STARTCHAR Nlinebelow
ENCODING 7752
SWIDTH 853 0
DWIDTH 31 0
BBX 27 37 2 -11
BITMAP
0FF03FE0
18086020
3885E220
78C3E220
F8A1E220
F890E220
F8886220
F8842220
F8820220
F8810220
F8810220
F8808220
F8884220
F8842220
F8861220
F8870A20
F8870620
F8878220
F887C220
F887E220
F887E220
F887E220
F807E020
F80BE020
F80BE020
FFF3FFE0
FFFFFF80
FF000100
FF000100
FF1FF100
0F000100
1F000100
1F800200
1FFFFC00
1FFFF800
1FFFF000
1FFFE000
ENDCHAR
STARTCHAR nlinebelow
ENCODING 7753
SWIDTH 853 0
DWIDTH 31 0
BBX 27 37 2 -11
BITMAP
0FF03FE0
18086020
3885E220
78C3E220
F8A1E220
F890E220
F8886220
F8842220
F8820220
F8810220
F8810220
F8808220
F8884220
F8842220
F8861220
F8870A20
F8870620
F8878220
F887C220
F887E220
F887E220
F887E220
F807E020
F80BE020
F80BE020
FFF3FFE0
FFFFFF80
FF000100
FF000100
FF1FF100
0F000100
1F000100
1F800200
1FFFFC00
1FFFF800
1FFFF000
1FFFE000
ENDCHAR
STARTCHAR Rdotbelow
ENCODING 7770
SWIDTH 843 0
DWIDTH 30 0
BBX 28 39 2 -13
BITMAP
0FFFFC00
18000300
38000080
787FE080
F8801040
F8800840
F8878840
F8878840
F8878840
F8878880
F8870880
F8800980
F8801040
F87FF420
F8800210
F8800210
F8800110
F887E110
F887E110
F887E110
F887E110
F88BE110
F80BE010
F80BE010
F80BE010
F80BF030
FFFFFFC0
FFD00F80
FFB00F00
FF700E00
00F08800
01F08800
01F00800
01F00800
01F81000
01FFE000
01FFC000
01FF8000
01FF0000
ENDCHAR
STARTCHAR rdotbelow
ENCODING 7771
SWIDTH 843 0
DWIDTH 30 0
BBX 28 39 2 -13
BITMAP
0FFFFC00
18000300
38000080
787FE080
F8801040
F8800840
F8878840
F8878840
F8878840
F8878880
F8870880
F8800980
F8801040
F87FF420
F8800210
F8800210
F8800110
F887E110
F887E110
F887E110
F887E110
F88BE110
F80BE010
F80BE010
F80BE010
F80BF030
FFFFFFC0
FFD00F80
FFB00F00
FF700E00
00F08800
01F08800
01F00800
01F00800
01F81000
01FFE000
01FFC000
01FF8000
01FF0000
ENDCHAR
STARTCHAR Rdotbelowmacron
ENCODING 7772
SWIDTH 843 0
DWIDTH 30 0
BBX 28 47 2 -13
BITMAP
01FFF800
02000400
0C000400
1C3FC400
3C000400
7E000400
7FFFF800
78001C00
78000300
78000080
38000080
F87FE080
F8801040
F8800840
F8878840
F8878840
F8878840
F8878880
F8870880
F8800980
F8801040
F87FF420
F8800210
F8800210
F8800110
F887E110
F887E110
F887E110
F887E110
F88BE110
F80BE010
F80BE010
F80BE010
F80BF030
FFFFFFC0
FFD00F80
FFB00F00
FF700E00
00F08800
01F08800
01F00800
01F00800
01F81000
01FFE000
01FFC000
01FF8000
01FF0000
ENDCHAR
STARTCHAR rdotbelowmacron
ENCODING 7773
SWIDTH 843 0
DWIDTH 30 0
BBX 28 47 2 -13
BITMAP
01FFF800
02000400
0C000400
1C3FC400
3C000400
7E000400
7FFFF800
78001C00
78000300
78000080
38000080
F87FE080
F8801040
F8800840
F8878840
F8878840
F8878840
F8878880
F8870880
F8800980
F8801040
F87FF420
F8800210
F8800210
F8800110
F887E110
F887E110
F887E110
F887E110
F88BE110
F80BE010
F80BE010
F80BE010
F80BF030
FFFFFFC0
FFD00F80
FFB00F00
FF700E00
00F08800
01F08800
01F00800
01F00800
01F81000
01FFE000
01FFC000
01FF8000
01FF0000
ENDCHAR
STARTCHAR Rlinebelow
ENCODING 7774
SWIDTH 843 0
DWIDTH 30 0
BBX 28 37 2 -11
BITMAP
0FFFFC00
18000300
387FE080
78801080
F8800840
F8800840
F8878840
F8878840
F8878840
F8878880
F8870880
F8800980
F8801060
F87FF420
F8800210
F8800210
F8800110
F887E110
F887E110
F887E110
F887E110
F88BE110
F80BE010
F80BE010
F80BE010
FFF3FFE0
FFFFFFC0
FF000180
FF000100
FF1FF100
0F000100
1F000100
1F800200
1FFFFC00
1FFFF800
1FFFF000
1FFFC000
ENDCHAR
STARTCHAR rlinebelow
ENCODING 7775
SWIDTH 843 0
DWIDTH 30 0
BBX 28 37 2 -11
BITMAP
0FFFFC00
18000300
387FE080
78801080
F8800840
F8800840
F8878840
F8878840
F8878840
F8878880
F8870880
F8800980
F8801060
F87FF420
F8800210
F8800210
F8800110
F887E110
F887E110
F887E110
F887E110
F88BE110
F80BE010
F80BE010
F80BE010
FFF3FFE0
FFFFFFC0
FF000180
FF000100
FF1FF100
0F000100
1F000100
1F800200
1FFFFC00
1FFFF800
1FFFF000
1FFFC000
ENDCHAR
STARTCHAR Sdotaccent
ENCODING 7776
SWIDTH 750 0
DWIDTH 27 0
BBX 25 40 1 -4
BITMAP
001FC000
00201000
00601000
00E01000
01E11000
03E11000
03E01000
03E01000
03E01000
03FFE000
03E03F00
03000100
04000100
0C1FF900
38600100
78400100
78400100
F847FE00
F847FC00
F8403C00
F8400200
F8600100
F81F0080
FC00F080
FE000880
FF000880
FFFC0880
7FFF8880
3FFF8880
18000880
18000880
38001080
78FFC080
F8000100
F8000200
FC001C00
FFFFF800
FFFFF000
FFFFC000
FFFF0000
ENDCHAR
STARTCHAR sdotaccent
ENCODING 7777
SWIDTH 750 0
DWIDTH 27 0
BBX 25 40 1 -4
BITMAP
001FC000
00201000
00601000
00E01000
01E11000
03E11000
03E01000
03E01000
03E01000
03FFE000
03E03F00
03000100
04000100
0C1FF900
38600100
78400100
78400100
F847FE00
F847FC00
F8403C00
F8400200
F8600100
F81F0080
FC00F080
FE000880
FF000880
FFFC0880
7FFF8880
3FFF8880
18000880
18000880
38001080
78FFC080
F8000100
F8000200
FC001C00
FFFFF800
FFFFF000
FFFFC000
FFFF0000
ENDCHAR
STARTCHAR Sdotbelow
ENCODING 7778
SWIDTH 750 0
DWIDTH 27 0
BBX 25 39 1 -13
BITMAP
00FFFF00
01000100
02000100
0C1FF900
18600100
38400100
78400100
7847FE00
F847FC00
F8403C00
F8400200
F8600100
F81F0080
FC00F080
FE000880
FF000880
FFFC0880
7FFF8880
3FFF8880
18000880
18000880
38001080
78FFC080
F8000080
F8000300
F8000C00
FFFFF800
FFF01000
FFE01000
FFE01000
01E11000
03E11000
03E01000
03E01000
03F02000
03FFC000
03FF8000
03FF0000
03FE0000
ENDCHAR
STARTCHAR sdotbelow
ENCODING 7779
SWIDTH 750 0
DWIDTH 27 0
BBX 25 39 1 -13
BITMAP
00FFFF00
01000100
02000100
0C1FF900
18600100
38400100
78400100
7847FE00
F847FC00
F8403C00
F8400200
F8600100
F81F0080
FC00F080
FE000880
FF000880
FFFC0880
7FFF8880
3FFF8880
18000880
18000880
38001080
78FFC080
F8000080
F8000300
F8000C00
FFFFF800
FFF01000
FFE01000
FFE01000
01E11000
03E11000
03E01000
03E01000
03F02000
03FFC000
03FF8000
03FF0000
03FE0000
ENDCHAR
STARTCHAR Tdotbelow
ENCODING 7788
SWIDTH 756 0
DWIDTH 27 0
BBX 27 39 0 -13
BITMAP
07FFFFE0
08000020
18000020
78FFFF20
F8010020
F8010020
FC010020
FFF10FC0
FFF10F80
FFF10E00
FFF10C00
01F10800
01F10800
01F10800
01F10800
01F10800
01F10800
01F10800
01F10800
01F10800
01F10800
01F10800
01F10800
01F00800
01F00800
01F00800
01FFF000
01F81000
01F00800
01F00800
00F10800
01F10800
01F00800
01F00800
01F81000
01FFE000
01FFC000
01FF8000
01FE0000
ENDCHAR
STARTCHAR tdotbelow
ENCODING 7789
SWIDTH 756 0
DWIDTH 27 0
BBX 27 39 0 -13
BITMAP
07FFFFE0
08000020
18000020
78FFFF20
F8010020
F8010020
FC010020
FFF10FC0
FFF10F80
FFF10E00
FFF10C00
01F10800
01F10800
01F10800
01F10800
01F10800
01F10800
01F10800
01F10800
01F10800
01F10800
01F10800
01F10800
01F00800
01F00800
01F00800
01FFF000
01F81000
01F00800
01F00800
00F10800
01F10800
01F00800
01F00800
01F81000
01FFE000
01FFC000
01FF8000
01FE0000
ENDCHAR
STARTCHAR Tlinebelow
ENCODING 7790
SWIDTH 756 0
DWIDTH 27 0
BBX 27 37 0 -11
BITMAP
07FFFFE0
08000020
38FFFF20
78010020
F8010020
F8010020
FFF10FE0
FFF10F80
FFF10F00
FFF10E00
01F10800
01F10800
01F10800
01F10800
01F10800
01F10800
01F10800
01F10800
01F10800
01F10800
01F10800
01F10800
01F00800
01F00800
01F00800
01FFF000
01FFFE00
01000100
03000100
070FF100
0F000100
1F000100
1F800100
1FFFFE00
1FFFF800
1FFFF000
0FFFE000
ENDCHAR
STARTCHAR tlinebelow
ENCODING 7791
SWIDTH 756 0
DWIDTH 27 0
BBX 27 37 0 -11
BITMAP
07FFFFE0
08000020
38FFFF20
78010020
F8010020
F8010020
FFF10FE0
FFF10F80
FFF10F00
FFF10E00
01F10800
01F10800
01F10800
01F10800
01F10800
01F10800
01F10800
01F10800
01F10800
01F10800
01F10800
01F10800
01F00800
01F00800
01F00800
01FFF000
01FFFE00
01000100
03000100
070FF100
0F000100
1F000100
1F800100
1FFFFE00
1FFFF800
1FFFF000
0FFFE000
ENDCHAR
STARTCHAR Wgrave
ENCODING 7808
SWIDTH 931 0
DWIDTH 34 0
BBX 31 39 1 -4
BITMAP
003F8000
00407F00
00C000C0
01C60040
03C1FC40
07C00040
07F80040
07FFF840
07FFFF80
0407FF7E
0807FE02
1807FE02
38441E22
78443E22
F8443E22
F8443E22
F8443E22
F844FE22
F8450622
F8460622
F8460222
F8440222
F8446222
F8409022
F8410822
F8410822
F8420422
FC426422
FC446222
FC246222
FE287144
7E10F084
7E00F004
7F00F808
3F81F810
3FFFFFE0
3FF9FFC0
1FF0FF80
1FE0FF00
ENDCHAR
STARTCHAR wgrave
ENCODING 7809
SWIDTH 931 0
DWIDTH 34 0
BBX 31 39 1 -4
BITMAP
003F8000
00407F00
00C000C0
01C60040
03C1FC40
07C00040
07F80040
07FFF840
07FFFF80
0407FF7E
0807FE02
1807FE02
38441E22
78443E22
F8443E22
F8443E22
F8443E22
F844FE22
F8450622
F8460622
F8460222
F8440222
F8446222
F8409022
F8410822
F8410822
F8420422
FC426422
FC446222
FC246222
FE287144
7E10F084
7E00F004
7F00F808
3F81F810
3FFFFFE0
3FF9FFC0
1FF0FF80
1FE0FF00
ENDCHAR
STARTCHAR Wacute
ENCODING 7810
SWIDTH 931 0
DWIDTH 34 0
BBX 31 39 1 -4
BITMAP
00000FC0
000FF020
00300020
00200220
00E3FC20
01E00020
03E001C0
03E1FF80
03FFFF00
0407FDFE
0807FA02
18040E02
38441E22
78443E22
F8443E22
F8443E22
F8443E22
F844FE22
F8450622
F8460622
F8460222
F8440222
F8446222
F8409022
F8410822
F8410822
F8420422
FC426422
FC446222
FC246222
FE287144
7E10F084
7E00F004
7F00F808
3F81F810
3FFFFFE0
3FF9FFC0
1FF0FF80
1FE0FF00
ENDCHAR
STARTCHAR wacute
ENCODING 7811
SWIDTH 931 0
DWIDTH 34 0
BBX 31 39 1 -4
BITMAP
00000FC0
000FF020
00300020
00200220
00E3FC20
01E00020
03E001C0
03E1FF80
03FFFF00
0407FDFE
0807FA02
18040E02
38441E22
78443E22
F8443E22
F8443E22
F8443E22
F844FE22
F8450622
F8460622
F8460222
F8440222
F8446222
F8409022
F8410822
F8410822
F8420422
FC426422
FC446222
FC246222
FE287144
7E10F084
7E00F004
7F00F808
3F81F810
3FFFFFE0
3FF9FFC0
1FF0FF80
1FE0FF00
ENDCHAR
STARTCHAR Wdieresis
ENCODING 7812
SWIDTH 931 0
DWIDTH 34 0
BBX 31 39 1 -4
BITMAP
003F1FC0
00406020
00C06020
01C46220
07C46220
07C06020
07C06020
07C06020
07FFFFC0
0407FF3E
0807FE02
1807FE02
38441E22
78443E22
F8443E22
F8443E22
F8443E22
F844FE22
F8450622
F8460622
F8460222
F8440222
F8446222
F8409022
F8410822
F8410822
F8420422
FC426422
FC446222
FC246222
FE287144
7E10F084
7E00F004
7F00F808
3F81F810
3FFFFFE0
3FF9FFC0
1FF0FF80
1FE0FF00
ENDCHAR
STARTCHAR wdieresis
ENCODING 7813
SWIDTH 931 0
DWIDTH 34 0
BBX 31 39 1 -4
BITMAP
003F1FC0
00406020
00C06020
01C46220
07C46220
07C06020
07C06020
07C06020
07FFFFC0
0407FF3E
0807FE02
1807FE02
38441E22
78443E22
F8443E22
F8443E22
F8443E22
F844FE22
F8450622
F8460622
F8460222
F8440222
F8446222
F8409022
F8410822
F8410822
F8420422
FC426422
FC446222
FC246222
FE287144
7E10F084
7E00F004
7F00F808
3F81F810
3FFFFFE0
3FF9FFC0
1FF0FF80
1FE0FF00
ENDCHAR
STARTCHAR Ydotaccent
ENCODING 7822
SWIDTH 805 0
DWIDTH 29 0
BBX 27 40 1 -4
BITMAP
000FE000
00100800
00300800
00700800
00F10800
01F10800
01F00800
01F01000
01FFE000
01FFC000
060F9FE0
18072020
3804E020
7885E220
F887E220
F887E220
F887E220
F887E220
F887E220
F843C220
F8438420
F8218420
FC100840
FE101040
FE081080
FF042100
7F81C200
3FC10200
3FC10400
1FE10800
0FF10800
07F10800
03F10800
03F00800
01F00800
01F01000
01FFE000
01FFC000
01FF8000
01FE0000
ENDCHAR
STARTCHAR ydotaccent
ENCODING 7823
SWIDTH 805 0
DWIDTH 29 0
BBX 27 40 1 -4
BITMAP
000FE000
00100800
00300800
00700800
00F10800
01F10800
01F00800
01F01000
01FFE000
01FFC000
060F9FE0
18072020
3804E020
7885E220
F887E220
F887E220
F887E220
F887E220
F887E220
F843C220
F8438420
F8218420
FC100840
FE101040
FE081080
FF042100
7F81C200
3FC10200
3FC10400
1FE10800
0FF10800
07F10800
03F10800
03F00800
01F00800
01F01000
01FFE000
01FFC000
01FF8000
01FE0000
ENDCHAR
STARTCHAR Zdotbelow
ENCODING 7826
SWIDTH 760 0
DWIDTH 27 0
BBX 26 39 1 -13
BITMAP
07FFFF80
08000080
18000080
387FF080
78000880
F8000880
FC001080
FFFC1080
FFF82080
FFF04100
7FE08200
00610400
00C10800
01821000
03041000
06082000
04084000
0C108000
1821FF80
38400040
78800040
F8800040
F87FFC40
F8000040
F8000040
F8000040
FFFFFF80
FFF01E00
FFE00C00
FFE00800
01E11000
03E11000
03E01000
03E01000
03F01000
03FFE000
03FF8000
03FF0000
01FE0000
ENDCHAR
STARTCHAR zdotbelow
ENCODING 7827
SWIDTH 760 0
DWIDTH 27 0
BBX 26 39 1 -13
BITMAP
07FFFF80
08000080
18000080
387FF080
78000880
F8000880
FC001080
FFFC1080
FFF82080
FFF04100
7FE08200
00610400
00C10800
01821000
03041000
06082000
04084000
0C108000
1821FF80
38400040
78800040
F8800040
F87FFC40
F8000040
F8000040
F8000040
FFFFFF80
FFF01E00
FFE00C00
FFE00800
01E11000
03E11000
03E01000
03E01000
03F01000
03FFE000
03FF8000
03FF0000
01FE0000
ENDCHAR
STARTCHAR tdieresis
ENCODING 7831
SWIDTH 756 0
DWIDTH 27 0
BBX 27 39 0 -4
BITMAP
00FC7F00
01018080
03018080
0F118880
1F118880
1F018080
1F018080
1F018080
1FFFFF00
1C0000E0
18000020
38000020
78FFFF20
F8010020
F8010020
FC010020
FFF10FC0
FFF10F80
FFF10E00
FFF10C00
01F10800
01F10800
01F10800
01F10800
01F10800
01F10800
01F10800
01F10800
01F10800
01F10800
01F10800
01F00800
01F00800
01F00800
01F01000
01FFE000
01FFC000
01FF8000
01FF0000
ENDCHAR
STARTCHAR Germandbls
ENCODING 7838
SWIDTH 859 0
DWIDTH 31 0
BBX 29 30 2 -4
BITMAP
07FFFE00
18000100
38000080
787FF080
F8800880
F8800880
F8800880
F8870880
F8871080
F8871180
F8871060
F8872010
F8863E10
F8860108
F8860108
F8870088
F887F088
F887F088
F887F088
F8860088
F8860108
F8860108
F8863E10
F8060010
F8060020
F80F01C0
FFFFFF00
FFFFFE00
FFBFFC00
FF3FF000
ENDCHAR
STARTCHAR Adotbelow
ENCODING 7840
SWIDTH 830 0
DWIDTH 30 0
BBX 28 39 1 -13
BITMAP
003FFE00
00400100
01800100
0387E100
07081080
0F080880
0F100840
0E118440
1E21C440
1E23C420
1C23C220
3C43E220
3847E110
78400110
78400110
78400110
F87FFF10
F8400110
F8400110
F8400110
F847E110
F847E110
F847E110
F807E010
F807E010
FC0BF010
FFFFFFE0
FFF00F80
FFF00F00
FF700E00
00F08800
01F08800
01F00800
01F00800
01F81800
01FFE000
01FFC000
01FF8000
01FF0000
ENDCHAR
STARTCHAR adotbelow
ENCODING 7841
SWIDTH 830 0
DWIDTH 30 0
BBX 28 39 1 -13
BITMAP
003FFE00
00400100
01800100
0387E100
07081080
0F080880
0F100840
0E118440
1E21C440
1E23C420
1C23C220
3C43E220
3847E110
78400110
78400110
78400110
F87FFF10
F8400110
F8400110
F8400110
F847E110
F847E110
F847E110
F807E010
F807E010
FC0BF010
FFFFFFE0
FFF00F80
FFF00F00
FF700E00
00F08800
01F08800
01F00800
01F00800
01F81800
01FFE000
01FFC000
01FF8000
01FF0000
ENDCHAR
STARTCHAR Ahookabove
ENCODING 7842
SWIDTH 830 0
DWIDTH 30 0
BBX 28 42 1 -4
BITMAP
001FF000
00200800
0067E400
00E01400
01E01200
03FF9200
03F81200
03F81400
03F9E400
01F80C00
00FBF800
00FFF000
00E00E00
00C00100
01800100
0387E100
07081080
0F080880
0F100840
0E118440
1E21C440
1E23C420
1C23C220
3C43E220
3847E110
78400110
78400110
78400110
F87FFF10
F8400110
F8400110
F8400110
F847E110
F847E110
F847E110
F807E010
F807E010
FC0BF010
FFF3FFE0
FFE3FF80
FFC3FF00
FF01FE00
ENDCHAR
STARTCHAR ahookabove
ENCODING 7843
SWIDTH 830 0
DWIDTH 30 0
BBX 28 42 1 -4
BITMAP
001FF000
00200800
0067E400
00E01400
01E01200
03FF9200
03F81200
03F81400
03F9E400
01F80C00
00FBF800
00FFF000
00E00E00
00C00100
01800100
0387E100
07081080
0F080880
0F100840
0E118440
1E21C440
1E23C420
1C23C220
3C43E220
3847E110
78400110
78400110
78400110
F87FFF10
F8400110
F8400110
F8400110
F847E110
F847E110
F847E110
F807E010
F807E010
FC0BF010
FFF3FFE0
FFE3FF80
FFC3FF00
FF01FE00
ENDCHAR
STARTCHAR Acircumflexacute
ENCODING 7844
SWIDTH 830 0
DWIDTH 30 0
BBX 28 48 1 -4
BITMAP
00000780
00003840
00004040
0000C240
0003CC40
0007C040
0007C0C0
0007C300
0007FE00
00181C00
00600200
0083C100
018C3900
03800100
07800100
0F83E100
0FBFFD00
0FFFFE00
0FC00200
0F800100
0F800100
0387E080
07081080
0F080880
0F100840
0E118440
1E21C440
1C23C420
1C23C220
3C43E210
3847E110
78400110
78400110
78400110
F87FFF10
F8400110
F8400110
F8400110
F847E110
F847E110
F847E110
F807E010
F807E010
FC0BF010
FFF3FFE0
FFE3FF80
FFC3FF00
FF01FE00
ENDCHAR
STARTCHAR acircumflexacute
ENCODING 7845
SWIDTH 830 0
DWIDTH 30 0
BBX 28 48 1 -4
BITMAP
00000780
00003840
00004040
0000C240
0003CC40
0007C040
0007C0C0
0007C300
0007FE00
00181C00
00600200
0083C100
018C3900
03800100
07800100
0F83E100
0FBFFD00
0FFFFE00
0FC00200
0F800100
0F800100
0387E080
07081080
0F080880
0F100840
0E118440
1E21C440
1C23C420
1C23C220
3C43E210
3847E110
78400110
78400110
78400110
F87FFF10
F8400110
F8400110
F8400110
F847E110
F847E110
F847E110
F807E010
F807E010
FC0BF010
FFF3FFE0
FFE3FF80
FFC3FF00
FF01FE00
ENDCHAR
STARTCHAR Acircumflexgrave
ENCODING 7846
SWIDTH 830 0
DWIDTH 30 0
BBX 28 47 1 -4
BITMAP
00007800
00008700
00038080
00079880
000F8680
000F8080
000F8080
000FF880
00181F00
00600200
0083C100
018C3900
03800100
07800100
0F83E100
0FBFFD00
0FFFFE00
0FC00200
0F800100
0F800100
0387E080
07081080
0F080880
0F100840
0E118440
1E21C440
1C23C420
1C23C220
3C43E210
3847E110
78400110
78400110
78400110
F87FFF10
F8400110
F8400110
F8400110
F847E110
F847E110
F847E110
F807E010
F807E010
FC0BF010
FFF3FFE0
FFE3FF80
FFC3FF00
FF01FE00
ENDCHAR
STARTCHAR acircumflexgrave
ENCODING 7847
SWIDTH 830 0
DWIDTH 30 0
BBX 28 47 1 -4
BITMAP
00007800
00008700
00038080
00079880
000F8680
000F8080
000F8080
000FF880
00181F00
00600200
0083C100
018C3900
03800100
07800100
0F83E100
0FBFFD00
0FFFFE00
0FC00200
0F800100
0F800100
0387E080
07081080
0F080880
0F100840
0E118440
1E21C440
1C23C420
1C23C220
3C43E210
3847E110
78400110
78400110
78400110
F87FFF10
F8400110
F8400110
F8400110
F847E110
F847E110
F847E110
F807E010
F807E010
FC0BF010
FFF3FFE0
FFE3FF80
FFC3FF00
FF01FE00
ENDCHAR
STARTCHAR Acircumflexhookabove
ENCODING 7848
SWIDTH 830 0
DWIDTH 30 0
BBX 29 50 1 -4
BITMAP
00003FE0
0000C010
0001DF88
0003C048
0007C048
0007FF48
0007E048
0007E388
0007E408
0001F030
00067FC0
00180F80
00600100
0083C100
018C3900
03800100
0F800100
0F83E100
0FBFFD00
0FFFFE00
0FC00200
0F800100
0F800100
0387E080
07081080
0F080880
0F100840
0E118440
1E21C440
1C23C420
1C23C220
3C43E210
3847E110
78400110
78400110
78400110
F87FFF10
F8400110
F8400110
F8400110
F847E110
F847E110
F847E110
F807E010
F807E010
FC0BF010
FFF3FFE0
FFE3FF80
FFC3FF00
FF01FE00
ENDCHAR
STARTCHAR acircumflexhookabove
ENCODING 7849
SWIDTH 830 0
DWIDTH 30 0
BBX 29 50 1 -4
BITMAP
00003FE0
0000C010
0001DF88
0003C048
0007C048
0007FF48
0007E048
0007E388
0007E408
0001F030
00067FC0
00180F80
00600100
0083C100
018C3900
03800100
0F800100
0F83E100
0FBFFD00
0FFFFE00
0FC00200
0F800100
0F800100
0387E080
07081080
0F080880
0F100840
0E118440
1E21C440
1C23C420
1C23C220
3C43E210
3847E110
78400110
78400110
78400110
F87FFF10
F8400110
F8400110
F8400110
F847E110
F847E110
F847E110
F807E010
F807E010
FC0BF010
FFF3FFE0
FFE3FF80
FFC3FF00
FF01FE00
ENDCHAR
STARTCHAR Acircumflextilde
ENCODING 7850
SWIDTH 830 0
DWIDTH 30 0
BBX 28 48 1 -4
BITMAP
003F8200
00407D00
01800100
038F0100
0780F900
0F800100
0F800100
0FFFFE00
0FFE7C00
0FF80C00
0FC00200
0883C100
018C3900
03800100
0F800100
0F83E100
0FBFFD00
0FFFFE00
0FC00200
0F800100
0F800100
0387E080
07081080
0F080880
0F100840
0E118440
1E21C440
1C23C420
1C23C220
3C43E210
3847E110
78400110
78400110
78400110
F87FFF10
F8400110
F8400110
F8400110
F847E110
F847E110
F847E110
F807E010
F807E010
FC0BF010
FFF3FFE0
FFE3FF80
FFC3FF00
FF01FE00
ENDCHAR
STARTCHAR acircumflextilde
ENCODING 7851
SWIDTH 830 0
DWIDTH 30 0
BBX 28 48 1 -4
BITMAP
003F8200
00407D00
01800100
038F0100
0780F900
0F800100
0F800100
0FFFFE00
0FFE7C00
0FF80C00
0FC00200
0883C100
018C3900
03800100
0F800100
0F83E100
0FBFFD00
0FFFFE00
0FC00200
0F800100
0F800100
0387E080
07081080
0F080880
0F100840
0E118440
1E21C440
1C23C420
1C23C220
3C43E210
3847E110
78400110
78400110
78400110
F87FFF10
F8400110
F8400110
F8400110
F847E110
F847E110
F847E110
F807E010
F807E010
FC0BF010
FFF3FFE0
FFE3FF80
FFC3FF00
FF01FE00
ENDCHAR
STARTCHAR Acircumflexdotbelow
ENCODING 7852
SWIDTH 830 0
DWIDTH 30 0
BBX 28 49 1 -13
BITMAP
0003C000
000C3800
00700600
0083C100
018C3900
03800100
07800100
0F83E100
0FBFFD00
0FFFFE00
0FC00200
0F800100
0F800100
0387E080
07081080
0F080880
0F100840
0E118440
1E21C440
1C23C420
1C23C220
3C43E210
3847E110
78400110
78400110
78400110
F87FFF10
F8400110
F8400110
F8400110
F847E110
F847E110
F847E110
F807E010
F807E010
FC0BF010
FFFFFFE0
FFF00F80
FFF00F00
FF700E00
00F08800
01F08800
01F00800
01F00800
01F81800
01FFE000
01FFC000
01FF8000
01FF0000
ENDCHAR
STARTCHAR acircumflexdotbelow
ENCODING 7853
SWIDTH 830 0
DWIDTH 30 0
BBX 28 49 1 -13
BITMAP
0003C000
000C3800
00700600
0083C100
018C3900
03800100
07800100
0F83E100
0FBFFD00
0FFFFE00
0FC00200
0F800100
0F800100
0387E080
07081080
0F080880
0F100840
0E118440
1E21C440
1C23C420
1C23C220
3C43E210
3847E110
78400110
78400110
78400110
F87FFF10
F8400110
F8400110
F8400110
F847E110
F847E110
F847E110
F807E010
F807E010
FC0BF010
FFFFFFE0
FFF00F80
FFF00F00
FF700E00
00F08800
01F08800
01F00800
01F00800
01F81800
01FFE000
01FFC000
01FF8000
01FF0000
ENDCHAR
STARTCHAR Abreveacute
ENCODING 7854
SWIDTH 830 0
DWIDTH 30 0
BBX 28 48 1 -4
BITMAP
00003C00
0001C200
00020200
00041200
001C6200
003C0200
007C0400
007C1800
007FFE00
0083C080
0303C080
07100480
0F180880
0F87D080
1F800100
1FC00100
1FE00600
0FFFF800
0FFFFE00
07C00100
03800100
0387E100
07881080
0F080880
0F100840
0E118440
1E21C440
1E23C420
1C23C220
3C43E220
3C47E110
78400110
78400110
78400110
F87FFF10
F8400110
F8400110
F8400110
F847E110
F847E110
F847E110
F807E010
F807E010
FC0BF010
FFF3FFE0
FFE3FF80
FFC3FF00
FF01FE00
ENDCHAR
STARTCHAR abreveacute
ENCODING 7855
SWIDTH 830 0
DWIDTH 30 0
BBX 28 48 1 -4
BITMAP
00003C00
0001C200
00020200
00041200
001C6200
003C0200
007C0400
007C1800
007FFE00
0083C080
0303C080
07100480
0F180880
0F87D080
1F800100
1FC00100
1FE00600
0FFFF800
0FFFFE00
07C00100
03800100
0387E100
07881080
0F080880
0F100840
0E118440
1E21C440
1E23C420
1C23C220
3C43E220
3C47E110
78400110
78400110
78400110
F87FFF10
F8400110
F8400110
F8400110
F847E110
F847E110
F847E110
F807E010
F807E010
FC0BF010
FFF3FFE0
FFE3FF80
FFC3FF00
FF01FE00
ENDCHAR
STARTCHAR Abrevegrave
ENCODING 7856
SWIDTH 830 0
DWIDTH 30 0
BBX 28 48 1 -4
BITMAP
001C0000
0023C000
00E02000
01E02000
03E72000
03E02000
03E02000
03FC2000
03FFFE00
03834080
0302C080
07110480
0F180880
1F87D080
1F800100
1FC00100
0FE00600
0FFFF800
0FFFFE00
07C00100
03800100
0387E100
07881080
0F080880
0F100840
0E118440
1E21C440
1E23C420
1C23C220
3C43E220
3C47E110
78400110
78400110
78400110
F87FFF10
F8400110
F8400110
F8400110
F847E110
F847E110
F847E110
F807E010
F807E010
FC0BF010
FFF3FFE0
FFE3FF80
FFC3FF00
FF01FE00
ENDCHAR
STARTCHAR abrevegrave
ENCODING 7857
SWIDTH 830 0
DWIDTH 30 0
BBX 28 48 1 -4
BITMAP
001C0000
0023C000
00E02000
01E02000
03E72000
03E02000
03E02000
03FC2000
03FFFE00
03834080
0302C080
07110480
0F180880
1F87D080
1F800100
1FC00100
0FE00600
0FFFF800
0FFFFE00
07C00100
03800100
0387E100
07881080
0F080880
0F100840
0E118440
1E21C440
1E23C420
1C23C220
3C43E220
3C47E110
78400110
78400110
78400110
F87FFF10
F8400110
F8400110
F8400110
F847E110
F847E110
F847E110
F807E010
F807E010
FC0BF010
FFF3FFE0
FFE3FF80
FFC3FF00
FF01FE00
ENDCHAR
STARTCHAR Abrevehookabove
ENCODING 7858
SWIDTH 830 0
DWIDTH 30 0
BBX 28 51 1 -4
BITMAP
000FF800
00100400
0033F200
00700900
00F00900
01FFC900
01FF0900
01FC0900
01FCF200
003C0200
007C3C00
007FFE00
0083C080
0303C080
07100480
0F180880
0F87D080
1F800100
1FC00100
1FE00600
0FFFF800
0FFFFE00
07C00100
03800100
0387E100
07881080
0F080880
0F100840
0E118440
1E21C440
1E23C420
1C23C220
3C43E220
3C47E110
78400110
78400110
78400110
F87FFF10
F8400110
F8400110
F8400110
F847E110
F847E110
F847E110
F807E010
F807E010
FC0BF010
FFF3FFE0
FFE3FF80
FFC3FF00
FF01FE00
ENDCHAR
STARTCHAR abrevehookabove
ENCODING 7859
SWIDTH 830 0
DWIDTH 30 0
BBX 28 51 1 -4
BITMAP
000FF800
00100400
0033F200
00700900
00F00900
01FFC900
01FF0900
01FC0900
01FCF200
003C0200
007C3C00
007FFE00
0083C080
0303C080
07100480
0F180880
0F87D080
1F800100
1FC00100
1FE00600
0FFFF800
0FFFFE00
07C00100
03800100
0387E100
07881080
0F080880
0F100840
0E118440
1E21C440
1E23C420
1C23C220
3C43E220
3C47E110
78400110
78400110
78400110
F87FFF10
F8400110
F8400110
F8400110
F847E110
F847E110
F847E110
F807E010
F807E010
FC0BF010
FFF3FFE0
FFE3FF80
FFC3FF00
FF01FE00
ENDCHAR
STARTCHAR Abrevetilde
ENCODING 7860
SWIDTH 830 0
DWIDTH 30 0
BBX 28 48 1 -4
BITMAP
003F8200
00C07D00
01800100
038F0100
0780F900
0F800100
0F800100
0FFFFE00
0FFFFE00
0F83C080
0F03C080
07100480
0F180880
1F87D080
1F800100
1FC00100
0FE00600
0FFFF800
0FFFFE00
07C00100
03800100
0387E100
07881080
0F080880
0F100840
0E118440
1E21C440
1E23C420
1C23C220
3C43E220
3C47E110
78400110
78400110
78400110
F87FFF10
F8400110
F8400110
F8400110
F847E110
F847E110
F847E110
F807E010
F807E010
FC0BF010
FFF3FFE0
FFE3FF80
FFC3FF00
FF01FE00
ENDCHAR
STARTCHAR abrevetilde
ENCODING 7861
SWIDTH 830 0
DWIDTH 30 0
BBX 28 48 1 -4
BITMAP
003F8200
00C07D00
01800100
038F0100
0780F900
0F800100
0F800100
0FFFFE00
0FFFFE00
0F83C080
0F03C080
07100480
0F180880
1F87D080
1F800100
1FC00100
0FE00600
0FFFF800
0FFFFE00
07C00100
03800100
0387E100
07881080
0F080880
0F100840
0E118440
1E21C440
1E23C420
1C23C220
3C43E220
3C47E110
78400110
78400110
78400110
F87FFF10
F8400110
F8400110
F8400110
F847E110
F847E110
F847E110
F807E010
F807E010
FC0BF010
FFF3FFE0
FFE3FF80
FFC3FF00
FF01FE00
ENDCHAR
STARTCHAR Abrevedotbelow
ENCODING 7862
SWIDTH 830 0
DWIDTH 30 0
BBX 28 49 1 -13
BITMAP
007C1E00
00826080
0302C080
07110480
0F180880
0F87D080
1F800100
1FC00100
1FE00600
0FFFF800
0FFFFE00
07C00100
03800100
0387E100
07881080
0F080880
0F100840
0E118440
1E21C440
1E23C420
1C23C220
3C43E220
3C47E110
78400110
78400110
78400110
F87FFF10
F8400110
F8400110
F8400110
F847E110
F847E110
F847E110
F807E010
F807E010
FC0BF010
FFFFFFE0
FFF00F80
FFF00F00
FF700E00
00F08800
01F08800
01F00800
01F00800
01F81800
01FFE000
01FFC000
01FF8000
01FF0000
ENDCHAR
STARTCHAR abrevedotbelow
ENCODING 7863
SWIDTH 830 0
DWIDTH 30 0
BBX 28 49 1 -13
BITMAP
007C1E00
00826080
0302C080
07110480
0F180880
0F87D080
1F800100
1FC00100
1FE00600
0FFFF800
0FFFFE00
07C00100
03800100
0387E100
07881080
0F080880
0F100840
0E118440
1E21C440
1E23C420
1C23C220
3C43E220
3C47E110
78400110
78400110
78400110
F87FFF10
F8400110
F8400110
F8400110
F847E110
F847E110
F847E110
F807E010
F807E010
FC0BF010
FFFFFFE0
FFF00F80
FFF00F00
FF700E00
00F08800
01F08800
01F00800
01F00800
01F81800
01FFE000
01FFC000
01FF8000
01FF0000
ENDCHAR
STARTCHAR Edotbelow
ENCODING 7864
SWIDTH 754 0
DWIDTH 27 0
BBX 24 39 2 -13
BITMAP
07FFFF
180001
380001
787FF9
F88001
F88001
F887FF
F887FC
F887F8
F88004
F88004
F88004
F87FC4
F88004
F88004
F88008
F887F0
F887E0
F887FE
F88001
F88001
F88001
F87FF9
F80001
F80001
F80001
FFFFFE
FFE03C
FFC018
FFC020
03C220
07C220
07C020
07C020
07E020
07FFC0
07FF00
07FE00
03FC00
ENDCHAR
STARTCHAR edotbelow
ENCODING 7865
SWIDTH 754 0
DWIDTH 27 0
BBX 24 39 2 -13
BITMAP
07FFFF
180001
380001
787FF9
F88001
F88001
F887FF
F887FC
F887F8
F88004
F88004
F88004
F87FC4
F88004
F88004
F88008
F887F0
F887E0
F887FE
F88001
F88001
F88001
F87FF9
F80001
F80001
F80001
FFFFFE
FFE03C
FFC018
FFC020
03C220
07C220
07C020
07C020
07E020
07FFC0
07FF00
07FE00
03FC00
ENDCHAR
STARTCHAR Ehookabove
ENCODING 7866
SWIDTH 754 0
DWIDTH 27 0
BBX 24 42 2 -4
BITMAP
007FC0
008020
019F10
038050
078050
0FFE50
0FE050
0FE050
0FE790
07E030
03EFE0
03FFC0
0C003F
180001
380001
787FF9
F88001
F88001
F887FF
F887FC
F887F8
F88004
F88004
F88004
F87FC4
F88004
F88004
F88008
F887F0
F887E0
F887FE
F88001
F88001
F88001
F87FF9
F80001
F80001
F80001
FFFFFE
FFFFFC
FFFFF0
FFFFE0
ENDCHAR
STARTCHAR ehookabove
ENCODING 7867
SWIDTH 754 0
DWIDTH 27 0
BBX 24 42 2 -4
BITMAP
007FC0
008020
019F10
038050
078050
0FFE50
0FE050
0FE050
0FE790
07E030
03EFE0
03FFC0
0C003F
180001
380001
787FF9
F88001
F88001
F887FF
F887FC
F887F8
F88004
F88004
F88004
F87FC4
F88004
F88004
F88008
F887F0
F887E0
F887FE
F88001
F88001
F88001
F87FF9
F80001
F80001
F80001
FFFFFE
FFFFFC
FFFFF0
FFFFE0
ENDCHAR
STARTCHAR Etilde
ENCODING 7868
SWIDTH 754 0
DWIDTH 27 0
BBX 24 39 2 -4
BITMAP
00FE08
0101F4
020004
0E0004
1E3F04
3E00E4
3E0004
3E0004
3FFFF8
38000F
380001
780001
F87FF9
F88001
F88001
F887FF
F887FC
F887F8
F88004
F88004
F88004
F87FC4
F88004
F88004
F88008
F887F0
F887E0
F887FE
F88001
F88001
F88001
F87FF9
F80001
F80001
F80001
FFFFFE
FFFFFC
FFFFF0
FFFFE0
ENDCHAR
STARTCHAR etilde
ENCODING 7869
SWIDTH 754 0
DWIDTH 27 0
BBX 24 39 2 -4
BITMAP
00FE08
0101F4
020004
0E0004
1E3F04
3E00E4
3E0004
3E0004
3FFFF8
38000F
380001
780001
F87FF9
F88001
F88001
F887FF
F887FC
F887F8
F88004
F88004
F88004
F87FC4
F88004
F88004
F88008
F887F0
F887E0
F887FE
F88001
F88001
F88001
F87FF9
F80001
F80001
F80001
FFFFFE
FFFFFC
FFFFF0
FFFFE0
ENDCHAR
STARTCHAR Ecircumflexacute
ENCODING 7870
SWIDTH 754 0
DWIDTH 27 0
BBX 24 48 2 -4
BITMAP
00001E
0000E1
000101
000309
000F31
001F01
001F03
001F0C
001FF8
006070
018008
020F04
0630E4
0E0004
3E0004
3E0F04
3E7FF4
3FFFFC
380003
380001
780001
F87FF9
F88001
F88001
F887FF
F887FC
F887F8
F88004
F88004
F88004
F87FC4
F88004
F88004
F88008
F887F0
F887E0
F887FE
F88001
F88001
F88001
F87FF9
F80001
F80001
F80001
FFFFFE
FFFFFC
FFFFF0
FFFFE0
ENDCHAR
STARTCHAR ecircumflexacute
ENCODING 7871
SWIDTH 754 0
DWIDTH 27 0
BBX 24 48 2 -4
BITMAP
00001E
0000E1
000101
000309
000F31
001F01
001F03
001F0C
001FF8
006070
018008
020F04
0630E4
0E0004
3E0004
3E0F04
3E7FF4
3FFFFC
380003
380001
780001
F87FF9
F88001
F88001
F887FF
F887FC
F887F8
F88004
F88004
F88004
F87FC4
F88004
F88004
F88008
F887F0
F887E0
F887FE
F88001
F88001
F88001
F87FF9
F80001
F80001
F80001
FFFFFE
FFFFFC
FFFFF0
FFFFE0
ENDCHAR
STARTCHAR Ecircumflexgrave
ENCODING 7872
SWIDTH 754 0
DWIDTH 27 0
BBX 24 47 2 -4
BITMAP
0001E0
00021C
000E02
001E62
003E1A
003E02
003E02
003FE2
00607C
018008
020F04
0630E4
0E0004
3E0004
3E0F04
3E7FF4
3FFFFC
380003
380001
780001
F87FF9
F88001
F88001
F887FF
F887FC
F887F8
F88004
F88004
F88004
F87FC4
F88004
F88004
F88008
F887F0
F887E0
F887FE
F88001
F88001
F88001
F87FF9
F80001
F80001
F80001
FFFFFE
FFFFFC
FFFFF0
FFFFE0
ENDCHAR
STARTCHAR ecircumflexgrave
ENCODING 7873
SWIDTH 754 0
DWIDTH 27 0
BBX 24 47 2 -4
BITMAP
0001E0
00021C
000E02
001E62
003E1A
003E02
003E02
003FE2
00607C
018008
020F04
0630E4
0E0004
3E0004
3E0F04
3E7FF4
3FFFFC
380003
380001
780001
F87FF9
F88001
F88001
F887FF
F887FC
F887F8
F88004
F88004
F88004
F87FC4
F88004
F88004
F88008
F887F0
F887E0
F887FE
F88001
F88001
F88001
F87FF9
F80001
F80001
F80001
FFFFFE
FFFFFC
FFFFF0
FFFFE0
ENDCHAR
STARTCHAR Ecircumflexhookabove
ENCODING 7874
SWIDTH 754 0
DWIDTH 27 0
BBX 27 50 2 -4
BITMAP
0000FF80
00030040
00077E20
000F0120
001F0120
001FFD20
001F8120
001F8E20
001F9020
0007C0C0
0019FF00
00603E00
01800C00
020F0400
0630E400
1E000400
3E000400
3E0F0400
3E7FF400
3FFFFC00
38000300
38000080
78000080
F87FF880
F8800080
F8800080
F887FF00
F887FC00
F887F800
F8800400
F8800400
F8800400
F87FC400
F8800400
F8800400
F8800800
F887F000
F887E000
F887FE00
F8800080
F8800080
F8800080
F87FF880
F8000080
F8000080
F8000100
FFFFFE00
FFFFFC00
FFFFF000
FFFFE000
ENDCHAR
STARTCHAR ecircumflexhookabove
ENCODING 7875
SWIDTH 754 0
DWIDTH 27 0
BBX 27 50 2 -4
BITMAP
0000FF80
00030040
00077E20
000F0120
001F0120
001FFD20
001F8120
001F8E20
001F9020
0007C0C0
0019FF00
00603E00
01800C00
020F0400
0630E400
1E000400
3E000400
3E0F0400
3E7FF400
3FFFFC00
38000300
38000080
78000080
F87FF880
F8800080
F8800080
F887FF00
F887FC00
F887F800
F8800400
F8800400
F8800400
F87FC400
F8800400
F8800400
F8800800
F887F000
F887E000
F887FE00
F8800080
F8800080
F8800080
F87FF880
F8000080
F8000080
F8000100
FFFFFE00
FFFFFC00
FFFFF000
FFFFE000
ENDCHAR
STARTCHAR Ecircumflextilde
ENCODING 7876
SWIDTH 754 0
DWIDTH 27 0
BBX 24 48 2 -4
BITMAP
00FE08
0101F4
060004
0E3C04
1E03E4
3E0004
3E0004
3FFFF8
3FF9E0
3FE030
3F0008
220F04
0630E4
1E0004
3E0004
3E0F04
3E7FF4
3FFFFC
380003
380001
780001
F87FF9
F88001
F88001
F887FF
F887FC
F887F8
F88004
F88004
F88004
F87FC4
F88004
F88004
F88008
F887F0
F887E0
F887FE
F88001
F88001
F88001
F87FF9
F80001
F80001
F80001
FFFFFE
FFFFFC
FFFFF0
FFFFE0
ENDCHAR
STARTCHAR ecircumflextilde
ENCODING 7877
SWIDTH 754 0
DWIDTH 27 0
BBX 24 48 2 -4
BITMAP
00FE08
0101F4
060004
0E3C04
1E03E4
3E0004
3E0004
3FFFF8
3FF9E0
3FE030
3F0008
220F04
0630E4
1E0004
3E0004
3E0F04
3E7FF4
3FFFFC
380003
380001
780001
F87FF9
F88001
F88001
F887FF
F887FC
F887F8
F88004
F88004
F88004
F87FC4
F88004
F88004
F88008
F887F0
F887E0
F887FE
F88001
F88001
F88001
F87FF9
F80001
F80001
F80001
FFFFFE
FFFFFC
FFFFF0
FFFFE0
ENDCHAR
STARTCHAR Ecircumflexdotbelow
ENCODING 7878
SWIDTH 754 0
DWIDTH 27 0
BBX 24 49 2 -13
BITMAP
000F00
0030E0
01C018
020F04
0630E4
0E0004
1E0004
3E0F04
3E7FF4
3FFFFC
380003
380001
380001
F87FF9
F88001
F88001
F887FF
F887FC
F887F8
F88004
F88004
F88004
F87FC4
F88004
F88004
F88008
F887F0
F887E0
F887FE
F88001
F88001
F88001
F87FF9
F80001
F80001
F80001
FFFFFE
FFC07C
FFC030
FFC020
03C420
07C420
07C020
07C020
07C040
07FF80
07FF00
07FE00
07F800
ENDCHAR
STARTCHAR ecircumflexdotbelow
ENCODING 7879
SWIDTH 754 0
DWIDTH 27 0
BBX 24 49 2 -13
BITMAP
000F00
0030E0
01C018
020F04
0630E4
0E0004
1E0004
3E0F04
3E7FF4
3FFFFC
380003
380001
380001
F87FF9
F88001
F88001
F887FF
F887FC
F887F8
F88004
F88004
F88004
F87FC4
F88004
F88004
F88008
F887F0
F887E0
F887FE
F88001
F88001
F88001
F87FF9
F80001
F80001
F80001
FFFFFE
FFC07C
FFC030
FFC020
03C420
07C420
07C020
07C020
07C040
07FF80
07FF00
07FE00
07F800
ENDCHAR
STARTCHAR Ihookabove
ENCODING 7880
SWIDTH 705 0
DWIDTH 25 0
BBX 23 42 1 -4
BITMAP
007FC0
008020
019F10
078090
0F8050
0FFE50
0FE050
0FC090
0FCF10
07E020
03EFC0
07FF80
04007E
180002
380002
78FFF2
F80202
F80202
FFC23E
FFC23C
FFC238
FFC220
7FC220
07C220
07C220
07C220
07C220
07C220
07C220
07C220
07C23C
080202
180202
380202
78FFF2
F80002
F80002
FC0002
FFFFFC
FFFFF8
FFFFF0
FFFFC0
ENDCHAR
STARTCHAR ihookabove
ENCODING 7881
SWIDTH 705 0
DWIDTH 25 0
BBX 23 42 1 -4
BITMAP
007FC0
008020
019F10
078090
0F8050
0FFE50
0FE050
0FC090
0FCF10
07E020
03EFC0
07FF80
04007E
180002
380002
78FFF2
F80202
F80202
FFC23E
FFC23C
FFC238
FFC220
7FC220
07C220
07C220
07C220
07C220
07C220
07C220
07C220
07C23C
080202
180202
380202
78FFF2
F80002
F80002
FC0002
FFFFFC
FFFFF8
FFFFF0
FFFFC0
ENDCHAR
STARTCHAR Idotbelow
ENCODING 7882
SWIDTH 705 0
DWIDTH 25 0
BBX 23 39 1 -13
BITMAP
07FFFE
080002
380002
78FFF2
F80202
F80202
FFC23E
FFC23C
FFC238
FFC220
FFC220
07C220
07C220
07C220
07C220
07C220
07C220
07C220
07C23C
080202
180202
380202
78FFF2
F80002
F80002
F80002
FFFFFC
FFE078
FFC030
FFC020
03C220
07C220
07C020
07C020
07E040
07FF80
07FF00
07FE00
07FC00
ENDCHAR
STARTCHAR idotbelow
ENCODING 7883
SWIDTH 705 0
DWIDTH 25 0
BBX 23 39 1 -13
BITMAP
07FFFE
080002
380002
78FFF2
F80202
F80202
FFC23E
FFC23C
FFC238
FFC220
FFC220
07C220
07C220
07C220
07C220
07C220
07C220
07C220
07C23C
080202
180202
380202
78FFF2
F80002
F80002
F80002
FFFFFC
FFE078
FFC030
FFC020
03C220
07C220
07C020
07C020
07E040
07FF80
07FF00
07FE00
07FC00
ENDCHAR
STARTCHAR Odotbelow
ENCODING 7884
SWIDTH 837 0
DWIDTH 30 0
BBX 28 40 1 -13
BITMAP
000FF800
00700700
018000C0
02000020
040FD020
0C100C10
18200210
38400110
7843E110
7847E110
F847E110
F847E110
F847E110
F847E110
F847E110
F847E110
F847E110
F847E110
F847E110
F847E110
F843E110
F8400110
F8200210
FC100C10
FC0DD020
FE000020
FF0000C0
7FE00300
7FFFFE00
7FF00C00
3FF00800
0FF00800
00F08800
00F08800
01F00800
01F00800
01FFF000
01FFE000
01FFC000
01FF0000
ENDCHAR
STARTCHAR odotbelow
ENCODING 7885
SWIDTH 837 0
DWIDTH 30 0
BBX 28 40 1 -13
BITMAP
000FF800
00700700
018000C0
02000020
040FD020
0C100C10
18200210
38400110
7843E110
7847E110
F847E110
F847E110
F847E110
F847E110
F847E110
F847E110
F847E110
F847E110
F847E110
F847E110
F843E110
F8400110
F8200210
FC100C10
FC0DD020
FE000020
FF0000C0
7FE00300
7FFFFE00
7FF00C00
3FF00800
0FF00800
00F08800
00F08800
01F00800
01F00800
01FFF000
01FFE000
01FFC000
01FF0000
ENDCHAR
STARTCHAR Ohookabove
ENCODING 7886
SWIDTH 837 0
DWIDTH 30 0
BBX 28 43 1 -5
BITMAP
001FF000
00200800
0067E400
00E01400
01E01200
03FF9200
03F81200
03F86400
03F98400
00780800
00FFF000
00E00F00
010000C0
02000020
040FD020
0C100C10
18200210
38400110
7843E110
7847E110
F847E110
F847E110
F847E110
F847E110
F847E110
F847E110
F847E110
F847E110
F847E110
F847E110
F843E110
F8400110
F8200210
FC100C10
FC0DD020
FE000020
7F000040
7FC00380
7FFFFE00
3FFFFC00
1FFFF800
07FFE000
00180000
ENDCHAR
STARTCHAR ohookabove
ENCODING 7887
SWIDTH 837 0
DWIDTH 30 0
BBX 28 43 1 -5
BITMAP
001FF000
00200800
0067E400
00E01400
01E01200
03FF9200
03F81200
03F86400
03F98400
00780800
00FFF000
00E00F00
010000C0
02000020
040FD020
0C100C10
18200210
38400110
7843E110
7847E110
F847E110
F847E110
F847E110
F847E110
F847E110
F847E110
F847E110
F847E110
F847E110
F847E110
F843E110
F8400110
F8200210
FC100C10
FC0DD020
FE000020
7F000040
7FC00380
7FFFFE00
3FFFFC00
1FFFF800
07FFE000
00180000
ENDCHAR
STARTCHAR Ocircumflexacute
ENCODING 7888
SWIDTH 837 0
DWIDTH 30 0
BBX 28 49 1 -5
BITMAP
00000FC0
00003840
00004040
0001CE40
0003C040
0007C040
0007C0C0
0007C300
00063E00
00380600
00400100
0083C080
038C3880
07800080
0F800080
0F87F080
0FFFFF00
0FE00300
0F0000C0
0E000020
0C0FD020
0C100C10
18200210
38400110
7843E110
7847E110
F847E110
F847E110
F847E110
F847E110
F847E110
F847E110
F847E110
F847E110
F847E110
F847E110
F843E110
F8400110
F8200210
FC100C10
FC0DD020
FE000020
7F000040
7FC00380
7FFFFE00
3FFFFC00
1FFFF800
07FFE000
00180000
ENDCHAR
STARTCHAR ocircumflexacute
ENCODING 7889
SWIDTH 837 0
DWIDTH 30 0
BBX 28 49 1 -5
BITMAP
00000FC0
00003840
00004040
0001CE40
0003C040
0007C040
0007C0C0
0007C300
00063E00
00380600
00400100
0083C080
038C3880
07800080
0F800080
0F87F080
0FFFFF00
0FE00300
0F0000C0
0E000020
0C0FD020
0C100C10
18200210
38400110
7843E110
7847E110
F847E110
F847E110
F847E110
F847E110
F847E110
F847E110
F847E110
F847E110
F847E110
F847E110
F843E110
F8400110
F8200210
FC100C10
FC0DD020
FE000020
7F000040
7FC00380
7FFFFE00
3FFFFC00
1FFFF800
07FFE000
00180000
ENDCHAR
STARTCHAR Ocircumflexgrave
ENCODING 7890
SWIDTH 837 0
DWIDTH 30 0
BBX 28 48 1 -5
BITMAP
0000FC00
00018380
00038080
00079C80
000F8080
000F8080
000FC080
000E3880
00300700
00400100
0083C080
018C3880
07800080
0F800080
0F87F080
0FFFFF00
0FE00300
0F0000C0
0E000020
0C0FD020
0C100C10
18200210
38400110
7843E110
7847E110
F847E110
F847E110
F847E110
F847E110
F847E110
F847E110
F847E110
F847E110
F847E110
F847E110
F843E110
F8400110
F8200210
FC100C10
FC0DD020
FE000020
7F000040
7FC00380
7FFFFE00
3FFFFC00
1FFFF800
07FFE000
00180000
ENDCHAR
STARTCHAR ocircumflexgrave
ENCODING 7891
SWIDTH 837 0
DWIDTH 30 0
BBX 28 48 1 -5
BITMAP
0000FC00
00018380
00038080
00079C80
000F8080
000F8080
000FC080
000E3880
00300700
00400100
0083C080
018C3880
07800080
0F800080
0F87F080
0FFFFF00
0FE00300
0F0000C0
0E000020
0C0FD020
0C100C10
18200210
38400110
7843E110
7847E110
F847E110
F847E110
F847E110
F847E110
F847E110
F847E110
F847E110
F847E110
F847E110
F847E110
F843E110
F8400110
F8200210
FC100C10
FC0DD020
FE000020
7F000040
7FC00380
7FFFFE00
3FFFFC00
1FFFF800
07FFE000
00180000
ENDCHAR
STARTCHAR Ocircumflexhookabove
ENCODING 7892
SWIDTH 837 0
DWIDTH 30 0
BBX 29 51 1 -5
BITMAP
00003FE0
00004010
0001CFC8
0003C028
0007C028
0007FF28
0007E028
0007E1C8
0007F608
0001F030
00063FC0
00380F80
00400100
0083C080
018C3880
07800080
0F800080
0F87F080
0FFFFF00
0FE00300
0F0000C0
0E000020
0C0FD020
0C100C10
18200210
38400110
7843E110
7847E110
F847E110
F847E110
F847E110
F847E110
F847E110
F847E110
F847E110
F847E110
F847E110
F847E110
F843E110
F8400110
F8200210
FC100C10
FC0DD020
FE000020
7F000040
7FC00380
7FFFFE00
3FFFFC00
1FFFF800
07FFE000
00180000
ENDCHAR
STARTCHAR ocircumflexhookabove
ENCODING 7893
SWIDTH 837 0
DWIDTH 30 0
BBX 29 51 1 -5
BITMAP
00003FE0
00004010
0001CFC8
0003C028
0007C028
0007FF28
0007E028
0007E1C8
0007F608
0001F030
00063FC0
00380F80
00400100
0083C080
018C3880
07800080
0F800080
0F87F080
0FFFFF00
0FE00300
0F0000C0
0E000020
0C0FD020
0C100C10
18200210
38400110
7843E110
7847E110
F847E110
F847E110
F847E110
F847E110
F847E110
F847E110
F847E110
F847E110
F847E110
F847E110
F843E110
F8400110
F8200210
FC100C10
FC0DD020
FE000020
7F000040
7FC00380
7FFFFE00
3FFFFC00
1FFFF800
07FFE000
00180000
ENDCHAR
STARTCHAR Ocircumflextilde
ENCODING 7894
SWIDTH 837 0
DWIDTH 30 0
BBX 28 49 1 -5
BITMAP
003F8300
00407C80
00800080
038F0080
0780F880
0F800080
0F800100
0FFFFE00
0FFE7C00
0FF80C00
0FC00300
0883C080
018C3880
07800080
0F800080
0F87F080
0FFFFF00
0FE00300
0F0000C0
0E000020
0C0FD020
0C100C10
18200210
38400110
7843E110
7847E110
F847E110
F847E110
F847E110
F847E110
F847E110
F847E110
F847E110
F847E110
F847E110
F847E110
F843E110
F8400110
F8200210
FC100C10
FC0DD020
FE000020
7F000040
7FC00380
7FFFFE00
3FFFFC00
1FFFF800
07FFE000
00180000
ENDCHAR
STARTCHAR ocircumflextilde
ENCODING 7895
SWIDTH 837 0
DWIDTH 30 0
BBX 28 49 1 -5
BITMAP
003F8300
00407C80
00800080
038F0080
0780F880
0F800080
0F800100
0FFFFE00
0FFE7C00
0FF80C00
0FC00300
0883C080
018C3880
07800080
0F800080
0F87F080
0FFFFF00
0FE00300
0F0000C0
0E000020
0C0FD020
0C100C10
18200210
38400110
7843E110
7847E110
F847E110
F847E110
F847E110
F847E110
F847E110
F847E110
F847E110
F847E110
F847E110
F847E110
F843E110
F8400110
F8200210
FC100C10
FC0DD020
FE000020
7F000040
7FC00380
7FFFFE00
3FFFFC00
1FFFF800
07FFE000
00180000
ENDCHAR
STARTCHAR Ocircumflexdotbelow
ENCODING 7896
SWIDTH 837 0
DWIDTH 30 0
BBX 28 49 1 -13
BITMAP
0003C000
000C3800
00700600
0083C100
018C3880
03800080
0F800080
0F83E080
0F9FFD00
0FFC3E00
0F800180
0E000040
0C0FD020
0C100C10
1C200210
38400110
78400110
7843E110
F847E110
F847E110
F847E110
F847E110
F847E110
F847E110
F847E110
F847E110
F847E110
F847E110
F847E110
F843E110
F8400110
F8200210
FC100C10
FC0DD020
FE000060
FF000080
7FE00300
7FFFFE00
3FF00C00
0FF00800
01F08800
00F08800
01F00800
01F00800
01F80800
01FFF000
01FFC000
01FF8000
00FF0000
ENDCHAR
STARTCHAR ocircumflexdotbelow
ENCODING 7897
SWIDTH 837 0
DWIDTH 30 0
BBX 28 49 1 -13
BITMAP
0003C000
000C3800
00700600
0083C100
018C3880
03800080
0F800080
0F83E080
0F9FFD00
0FFC3E00
0F800180
0E000040
0C0FD020
0C100C10
1C200210
38400110
78400110
7843E110
F847E110
F847E110
F847E110
F847E110
F847E110
F847E110
F847E110
F847E110
F847E110
F847E110
F847E110
F843E110
F8400110
F8200210
FC100C10
FC0DD020
FE000060
FF000080
7FE00300
7FFFFE00
3FF00C00
0FF00800
01F08800
00F08800
01F00800
01F00800
01F80800
01FFF000
01FFC000
01FF8000
00FF0000
ENDCHAR
STARTCHAR Ohornacute
ENCODING 7898
SWIDTH 847 0
DWIDTH 30 0
BBX 30 40 1 -5
BITMAP
0001FE00
00FE0200
01000200
020FE200
06100200
0E0003F8
1E000E04
3F0FFA04
3FFFFE04
3FE00024
3F000024
1E0FD044
0C100E88
1C200210
38400110
7843E110
7847E110
F847E110
F847E110
F847E110
F847E110
F847E110
F847E110
F847E110
F847E110
F847E110
F847E110
F843E110
F8400110
F8200210
FC100410
FC0DD810
FE000020
FF000040
7FC00380
7FFFFE00
3FFFFC00
1FFFF800
07FFE000
00180000
ENDCHAR
STARTCHAR ohornacute
ENCODING 7899
SWIDTH 847 0
DWIDTH 30 0
BBX 30 40 1 -5
BITMAP
0001FE00
00FE0200
01000200
020FE200
06100200
0E0003F8
1E000E04
3F0FFA04
3FFFFE04
3FE00024
3F000024
1E0FD044
0C100E88
1C200210
38400110
7843E110
7847E110
F847E110
F847E110
F847E110
F847E110
F847E110
F847E110
F847E110
F847E110
F847E110
F847E110
F843E110
F8400110
F8200210
FC100410
FC0DD810
FE000020
FF000040
7FC00380
7FFFFE00
3FFFFC00
1FFFF800
07FFE000
00180000
ENDCHAR
STARTCHAR Ohorngrave
ENCODING 7900
SWIDTH 847 0
DWIDTH 30 0
BBX 30 41 1 -5
BITMAP
01C00000
023FE000
06001C00
0E300200
1E0FE200
3E000200
3E0003F8
3FF80204
3FFFFE04
3FFFFE04
3FE00024
01000024
020FD044
0C100E88
1C200210
38400110
7843E110
7847E110
F847E110
F847E110
F847E110
F847E110
F847E110
F847E110
F847E110
F847E110
F847E110
F847E110
F843E110
F8400110
F8200210
FC100410
FC0DD810
FE000020
FF000040
7FC00380
7FFFFE00
3FFFFC00
1FFFF800
0FFFE000
00180000
ENDCHAR
STARTCHAR ohorngrave
ENCODING 7901
SWIDTH 847 0
DWIDTH 30 0
BBX 30 41 1 -5
BITMAP
01C00000
023FE000
06001C00
0E300200
1E0FE200
3E000200
3E0003F8
3FF80204
3FFFFE04
3FFFFE04
3FE00024
01000024
020FD044
0C100E88
1C200210
38400110
7843E110
7847E110
F847E110
F847E110
F847E110
F847E110
F847E110
F847E110
F847E110
F847E110
F847E110
F847E110
F843E110
F8400110
F8200210
FC100410
FC0DD810
FE000020
FF000040
7FC00380
7FFFFE00
3FFFFC00
1FFFF800
0FFFE000
00180000
ENDCHAR
STARTCHAR Ohornhookabove
ENCODING 7902
SWIDTH 847 0
DWIDTH 30 0
BBX 30 43 1 -5
BITMAP
001FF000
00200800
0067E400
00E01400
01E01200
03FF9200
03F81200
03F86400
03FB85F8
00780A04
00FFF604
00E00E04
00800024
03000024
040FD044
04100E88
18200210
38400110
7843E110
7847E110
F847E110
F847E110
F847E110
F847E110
F847E110
F847E110
F847E110
F847E110
F847E110
F847E110
F843E110
F8400110
F8200210
FC100410
FC0DD810
FE000020
FF000040
7FC00380
7FFFFE00
3FFFFC00
1FFFF800
0FFFE000
00180000
ENDCHAR
STARTCHAR ohornhookabove
ENCODING 7903
SWIDTH 847 0
DWIDTH 30 0
BBX 30 43 1 -5
BITMAP
001FF000
00200800
0067E400
00E01400
01E01200
03FF9200
03F81200
03F86400
03FB85F8
00780A04
00FFF604
00E00E04
00800024
03000024
040FD044
04100E88
18200210
38400110
7843E110
7847E110
F847E110
F847E110
F847E110
F847E110
F847E110
F847E110
F847E110
F847E110
F847E110
F847E110
F843E110
F8400110
F8200210
FC100410
FC0DD810
FE000020
FF000040
7FC00380
7FFFFE00
3FFFFC00
1FFFF800
0FFFE000
00180000
ENDCHAR
STARTCHAR Ohorntilde
ENCODING 7904
SWIDTH 847 0
DWIDTH 30 0
BBX 30 40 1 -5
BITMAP
007F0C00
0180F200
03000200
071F0200
0F00E200
1F0003F8
1F000204
1FFFDE04
1FFFFE04
1FE00024
1F000024
060FD044
0C100E88
1C200210
38400110
7843E110
7847E110
F847E110
F847E110
F847E110
F847E110
F847E110
F847E110
F847E110
F847E110
F847E110
F847E110
F843E110
F8400110
F8200210
FC100410
FC0DD810
FE000020
FF000040
7FC00380
7FFFFE00
3FFFFC00
1FFFF800
07FFE000
00180000
ENDCHAR
STARTCHAR ohorntilde
ENCODING 7905
SWIDTH 847 0
DWIDTH 30 0
BBX 30 40 1 -5
BITMAP
007F0C00
0180F200
03000200
071F0200
0F00E200
1F0003F8
1F000204
1FFFDE04
1FFFFE04
1FE00024
1F000024
060FD044
0C100E88
1C200210
38400110
7843E110
7847E110
F847E110
F847E110
F847E110
F847E110
F847E110
F847E110
F847E110
F847E110
F847E110
F847E110
F843E110
F8400110
F8200210
FC100410
FC0DD810
FE000020
FF000040
7FC00380
7FFFFE00
3FFFFC00
1FFFF800
07FFE000
00180000
ENDCHAR
STARTCHAR Ohorndotbelow
ENCODING 7906
SWIDTH 847 0
DWIDTH 30 0
BBX 30 42 1 -13
BITMAP
000001F8
00000204
000FFE04
00700024
01800024
02000044
040FD084
0C100F08
18200210
38400110
7843E110
7847E110
F847E110
F847E110
F847E110
F847E110
F847E110
F847E110
F847E110
F847E110
F847E110
F847E110
F843E110
F8400110
F8200210
FC100410
FC0DD820
FE000020
FF0000C0
7FE00300
7FFFFE00
7FF00C00
3FF00800
0FF00800
00F08800
00F08800
01F00800
01F00800
01FFF000
01FFE000
01FFC000
01FF0000
ENDCHAR
STARTCHAR ohorndotbelow
ENCODING 7907
SWIDTH 847 0
DWIDTH 30 0
BBX 30 42 1 -13
BITMAP
000001F8
00000204
000FFE04
00700024
01800024
02000044
040FD084
0C100F08
18200210
38400110
7843E110
7847E110
F847E110
F847E110
F847E110
F847E110
F847E110
F847E110
F847E110
F847E110
F847E110
F847E110
F843E110
F8400110
F8200210
FC100410
FC0DD820
FE000020
FF0000C0
7FE00300
7FFFFE00
7FF00C00
3FF00800
0FF00800
00F08800
00F08800
01F00800
01F00800
01FFF000
01FFE000
01FFC000
01FF0000
ENDCHAR
STARTCHAR Udotbelow
ENCODING 7908
SWIDTH 846 0
DWIDTH 30 0
BBX 28 39 1 -13
BITMAP
07FC0FF0
08043010
18047010
3804F010
7845F110
F845F110
F845F110
F845F110
F845F110
F845F110
F845F110
F845F110
F845F110
F845F110
F845F110
F845F110
F845F110
F845F110
F845F110
F843E110
F8400110
FC200210
FC180410
FC05D810
FE000020
7F000040
7FE00380
7FFFFE00
3FF80400
1FF00800
0FF00800
00708800
00F08800
01F00800
01F80800
01FFF000
01FFE000
01FFC000
00FF0000
ENDCHAR
STARTCHAR udotbelow
ENCODING 7909
SWIDTH 846 0
DWIDTH 30 0
BBX 28 39 1 -13
BITMAP
07FC0FF0
08043010
18047010
3804F010
7845F110
F845F110
F845F110
F845F110
F845F110
F845F110
F845F110
F845F110
F845F110
F845F110
F845F110
F845F110
F845F110
F845F110
F845F110
F843E110
F8400110
FC200210
FC180410
FC05D810
FE000020
7F000040
7FE00380
7FFFFE00
3FF80400
1FF00800
0FF00800
00708800
00F08800
01F00800
01F80800
01FFF000
01FFE000
01FFC000
00FF0000
ENDCHAR
ENDFONT
